<svg width="49" height="49" viewBox="0 0 49 49" fill="none" xmlns="http://www.w3.org/2000/svg">
<circle cx="24.5" cy="24.5" r="22.5" fill="#222222"/>
<g clip-path="url(#clip0_316_64)">
<path d="M33.068 29.3656C32.7504 30.0993 32.3745 30.7747 31.9389 31.3956C31.3452 32.242 30.8591 32.8279 30.4845 33.1533C29.9038 33.6873 29.2816 33.9609 28.6153 33.9764C28.137 33.9764 27.5602 33.8403 26.8887 33.5642C26.2151 33.2894 25.596 33.1533 25.0299 33.1533C24.4362 33.1533 23.7995 33.2894 23.1184 33.5642C22.4363 33.8403 21.8869 33.9842 21.4667 33.9984C20.8278 34.0257 20.191 33.7444 19.5553 33.1533C19.1496 32.7994 18.6421 32.1928 18.0341 31.3333C17.3819 30.4156 16.8456 29.3514 16.4255 28.1381C15.9755 26.8276 15.75 25.5585 15.75 24.3299C15.75 22.9226 16.0541 21.7088 16.6632 20.6916C17.1419 19.8746 17.7788 19.2301 18.5758 18.7569C19.3729 18.2838 20.2341 18.0427 21.1616 18.0273C21.6691 18.0273 22.3346 18.1842 23.1616 18.4927C23.9863 18.8023 24.5158 18.9593 24.748 18.9593C24.9215 18.9593 25.5098 18.7757 26.507 18.4098C27.45 18.0704 28.2459 17.9299 28.8979 17.9853C30.6647 18.1279 31.9921 18.8243 32.8748 20.0791C31.2947 21.0365 30.513 22.3775 30.5286 24.0978C30.5429 25.4377 31.029 26.5527 31.9843 27.4381C32.4172 27.849 32.9007 28.1666 33.4387 28.3921C33.322 28.7305 33.1989 29.0545 33.068 29.3656ZM29.0159 13.4204C29.0159 14.4706 28.6322 15.4512 27.8674 16.3588C26.9445 17.4379 25.8281 18.0614 24.6175 17.963C24.6021 17.837 24.5932 17.7044 24.5932 17.565C24.5932 16.5568 25.0321 15.4778 25.8115 14.5956C26.2007 14.1489 26.6956 13.7774 27.2957 13.4812C27.8946 13.1893 28.4611 13.0279 28.9938 13.0002C29.0094 13.1406 29.0159 13.2811 29.0159 13.4204V13.4204Z" fill="#EEEEEE"/>
</g>
<defs>
<clipPath id="clip0_316_64">
<rect width="21" height="21" fill="white" transform="translate(14 13)"/>
</clipPath>
</defs>
</svg>
