<svg width="114" height="130" viewBox="0 0 114 130" fill="none" xmlns="http://www.w3.org/2000/svg">
<g clip-path="url(#clip0_620_766)">
<path d="M42.2619 34.4844L49.4669 11.976C50.6801 8.17526 56.2102 8.65449 56.7464 12.6166L59.9256 36.0345C60.2728 38.5988 63.0576 40.0484 65.3573 38.862L86.3634 28.034C89.9071 26.2037 93.4811 30.4558 91.0636 33.6296L76.7461 52.4355C75.1818 54.491 76.126 57.4857 78.5864 58.2722L101.101 65.4646C104.902 66.6779 104.423 72.2079 100.461 72.7442L77.0429 75.9234C74.4786 76.2705 73.0289 79.0554 74.2154 81.355L85.0434 102.361C86.8737 105.905 82.6216 109.479 79.4478 107.061L60.6419 92.7439C58.5864 91.1796 55.5917 92.1238 54.8052 94.5842L47.6128 117.099C46.3995 120.9 40.8695 120.421 40.3332 116.459L37.154 93.0407C36.8068 90.4764 34.022 89.0267 31.7224 90.2132L10.7162 101.041C7.17256 102.871 3.5985 98.6194 6.01597 95.4455L20.3335 76.6397C21.8978 74.5841 20.9536 71.5895 18.4932 70.8029L-4.02477 63.601C-7.82552 62.3878 -7.34629 56.8577 -3.38417 56.3214L20.0337 53.1423C22.598 52.7951 24.0477 50.0103 22.8612 47.7106L12.0333 26.7044C10.2029 23.1608 14.455 19.5867 17.6288 22.0042L36.4347 36.3218C38.4903 37.886 41.4849 36.9418 42.2715 34.4814L42.2619 34.4844Z" fill="white"/>
</g>
<defs>
<clipPath id="clip0_620_766">
<rect width="102.89" height="102.89" fill="white" transform="translate(-16 30.9404) rotate(-17.5003)"/>
</clipPath>
</defs>
</svg>
