<svg width="317" height="243" viewBox="0 0 317 243" fill="none" xmlns="http://www.w3.org/2000/svg">
<g clip-path="url(#clip0_30_111)">
<g clip-path="url(#clip1_30_111)">
<path d="M312 232.5C312 233.328 304.389 234 295 234C285.611 234 278 233.328 278 232.5C278 231.672 285.611 231 295 231C304.389 231 312 231.672 312 232.5Z" fill="#D9D9D9"/>
<ellipse cx="188" cy="238" rx="17" ry="4" fill="#D9D9D9"/>
<ellipse cx="176" cy="233" rx="17" ry="4" fill="#D9D9D9"/>
<ellipse cx="233" cy="238" rx="17" ry="4" fill="#D9D9D9"/>
<path d="M166.449 234.054C168.848 234.054 170.792 232.522 170.792 230.633C170.792 228.744 168.848 227.212 166.449 227.212C164.051 227.212 162.106 228.744 162.106 230.633C162.106 232.522 164.051 234.054 166.449 234.054Z" fill="#101A4D"/>
<path d="M188.836 234.054C191.234 234.054 193.179 232.522 193.179 230.633C193.179 228.744 191.234 227.212 188.836 227.212C186.437 227.212 184.493 228.744 184.493 230.633C184.493 232.522 186.437 234.054 188.836 234.054Z" fill="#101A4D"/>
<path d="M181.775 176.444H174.682C172.878 176.444 171.415 177.903 171.415 179.703V201.203C171.415 203.003 172.878 204.462 174.682 204.462H181.775C183.58 204.462 185.043 203.003 185.043 201.203V179.703C185.043 177.903 183.58 176.444 181.775 176.444Z" stroke="#101A4D" stroke-width="1.84" stroke-miterlimit="10"/>
<path d="M185.326 175.879H170.671C169.755 175.879 169.013 176.62 169.013 177.533V177.695C169.013 178.608 169.755 179.348 170.671 179.348H185.326C186.241 179.348 186.984 178.608 186.984 177.695V177.533C186.984 176.62 186.241 175.879 185.326 175.879Z" fill="#101A4D"/>
<path d="M196.309 186.94H160.149C158.179 186.94 156.582 188.533 156.582 190.498V225.373C156.582 227.338 158.179 228.931 160.149 228.931H196.309C198.278 228.931 199.875 227.338 199.875 225.373V190.498C199.875 188.533 198.278 186.94 196.309 186.94Z" fill="#E1AE5F" stroke="#777777" stroke-width="1.44" stroke-miterlimit="10"/>
<path d="M168.964 195.636C168.964 194.246 167.836 193.119 166.445 193.119C165.054 193.119 163.926 194.246 163.926 195.636V220.234C163.926 221.624 165.054 222.751 166.445 222.751C167.836 222.751 168.964 221.624 168.964 220.234V195.636Z" fill="#CC9042" stroke="#777777" stroke-width="1.44" stroke-miterlimit="10"/>
<path d="M180.513 195.636C180.513 194.246 179.386 193.119 177.994 193.119C176.603 193.119 175.475 194.246 175.475 195.636V220.234C175.475 221.624 176.603 222.751 177.994 222.751C179.386 222.751 180.513 221.624 180.513 220.234V195.636Z" fill="#CC9042" stroke="#777777" stroke-width="1.44" stroke-miterlimit="10"/>
<path d="M192.063 195.636C192.063 194.246 190.935 193.119 189.543 193.119C188.152 193.119 187.024 194.246 187.024 195.636V220.234C187.024 221.624 188.152 222.751 189.543 222.751C190.935 222.751 192.063 221.624 192.063 220.234V195.636Z" fill="#CC9042" stroke="#777777" stroke-width="1.44" stroke-miterlimit="10"/>
<path d="M239.034 157.818L238.947 157.835C232.459 159.077 228.208 165.329 229.453 171.801L232.484 187.56C233.729 194.031 239.997 198.271 246.485 197.03L246.572 197.013C253.06 195.771 257.311 189.519 256.066 183.047L253.035 167.288C251.791 160.817 245.522 156.577 239.034 157.818Z" fill="#00187F"/>
<mask id="mask0_30_111" style="mask-type:luminance" maskUnits="userSpaceOnUse" x="229" y="157" width="28" height="41">
<path d="M239.034 157.818L238.947 157.835C232.459 159.077 228.208 165.329 229.453 171.801L232.484 187.56C233.729 194.031 239.997 198.271 246.485 197.03L246.572 197.013C253.06 195.771 257.311 189.519 256.066 183.047L253.035 167.288C251.791 160.817 245.522 156.577 239.034 157.818Z" fill="white"/>
</mask>
<g mask="url(#mask0_30_111)">
<path d="M249.149 167.532C247.899 161.034 241.607 156.777 235.095 158.023C228.583 159.269 224.317 165.547 225.567 172.045L228.579 187.709C229.829 194.207 236.121 198.464 242.633 197.218C249.145 195.972 253.411 189.694 252.161 183.196L249.149 167.532Z" fill="#0567ED"/>
</g>
<path d="M239.034 157.818L238.947 157.835C232.459 159.077 228.208 165.329 229.453 171.801L232.484 187.56C233.729 194.031 239.997 198.271 246.485 197.03L246.572 197.013C253.06 195.771 257.311 189.519 256.066 183.047L253.035 167.288C251.791 160.817 245.522 156.577 239.034 157.818Z" stroke="#777777" stroke-width="0.74" stroke-miterlimit="10"/>
<path d="M232.323 193.426C227.26 194.136 223.451 197.645 223.556 201.509L224.041 219.758C218.946 222.469 215.832 228.148 216.681 234.191C217.053 236.837 219.512 238.684 222.165 238.313L241.292 235.627C241.543 235.594 241.785 235.53 242.02 235.465C247.438 234.473 251.126 230.302 250.067 226.212L242.982 198.791C242.012 195.047 237.386 192.716 232.323 193.426Z" fill="#F3F5FF"/>
<mask id="mask1_30_111" style="mask-type:luminance" maskUnits="userSpaceOnUse" x="216" y="193" width="35" height="46">
<path d="M232.323 193.426C227.26 194.136 223.451 197.645 223.556 201.509L224.041 219.758C218.946 222.469 215.832 228.148 216.681 234.191C217.053 236.837 219.512 238.684 222.165 238.313L241.292 235.627C241.543 235.594 241.785 235.53 242.02 235.465C247.438 234.473 251.126 230.302 250.067 226.212L242.982 198.791C242.012 195.047 237.386 192.716 232.323 193.426Z" fill="white"/>
</mask>
<g mask="url(#mask1_30_111)">
<path d="M240.192 213.707C240.612 217.572 239.901 221.718 237.434 224.719C234.045 228.85 228.303 229.947 223.224 231.633C221.51 232.198 219.771 232.9 218.525 234.207C217.28 235.513 216.673 237.579 217.53 239.16C218.517 240.991 220.887 241.467 222.957 241.685C232.735 242.71 242.659 242.33 252.331 240.572C256.763 239.765 261.519 238.434 264.164 234.795C266.913 231.02 266.59 225.913 266.145 221.266C265.652 216.16 265.029 210.706 261.745 206.761C258.842 203.268 254.248 201.533 249.719 201.146C247.414 200.945 238.785 200.372 237.483 202.647C236.455 204.446 239.949 211.432 240.2 213.699L240.192 213.707Z" fill="#E6ECF4"/>
</g>
<path d="M232.323 193.426C227.26 194.136 223.451 197.645 223.556 201.509L224.041 219.758C218.946 222.469 215.832 228.148 216.681 234.191C217.053 236.837 219.512 238.684 222.165 238.313L241.292 235.627C241.543 235.594 241.785 235.53 242.02 235.465C247.438 234.473 251.126 230.302 250.067 226.212L242.982 198.791C242.012 195.047 237.386 192.716 232.323 193.426Z" stroke="#777777" stroke-width="1.51" stroke-miterlimit="10"/>
<path d="M247.626 215.617L224.039 216.616C223.035 216.658 222.256 217.503 222.298 218.502C222.341 219.501 223.189 220.277 224.193 220.235L247.78 219.236C248.784 219.194 249.563 218.349 249.521 217.35C249.478 216.35 248.63 215.575 247.626 215.617Z" fill="#00187F" stroke="#777777" stroke-width="1.51" stroke-miterlimit="10"/>
<path d="M283.186 232.367C285.584 232.367 287.529 230.428 287.529 228.035C287.529 225.642 285.584 223.703 283.186 223.703C280.787 223.703 278.843 225.642 278.843 228.035C278.843 230.428 280.787 232.367 283.186 232.367Z" fill="#101A4D"/>
<path d="M305.58 232.367C307.979 232.367 309.923 230.428 309.923 228.035C309.923 225.642 307.979 223.703 305.58 223.703C303.182 223.703 301.237 225.642 301.237 228.035C301.237 230.428 303.182 232.367 305.58 232.367Z" fill="#101A4D"/>
<path d="M297.282 145.981H291.484C288.576 145.981 286.219 148.333 286.219 151.233V201.453C286.219 204.354 288.576 206.705 291.484 206.705H297.282C300.19 206.705 302.547 204.354 302.547 201.453V151.233C302.547 148.333 300.19 145.981 297.282 145.981Z" stroke="#101A4D" stroke-width="2.48" stroke-miterlimit="10"/>
<path d="M309.098 197.621H279.659C276.595 197.621 274.111 200.099 274.111 203.155V219.871C274.111 222.928 276.595 225.405 279.659 225.405H309.098C312.162 225.405 314.646 222.928 314.646 219.871V203.155C314.646 200.099 312.162 197.621 309.098 197.621Z" fill="#7655FF" stroke="#777777" stroke-width="1.1" stroke-miterlimit="10"/>
<path d="M304.699 194.725L307.812 191.006C309.972 188.424 309.972 184.245 307.812 181.672L304.699 177.953C299.328 171.539 290.61 171.539 285.24 177.953L282.126 181.672C279.967 184.253 279.967 188.432 282.126 191.006L285.24 194.725C290.61 201.138 299.328 201.138 304.699 194.725Z" fill="white"/>
<mask id="mask2_30_111" style="mask-type:luminance" maskUnits="userSpaceOnUse" x="280" y="173" width="30" height="27">
<path d="M304.699 194.725L307.812 191.006C309.972 188.424 309.972 184.245 307.812 181.672L304.699 177.953C299.328 171.539 290.61 171.539 285.24 177.953L282.126 181.672C279.967 184.253 279.967 188.432 282.126 191.006L285.24 194.725C290.61 201.138 299.328 201.138 304.699 194.725Z" fill="white"/>
</mask>
<g mask="url(#mask2_30_111)">
<path d="M306.203 175.266C307.82 180.825 304.917 186.988 300.307 190.505C295.697 194.023 289.736 195.289 283.938 195.58C282.749 197.266 282.959 199.686 284.116 201.397C285.272 203.107 287.205 204.172 289.211 204.68C291.217 205.196 293.303 205.22 295.374 205.245C298.56 205.277 301.747 205.317 304.925 205.35C307.004 205.374 309.179 205.374 311.039 204.454C313.757 203.115 315.221 200.106 316.045 197.193C317.121 193.41 317.428 189.295 316.175 185.56C314.921 181.825 311.921 178.558 308.079 177.654" fill="#E6ECF4"/>
</g>
<path d="M304.699 194.725L307.812 191.006C309.972 188.424 309.972 184.245 307.812 181.672L304.699 177.953C299.328 171.539 290.61 171.539 285.24 177.953L282.126 181.672C279.967 184.253 279.967 188.432 282.126 191.006L285.24 194.725C290.61 201.138 299.328 201.138 304.699 194.725Z" stroke="#777777" stroke-width="1.27" stroke-miterlimit="10"/>
<path d="M295.6 192.603C297.141 192.603 298.391 191.256 298.391 189.594C298.391 187.932 297.141 186.585 295.6 186.585C294.059 186.585 292.81 187.932 292.81 189.594C292.81 191.256 294.059 192.603 295.6 192.603Z" fill="white"/>
<mask id="mask3_30_111" style="mask-type:luminance" maskUnits="userSpaceOnUse" x="292" y="186" width="7" height="7">
<path d="M295.6 192.603C297.141 192.603 298.391 191.256 298.391 189.594C298.391 187.932 297.141 186.585 295.6 186.585C294.059 186.585 292.81 187.932 292.81 189.594C292.81 191.256 294.059 192.603 295.6 192.603Z" fill="white"/>
</mask>
<g mask="url(#mask3_30_111)">
<path d="M290.416 187.537C292.26 189.578 295.535 190.159 297.97 188.876C298.221 188.747 298.471 188.593 298.746 188.569C299.199 188.537 299.62 188.876 299.79 189.295C299.959 189.715 299.927 190.191 299.814 190.626C299.45 192.03 298.269 193.184 296.854 193.515C295.438 193.845 293.861 193.345 292.907 192.256C291.953 191.167 291.653 189.537 292.171 188.19" fill="#E6ECF4"/>
</g>
<path d="M295.6 192.603C297.141 192.603 298.391 191.256 298.391 189.594C298.391 187.932 297.141 186.585 295.6 186.585C294.059 186.585 292.81 187.932 292.81 189.594C292.81 191.256 294.059 192.603 295.6 192.603Z" stroke="#777777" stroke-width="1.27" stroke-miterlimit="10"/>
<path d="M287.237 200.477C288.778 200.477 290.028 199.13 290.028 197.468C290.028 195.806 288.778 194.458 287.237 194.458C285.696 194.458 284.447 195.806 284.447 197.468C284.447 199.13 285.696 200.477 287.237 200.477Z" fill="white"/>
<mask id="mask4_30_111" style="mask-type:luminance" maskUnits="userSpaceOnUse" x="284" y="194" width="7" height="7">
<path d="M287.237 200.477C288.778 200.477 290.028 199.13 290.028 197.468C290.028 195.806 288.778 194.458 287.237 194.458C285.696 194.458 284.447 195.806 284.447 197.468C284.447 199.13 285.696 200.477 287.237 200.477Z" fill="white"/>
</mask>
<g mask="url(#mask4_30_111)">
<path d="M284.746 195.265C284.504 196.362 284.989 197.589 285.919 198.226C286.849 198.863 288.176 198.871 289.114 198.242C289.648 197.887 290.23 197.314 290.828 197.556C291.322 197.758 291.451 198.411 291.37 198.936C291.095 200.711 289.324 201.937 287.553 202.252C286.76 202.389 285.911 202.381 285.183 202.042C284.277 201.614 283.647 200.662 283.606 199.662C283.566 198.662 284.124 197.661 284.997 197.169" fill="#E6ECF4"/>
</g>
<path d="M287.237 200.477C288.778 200.477 290.028 199.13 290.028 197.468C290.028 195.806 288.778 194.458 287.237 194.458C285.696 194.458 284.447 195.806 284.447 197.468C284.447 199.13 285.696 200.477 287.237 200.477Z" stroke="#777777" stroke-width="1.27" stroke-miterlimit="10"/>
<path d="M280.962 183.584C279.692 183.995 279.401 186.448 280.29 189.166C281.18 191.885 282.87 193.692 284.132 193.281C285.394 192.869 285.693 190.417 284.803 187.698C283.914 184.979 282.223 183.172 280.962 183.584Z" fill="#B6D4FF" stroke="#777777" stroke-width="1.15" stroke-miterlimit="10"/>
<path d="M285.547 185.649C285.931 185.649 286.243 185.338 286.243 184.955C286.243 184.572 285.931 184.261 285.547 184.261C285.163 184.261 284.852 184.572 284.852 184.955C284.852 185.338 285.163 185.649 285.547 185.649Z" fill="url(#paint0_radial_30_111)"/>
<mask id="mask5_30_111" style="mask-type:luminance" maskUnits="userSpaceOnUse" x="279" y="183" width="7" height="11">
<path d="M280.962 183.584C279.692 183.995 279.401 186.448 280.29 189.166C281.18 191.885 282.87 193.692 284.132 193.281C285.394 192.869 285.693 190.417 284.803 187.698C283.914 184.979 282.223 183.172 280.962 183.584Z" fill="white"/>
</mask>
<g mask="url(#mask5_30_111)">
<path d="M281.272 191.872C282.011 191.662 282.268 190.293 281.846 188.815C281.425 187.336 280.484 186.308 279.745 186.518C279.006 186.727 278.749 188.096 279.17 189.574C279.592 191.053 280.533 192.081 281.272 191.872Z" fill="#0505E0"/>
</g>
<path d="M287.763 183.963C287.763 188.061 284.439 191.377 280.331 191.377" stroke="#303030" stroke-width="1.15" stroke-miterlimit="10"/>
<path d="M280.994 192.313C281.91 192.313 282.652 191.793 282.652 191.151C282.652 190.509 281.91 189.989 280.994 189.989C280.078 189.989 279.336 190.509 279.336 191.151C279.336 191.793 280.078 192.313 280.994 192.313Z" fill="#303030"/>
<path d="M289.065 179.38C289.389 178.8 289.462 178.09 289.195 177.436C288.726 176.283 287.399 175.726 286.243 176.194C285.086 176.662 284.528 177.985 284.997 179.138C285.264 179.8 285.814 180.252 286.453 180.445C286.13 181.026 286.057 181.736 286.324 182.39C286.793 183.543 288.119 184.1 289.276 183.632C290.432 183.164 290.99 181.841 290.521 180.687C290.254 180.026 289.704 179.574 289.065 179.38Z" fill="#0567ED" stroke="#777777" stroke-width="0.78" stroke-miterlimit="10"/>
<mask id="mask6_30_111" style="mask-type:luminance" maskUnits="userSpaceOnUse" x="280" y="173" width="30" height="27">
<path d="M304.683 194.725L307.796 191.006C309.956 188.424 309.956 184.245 307.796 181.672L304.683 177.953C299.312 171.539 290.594 171.539 285.224 177.953L282.11 181.672C279.951 184.253 279.951 188.432 282.11 191.006L285.224 194.725C290.594 201.138 299.312 201.138 304.683 194.725Z" fill="white"/>
</mask>
<g mask="url(#mask6_30_111)">
<path d="M296.312 173.152C296.312 173.152 304.278 178.138 300.356 198.629" stroke="#777777" stroke-width="1.27" stroke-miterlimit="10"/>
</g>
<path d="M302.507 144.997H286.251C284.795 144.997 283.614 146.175 283.614 147.627V147.635C283.614 149.088 284.795 150.265 286.251 150.265H302.507C303.963 150.265 305.143 149.088 305.143 147.635V147.627C305.143 146.175 303.963 144.997 302.507 144.997Z" fill="#101A4D"/>
<path d="M206.831 193.023C202.269 190.715 197.133 191.433 195.006 194.66L184.954 209.916C179.219 209.238 173.413 212.126 170.655 217.564C169.441 219.952 170.404 222.864 172.798 224.074L190.033 232.771C190.259 232.884 190.485 232.972 190.72 233.045C195.734 235.32 201.153 233.997 202.625 230.044L212.516 203.494C213.867 199.872 211.4 195.322 206.839 193.014L206.831 193.023Z" fill="#F3F5FF"/>
<mask id="mask7_30_111" style="mask-type:luminance" maskUnits="userSpaceOnUse" x="170" y="191" width="43" height="44">
<path d="M206.831 193.023C202.269 190.715 197.133 191.433 195.006 194.66L184.954 209.916C179.219 209.238 173.413 212.126 170.655 217.564C169.441 219.952 170.404 222.864 172.798 224.074L190.033 232.771C190.259 232.884 190.485 232.972 190.72 233.045C195.734 235.32 201.153 233.997 202.625 230.044L212.516 203.494C213.867 199.872 211.4 195.322 206.839 193.014L206.831 193.023Z" fill="white"/>
</mask>
<g mask="url(#mask7_30_111)">
<path d="M211.028 190.505C207.89 205.374 197.53 218.556 183.797 225.147C182.196 225.913 180.335 226.857 180.004 228.6C179.599 230.77 181.799 232.456 183.716 233.553C188.803 236.482 194.513 239.523 200.263 238.281C203.862 237.506 206.952 235.078 209.144 232.125C211.335 229.173 212.726 225.712 213.899 222.226C215.961 216.111 217.433 209.803 218.283 203.413C218.727 200.089 218.946 196.483 217.215 193.611C215.484 190.739 211.044 189.327 208.691 191.707" fill="#E6ECF4"/>
</g>
<path d="M206.831 193.023C202.269 190.715 197.133 191.433 195.006 194.66L184.954 209.916C179.219 209.238 173.413 212.126 170.655 217.564C169.441 219.952 170.404 222.864 172.798 224.074L190.033 232.771C190.259 232.884 190.485 232.972 190.72 233.045C195.734 235.32 201.153 233.997 202.625 230.044L212.516 203.494C213.867 199.872 211.4 195.322 206.839 193.014L206.831 193.023Z" stroke="#777777" stroke-width="1.51" stroke-miterlimit="10"/>
<path d="M200.935 146.03L195.055 153.775L184.412 162.979C182.228 164.867 181.023 167.634 181.12 170.514L181.177 172.047C180.408 173.87 179.446 175.702 178.872 177.59C177.432 182.349 180.481 188.787 185.35 190.296C189.984 191.732 196.171 189.11 198.217 184.713C199.277 182.438 199.835 179.832 200.587 177.428C201.339 175.016 202.091 172.604 202.835 170.192C204.178 165.884 205.512 161.568 206.855 157.26C208.319 152.54 205.65 147.49 200.927 146.022L200.935 146.03Z" fill="#F3F5FF" stroke="#777777" stroke-width="1.62" stroke-miterlimit="10"/>
<path d="M197.372 179.932L180.67 169.554C179.733 168.972 178.501 169.257 177.918 170.192L177.914 170.198C177.331 171.133 177.617 172.361 178.553 172.943L195.255 183.321C196.191 183.903 197.423 183.618 198.007 182.684L198.011 182.677C198.594 181.743 198.308 180.514 197.372 179.932Z" fill="#00187F"/>
<path d="M232.695 154.307C225.99 152.92 217.183 153.379 210.041 153.581C201.792 153.992 198.549 156.203 195.007 162.939C189.248 173.814 184.331 189.175 192.677 199.751C198.533 206.511 209.322 206.213 218.275 206.374C228.789 206.302 240.483 206.076 245.578 197.678C252.801 187.142 245.32 158.962 233.18 154.436L232.695 154.307Z" fill="#F3F5FF"/>
<mask id="mask8_30_111" style="mask-type:luminance" maskUnits="userSpaceOnUse" x="188" y="153" width="61" height="54">
<path d="M232.695 154.307C225.99 152.92 217.183 153.379 210.041 153.581C201.792 153.992 198.549 156.203 195.007 162.939C189.248 173.814 184.331 189.175 192.677 199.751C198.533 206.511 209.322 206.213 218.275 206.374C228.789 206.302 240.483 206.076 245.578 197.678C252.801 187.142 245.32 158.962 233.18 154.436L232.695 154.307Z" fill="white"/>
</mask>
<g mask="url(#mask8_30_111)">
<path d="M219.852 204.575C217.87 206.544 215.509 209.004 216.293 211.683C217.102 214.442 220.62 215.192 223.499 215.297C231.207 215.587 238.955 214.781 246.436 212.901C250.148 211.973 254.054 210.602 256.278 207.496C258.6 204.261 258.535 199.953 258.349 195.975C258.074 190.062 257.742 184.116 256.303 178.372C254.863 172.628 252.227 167.062 247.94 162.972C244.843 160.019 240.006 157.171 235.558 157.26C230.503 157.357 233.253 162.947 233.552 166.279C234.337 175.145 232.606 184.221 228.675 192.208C226.427 196.774 223.467 200.985 219.852 204.575Z" fill="#E6ECF4"/>
</g>
<path d="M232.695 154.307C225.99 152.92 217.183 153.379 210.041 153.581C201.792 153.992 198.549 156.203 195.007 162.939C189.248 173.814 184.331 189.175 192.677 199.751C198.533 206.511 209.322 206.213 218.275 206.374C228.789 206.302 240.483 206.076 245.578 197.678C252.801 187.142 245.32 158.962 233.18 154.436L232.695 154.307Z" stroke="#777777" stroke-width="1.64" stroke-miterlimit="10"/>
<path d="M207.201 218.656L186.278 207.75C185.388 207.286 184.289 207.628 183.825 208.514C183.36 209.401 183.706 210.496 184.596 210.96L205.52 221.867C206.41 222.331 207.509 221.989 207.973 221.102C208.438 220.216 208.092 219.121 207.201 218.656Z" fill="#00187F" stroke="#777777" stroke-width="1.51" stroke-miterlimit="10"/>
<path d="M211.408 64.0646C211.408 71.406 206.265 101.627 199.916 101.627C193.567 101.627 188.423 71.406 188.423 64.0646C188.423 56.7233 193.567 50.7695 199.916 50.7695C206.265 50.7695 211.408 56.7233 211.408 64.0646Z" fill="white"/>
<mask id="mask9_30_111" style="mask-type:luminance" maskUnits="userSpaceOnUse" x="188" y="50" width="24" height="52">
<path d="M211.408 64.0646C211.408 71.406 206.265 101.627 199.916 101.627C193.567 101.627 188.423 71.406 188.423 64.0646C188.423 56.7233 193.567 50.7695 199.916 50.7695C206.265 50.7695 211.408 56.7233 211.408 64.0646Z" fill="white"/>
</mask>
<g mask="url(#mask9_30_111)">
<path d="M192.864 45.2354C197.174 45.55 200.814 48.906 202.561 52.8591C204.307 56.8121 204.469 61.2573 204.299 65.5653C203.927 74.8267 202.108 84.0235 198.937 92.7364C198.056 95.1646 197.053 97.601 196.915 100.183C196.778 102.764 197.7 105.572 199.892 106.943C202.14 108.355 205.205 107.879 207.413 106.403C209.621 104.926 211.125 102.619 212.379 100.279C218.024 89.7837 219.844 77.2953 217.426 65.6298C216.601 61.6284 215.258 57.6753 212.913 54.3354C210.567 50.9955 207.114 48.301 203.111 47.4378" fill="#E6ECF4"/>
</g>
<path d="M211.408 64.0646C211.408 71.406 206.265 101.627 199.916 101.627C193.567 101.627 188.423 71.406 188.423 64.0646C188.423 56.7233 193.567 50.7695 199.916 50.7695C206.265 50.7695 211.408 56.7233 211.408 64.0646Z" stroke="#777777" stroke-width="1.62" stroke-miterlimit="10"/>
<path d="M199.916 54.981C203.935 54.981 207.203 59.055 207.203 64.0729C207.203 67.0982 206.151 75.0043 204.453 82.5151C203.167 88.2026 201.954 91.8168 201 94.0757C200.595 95.0277 199.253 95.0277 198.848 94.0757C197.894 91.8088 196.681 88.2026 195.395 82.5151C193.696 75.0043 192.645 67.0902 192.645 64.0729C192.645 59.0631 195.912 54.981 199.924 54.981H199.916Z" fill="#00187F" stroke="#212121" stroke-width="0.74" stroke-miterlimit="10"/>
<path d="M194.208 43.5951C194.347 42.6293 193.674 41.734 192.706 41.5955C191.738 41.457 190.84 42.1277 190.701 43.0936L182.421 100.695C182.283 101.661 182.955 102.556 183.923 102.694C184.892 102.833 185.789 102.162 185.928 101.196L194.208 43.5951Z" fill="#101A4D"/>
<path d="M185.932 101.199L194.206 43.5976C194.27 43.1378 194.149 42.7021 193.907 42.3472C193.292 42.5569 192.815 43.0813 192.718 43.767L184.436 101.368C184.371 101.828 184.493 102.264 184.735 102.619C185.35 102.409 185.827 101.885 185.924 101.199H185.932Z" fill="#0567ED"/>
<path d="M197.805 88.1985L197.189 87.6758C194.943 85.7707 191.575 86.0423 189.665 88.2823L178.216 101.71C176.306 103.95 176.579 107.311 178.824 109.216L179.44 109.738C181.686 111.643 185.055 111.372 186.965 109.132L198.413 95.704C200.323 93.4639 200.051 90.1036 197.805 88.1985Z" fill="#0567ED"/>
<path d="M195.496 90.4066L195.49 90.4014C193.404 88.6319 190.275 88.8841 188.502 90.9647L176.56 104.97C174.787 107.051 175.039 110.172 177.125 111.941L177.131 111.946C179.217 113.716 182.346 113.464 184.12 111.383L196.061 97.3776C197.835 95.2971 197.582 92.176 195.496 90.4066Z" fill="#101A4D"/>
<path d="M188.664 103.132C192.533 98.8076 193.061 92.9784 189.842 90.1125C186.623 87.2465 180.876 88.429 177.007 92.7536C173.137 97.0782 172.61 102.907 175.829 105.773C179.048 108.639 184.794 107.457 188.664 103.132Z" fill="#0567ED" stroke="#777777" stroke-width="0.74" stroke-miterlimit="10"/>
<path d="M245.036 63.4759C245.036 71.1722 239.642 102.861 232.986 102.861C226.33 102.861 220.935 71.1722 220.935 63.4759C220.935 55.7796 226.33 49.5354 232.986 49.5354C239.642 49.5354 245.036 55.7715 245.036 63.4759Z" fill="white"/>
<mask id="mask10_30_111" style="mask-type:luminance" maskUnits="userSpaceOnUse" x="220" y="49" width="26" height="54">
<path d="M245.036 63.4759C245.036 71.1722 239.642 102.861 232.986 102.861C226.33 102.861 220.935 71.1722 220.935 63.4759C220.935 55.7796 226.33 49.5354 232.986 49.5354C239.642 49.5354 245.036 55.7715 245.036 63.4759Z" fill="white"/>
</mask>
<g mask="url(#mask10_30_111)">
<path d="M228.441 41C234.652 44.8562 238.429 51.8749 239.593 59.071C240.758 66.2752 239.569 73.665 237.58 80.6837C235.59 87.7023 232.816 94.479 230.713 101.465C230.236 103.047 229.864 104.95 230.972 106.177C232.331 107.677 234.822 106.992 236.553 105.951C242.578 102.337 246.436 95.8666 248.344 89.1222C250.253 82.3778 250.439 75.2785 250.601 68.2679C250.706 63.9115 250.803 59.4663 249.541 55.2874C248.288 51.1085 245.433 47.1716 241.3 45.7436C240.071 45.3161 238.615 45.1547 237.539 45.8889C236.464 46.623 236.245 48.5188 237.394 49.132" fill="#E6ECF4"/>
</g>
<path d="M245.036 63.4759C245.036 71.1722 239.642 102.861 232.986 102.861C226.33 102.861 220.935 71.1722 220.935 63.4759C220.935 55.7796 226.33 49.5354 232.986 49.5354C239.642 49.5354 245.036 55.7715 245.036 63.4759Z" stroke="#777777" stroke-width="1.62" stroke-miterlimit="10"/>
<path d="M232.986 53.9482C237.2 53.9482 240.621 58.224 240.621 63.4759C240.621 66.6464 239.521 74.9397 237.733 82.8135C236.383 88.7753 235.113 92.5589 234.11 94.9388C233.69 95.9392 232.274 95.9392 231.854 94.9388C230.851 92.567 229.581 88.7834 228.231 82.8135C226.451 74.9397 225.343 66.6383 225.343 63.4759C225.343 58.224 228.772 53.9482 232.978 53.9482H232.986Z" fill="#00187F" stroke="#212121" stroke-width="0.74" stroke-miterlimit="10"/>
<path d="M260.427 127.233C260.427 150.443 236.383 160.712 216.989 160.712C197.595 160.712 172.96 150.443 172.96 127.233C172.96 104.023 197.603 83.7734 216.989 83.7734C236.375 83.7734 260.427 104.015 260.427 127.233Z" fill="white"/>
<mask id="mask11_30_111" style="mask-type:luminance" maskUnits="userSpaceOnUse" x="172" y="83" width="89" height="78">
<path d="M260.427 127.233C260.427 150.443 236.383 160.712 216.989 160.712C197.595 160.712 172.96 150.443 172.96 127.233C172.96 104.023 197.603 83.7734 216.989 83.7734C236.375 83.7734 260.427 104.015 260.427 127.233Z" fill="white"/>
</mask>
<g mask="url(#mask11_30_111)">
<path d="M231.304 85.5725C241.785 90.3646 249.202 101.215 249.865 112.695C250.528 124.175 244.398 135.8 234.539 141.762C224.009 148.127 210.939 147.91 198.63 148.152C195.759 148.208 192.516 148.466 190.672 150.669C188.423 153.355 189.604 157.711 192.265 159.995C194.926 162.278 198.549 162.996 202.018 163.528C214.959 165.521 228.117 166.11 241.179 165.271C250.002 164.706 259.165 163.342 266.38 158.252C271.709 154.493 275.543 148.982 278.673 143.263C283.444 134.526 286.825 123.917 282.951 114.744C279.943 107.621 272.987 102.756 265.603 100.409C258.219 98.0609 250.35 97.8673 242.602 97.6978" fill="#E6ECF4"/>
</g>
<path d="M260.427 127.233C260.427 150.443 236.383 160.712 216.989 160.712C197.595 160.712 172.96 150.443 172.96 127.233C172.96 104.023 197.603 83.7734 216.989 83.7734C236.375 83.7734 260.427 104.015 260.427 127.233Z" stroke="#777777" stroke-width="1.62" stroke-miterlimit="10"/>
<path opacity="0.4" d="M199.916 140.439C205.588 140.439 210.187 135.852 210.187 130.193C210.187 124.535 205.588 119.948 199.916 119.948C194.243 119.948 189.645 124.535 189.645 130.193C189.645 135.852 194.243 140.439 199.916 140.439Z" fill="url(#paint1_radial_30_111)"/>
<path opacity="0.7" d="M197.675 129.395C198.109 129.395 198.46 129.044 198.46 128.612C198.46 128.18 198.109 127.83 197.675 127.83C197.242 127.83 196.891 128.18 196.891 128.612C196.891 129.044 197.242 129.395 197.675 129.395Z" fill="white"/>
<path d="M211.979 118.067C213.453 117.547 214.39 116.4 214.073 115.505C213.756 114.61 212.304 114.307 210.83 114.827C209.356 115.347 208.418 116.494 208.736 117.388C209.053 118.283 210.505 118.587 211.979 118.067Z" fill="url(#paint2_radial_30_111)"/>
<path d="M192.048 117.388C192.366 116.493 191.428 115.346 189.954 114.826C188.48 114.306 187.028 114.61 186.711 115.505C186.394 116.399 187.332 117.546 188.805 118.066C190.279 118.586 191.731 118.283 192.048 117.388Z" fill="url(#paint3_radial_30_111)"/>
<path d="M194.715 132.339C193.397 132.565 193.219 132.743 192.993 134.058C192.766 132.743 192.588 132.565 191.27 132.339C192.588 132.114 192.766 131.936 192.993 130.621C193.219 131.936 193.397 132.114 194.715 132.339Z" fill="white"/>
<path d="M239.173 134.502C240.629 133.049 240.92 130.903 240.079 129.153C240.556 129.379 241.001 129.669 241.397 130.056C243.241 131.896 243.241 134.881 241.397 136.72C239.553 138.559 236.561 138.559 234.717 136.72C234.32 136.325 234.029 135.881 233.811 135.405C235.566 136.236 237.725 135.946 239.173 134.502Z" fill="white"/>
<path d="M230.827 127.83C231.698 127.83 232.404 127.125 232.404 126.256C232.404 125.388 231.698 124.683 230.827 124.683C229.956 124.683 229.25 125.388 229.25 126.256C229.25 127.125 229.956 127.83 230.827 127.83Z" fill="white"/>
<path opacity="0.7" d="M233.188 129.395C233.621 129.395 233.973 129.044 233.973 128.612C233.973 128.18 233.621 127.83 233.188 127.83C232.755 127.83 232.404 128.18 232.404 128.612C232.404 129.044 232.755 129.395 233.188 129.395Z" fill="white"/>
<path d="M204.065 130.427C204.065 128.072 201.363 128.314 198.452 128.314C196.988 128.314 195.71 129.306 195.759 130.548C195.815 131.952 196.834 133.138 198.274 133.662C198.913 133.896 199.35 134.405 199.471 134.985L199.908 137.139L200.344 134.985C200.466 134.388 200.935 133.888 201.582 133.646C203.038 133.098 204.057 131.863 204.057 130.427H204.065Z" fill="url(#paint4_radial_30_111)"/>
<path opacity="0.9" d="M201.428 131.178C201.928 131.178 202.334 130.773 202.334 130.274C202.334 129.775 201.928 129.371 201.428 129.371C200.928 129.371 200.522 129.775 200.522 130.274C200.522 130.773 200.928 131.178 201.428 131.178Z" fill="white"/>
<path d="M246.484 103.716C231.312 84.1285 204.971 81.5954 186.321 97.9238C185.625 98.5289 184.565 98.416 184.032 97.6657L182.875 96.0603C182.406 95.4149 182.511 94.5194 183.11 93.9869C203.895 75.4319 233.544 78.2877 250.391 100.465C250.876 101.102 250.803 101.998 250.221 102.546L248.781 103.902C248.11 104.531 247.042 104.442 246.484 103.716Z" fill="#101A4D"/>
<path d="M248.781 103.902C249.38 103.337 249.436 102.417 248.919 101.78C232.299 81.4903 204.51 78.812 184.307 95.5599C183.676 96.0843 183.555 97.004 184.032 97.6655C184.565 98.4158 185.633 98.5287 186.321 97.9237C204.971 81.5952 231.312 84.1365 246.484 103.716C247.05 104.442 248.11 104.531 248.781 103.902Z" fill="#0567ED" stroke="#2D2D2D" stroke-width="1.62" stroke-miterlimit="10"/>
<path d="M251.701 114.039C245.325 116.378 238.237 113.115 235.889 106.748L234.608 103.272C232.263 96.9118 235.533 89.8414 241.917 87.4998C247.223 85.5536 253.11 88.268 255.061 93.5606L257.777 100.928C259.728 106.221 257.007 112.092 251.701 114.039Z" fill="#0567ED" stroke="#777777" stroke-width="1.62" stroke-miterlimit="10"/>
<path d="M238.706 106.011C240.855 111.84 247.334 114.828 253.178 112.684C259.022 110.54 262.018 104.077 259.869 98.2478L257.867 92.8189C255.718 86.9895 249.239 84.0016 243.395 86.1453C237.551 88.2889 234.556 94.7523 236.705 100.582L238.706 106.011Z" fill="#00187F" stroke="#777777" stroke-width="0.74" stroke-miterlimit="10"/>
<path d="M251.321 108.105C257.132 108.105 261.843 103.406 261.843 97.609C261.843 91.8124 257.132 87.1133 251.321 87.1133C245.509 87.1133 240.799 91.8124 240.799 97.609C240.799 103.406 245.509 108.105 251.321 108.105Z" fill="#0567ED" stroke="#777777" stroke-width="0.74" stroke-miterlimit="10"/>
<path d="M256.044 94.5354C253.925 95.2292 253.674 95.5681 253.634 97.7947C252.938 95.681 252.598 95.4309 250.366 95.3906C252.485 94.6968 252.736 94.358 252.776 92.1313C253.472 94.245 253.812 94.4951 256.044 94.5354Z" fill="white"/>
<g opacity="0.53">
<path d="M251.175 98.9C250.326 99.1743 250.229 99.3114 250.213 100.199C249.938 99.3517 249.8 99.2549 248.91 99.2388C249.76 98.9645 249.857 98.8274 249.873 97.9399C250.148 98.787 250.285 98.8838 251.175 98.9Z" fill="white"/>
</g>
<path d="M188.229 134.38C190.989 134.38 193.227 130.899 193.227 126.603C193.227 122.308 190.989 118.826 188.229 118.826C185.469 118.826 183.231 122.308 183.231 126.603C183.231 130.899 185.469 134.38 188.229 134.38Z" fill="#101A4D"/>
<path d="M189.232 126.603C189.786 126.603 190.235 125.733 190.235 124.659C190.235 123.585 189.786 122.715 189.232 122.715C188.678 122.715 188.229 123.585 188.229 124.659C188.229 125.733 188.678 126.603 189.232 126.603Z" fill="url(#paint5_linear_30_111)"/>
<path d="M214.223 134.38C216.983 134.38 219.221 130.899 219.221 126.603C219.221 122.308 216.983 118.826 214.223 118.826C211.462 118.826 209.225 122.308 209.225 126.603C209.225 130.899 211.462 134.38 214.223 134.38Z" fill="#101A4D"/>
<path d="M213.22 126.603C213.774 126.603 214.223 125.733 214.223 124.659C214.223 123.585 213.774 122.715 213.22 122.715C212.666 122.715 212.217 123.585 212.217 124.659C212.217 125.733 212.666 126.603 213.22 126.603Z" fill="url(#paint6_linear_30_111)"/>
<path d="M235.493 120.158C234.555 119.262 233.002 118.73 231.328 118.73H231.158L202.86 122.465H196.899L168.665 118.73H168.495C166.821 118.73 165.268 119.262 164.33 120.158C163.392 121.053 163.206 122.191 163.829 123.191L168.908 131.388C169.676 132.63 171.512 133.429 173.574 133.429H193.065C195.128 133.429 196.964 132.63 197.732 131.388L198.395 130.315C198.775 129.693 199.657 129.653 199.916 129.653C200.174 129.653 201.056 129.701 201.436 130.323L202.099 131.396C202.868 132.638 204.704 133.437 206.766 133.437H226.257C228.319 133.437 230.155 132.638 230.924 131.396L236.003 123.199C236.625 122.199 236.439 121.061 235.501 120.166L235.493 120.158ZM234.425 122.788L229.346 130.984C228.837 131.799 227.616 132.339 226.257 132.339H206.766C205.407 132.339 204.178 131.807 203.676 130.984L203.013 129.911C201.897 128.104 197.942 128.104 196.826 129.911L196.163 130.984C195.653 131.799 194.432 132.339 193.074 132.339H173.582C172.224 132.339 170.994 131.807 170.493 130.984L165.414 122.788C164.532 121.368 166.15 119.827 168.503 119.827L196.77 123.562H203.07L231.336 119.827C233.698 119.827 235.307 121.368 234.425 122.788Z" fill="#2D46AD" stroke="#282828" stroke-width="0.55" stroke-miterlimit="10"/>
<path opacity="0.45" d="M231.336 119.827L203.07 123.562H196.769L168.503 119.827C166.142 119.827 164.532 121.368 165.414 122.788L170.493 130.984C171.002 131.799 172.224 132.339 173.582 132.339H193.073C194.432 132.339 195.661 131.807 196.163 130.984L196.826 129.911C197.942 128.104 201.897 128.104 203.013 129.911L203.676 130.984C204.186 131.799 205.407 132.339 206.766 132.339H226.257C227.616 132.339 228.845 131.807 229.346 130.984L234.425 122.788C235.307 121.368 233.689 119.827 231.336 119.827Z" fill="url(#paint7_radial_30_111)" stroke="#282828" stroke-width="0.55" stroke-miterlimit="10"/>
<path d="M184.177 150.378H246.719C248.215 150.378 249.428 151.588 249.428 153.081V154.363H181.452V153.097C181.452 151.596 182.673 150.378 184.177 150.378Z" fill="#F3F5FF" stroke="#777777" stroke-width="1.62" stroke-miterlimit="10"/>
<path d="M245.619 158.809L215.589 162.35L183.643 158.615C182.398 158.47 181.46 157.413 181.46 156.163V154.372H249.436V154.533C249.436 156.711 247.802 158.551 245.627 158.809H245.619Z" fill="#00187F" stroke="#777777" stroke-width="1.62" stroke-miterlimit="10"/>
<path d="M223.604 164.779H221.906V182.632H223.604V164.779Z" fill="#00187F" stroke="#777777" stroke-width="1.17" stroke-miterlimit="10"/>
<path d="M196.422 164.779H194.723V182.632H196.422V164.779Z" fill="#00187F" stroke="#777777" stroke-width="1.17" stroke-miterlimit="10"/>
<path d="M246.856 176.275H235.428L228.991 182.624H220.992C220.992 182.624 220.992 182.624 220.984 182.624L216.9 178.646C216.479 178.235 215.962 178.017 215.42 178.017H202.738C202.326 178.017 201.93 178.187 201.614 178.501L197.376 182.632C197.376 182.632 197.376 182.632 197.368 182.632H189.337C188.82 182.632 188.35 183.076 188.302 183.689C188.253 184.374 188.706 184.947 189.264 184.947H197.214C197.764 184.947 198.298 184.721 198.719 184.31L202.787 180.341C202.787 180.341 202.787 180.341 202.795 180.341H215.557C215.557 180.341 215.557 180.341 215.565 180.341L219.682 184.358C220.078 184.745 220.563 184.947 221.073 184.947H229.088C229.217 184.947 229.338 184.915 229.452 184.858C229.508 184.858 229.557 184.875 229.613 184.875C229.913 184.875 230.22 184.762 230.455 184.528L236.407 178.655H246.856C247.511 178.655 248.045 178.122 248.045 177.469C248.045 176.815 247.511 176.283 246.856 176.283V176.275Z" fill="#00187F" stroke="#777777" stroke-width="1.17" stroke-miterlimit="10"/>
<path d="M209.184 184.939C212.677 184.939 215.509 182.114 215.509 178.63C215.509 175.146 212.677 172.322 209.184 172.322C205.691 172.322 202.86 175.146 202.86 178.63C202.86 182.114 205.691 184.939 209.184 184.939Z" fill="#00187F" stroke="#777777" stroke-width="0.99" stroke-miterlimit="10"/>
<path d="M209.184 182.688C211.431 182.688 213.252 180.871 213.252 178.63C213.252 176.389 211.431 174.572 209.184 174.572C206.937 174.572 205.116 176.389 205.116 178.63C205.116 180.871 206.937 182.688 209.184 182.688Z" fill="#FFFF64"/>
<path d="M236.367 164.456C235.889 163.843 235.202 163.609 234.539 163.238C233.714 162.778 232.897 162.302 231.999 161.987L227.656 159.753L215.727 150.031C214.134 148.732 212.039 148.224 210.033 148.644L207.235 149.225C205.302 148.781 203.329 148.143 201.363 147.901C198.589 147.563 195.548 148.692 193.284 150.644C192.491 151.266 191.804 151.992 191.27 152.806C190.914 153.347 190.631 153.936 190.413 154.557C190.17 155.162 190 155.791 189.919 156.437C189.79 157.397 189.839 158.397 190.033 159.381C190.477 162.334 192.046 165.174 194.368 166.715C196.017 167.812 197.926 168.611 199.681 169.53L201.282 171.612C202.617 173.354 204.679 174.395 206.871 174.451L222.043 174.831C223.523 175.177 224.995 175.532 226.475 175.879" fill="#F3F5FF"/>
<mask id="mask12_30_111" style="mask-type:luminance" maskUnits="userSpaceOnUse" x="189" y="147" width="48" height="29">
<path d="M236.367 164.456C235.889 163.843 235.202 163.609 234.539 163.238C233.714 162.778 232.897 162.302 231.999 161.987L227.656 159.753L215.727 150.031C214.134 148.732 212.039 148.224 210.033 148.644L207.235 149.225C205.302 148.781 203.329 148.143 201.363 147.901C198.589 147.563 195.548 148.692 193.284 150.644C192.491 151.266 191.804 151.992 191.27 152.806C190.914 153.347 190.631 153.936 190.413 154.557C190.17 155.162 190 155.791 189.919 156.437C189.79 157.397 189.839 158.397 190.033 159.381C190.477 162.334 192.046 165.174 194.368 166.715C196.017 167.812 197.926 168.611 199.681 169.53L201.282 171.612C202.617 173.354 204.679 174.395 206.871 174.451L222.043 174.831C223.523 175.177 224.995 175.532 226.475 175.879" fill="white"/>
</mask>
<g mask="url(#mask12_30_111)">
<path d="M203.911 165.521C205.561 166.053 207.251 166.441 208.933 166.828C218.444 169.022 227.964 171.216 237.475 173.411C235.639 176.509 233.609 179.776 230.341 181.301C227.6 182.575 224.429 182.406 221.421 182.14C214.991 181.583 208.521 180.728 202.463 178.501C196.406 176.275 190.744 172.564 187.129 167.223C185.285 164.496 183.401 160.567 183.49 157.179C183.555 154.646 185.342 151.726 187.93 153.468C190.518 155.211 192.257 158.76 194.812 160.721C197.546 162.81 200.619 164.456 203.903 165.513L203.911 165.521Z" fill="#E6ECF4"/>
</g>
<path d="M236.367 164.456C235.889 163.843 235.202 163.609 234.539 163.238C233.714 162.778 232.897 162.302 231.999 161.987L227.656 159.753L215.727 150.031C214.134 148.732 212.039 148.224 210.033 148.644L207.235 149.225C205.302 148.781 203.329 148.143 201.363 147.901C198.589 147.563 195.548 148.692 193.284 150.644C192.491 151.266 191.804 151.992 191.27 152.806C190.914 153.347 190.631 153.936 190.413 154.557C190.17 155.162 190 155.791 189.919 156.437C189.79 157.397 189.839 158.397 190.033 159.381C190.477 162.334 192.046 165.174 194.368 166.715C196.017 167.812 197.926 168.611 199.681 169.53L201.282 171.612C202.617 173.354 204.679 174.395 206.871 174.451L222.043 174.831C223.523 175.177 224.995 175.532 226.475 175.879" stroke="#777777" stroke-width="1.62" stroke-miterlimit="10" stroke-linecap="round"/>
<path d="M203.593 148.961L196.75 167.364C196.366 168.396 196.894 169.543 197.928 169.926L197.936 169.928C198.97 170.311 200.12 169.785 200.503 168.753L207.346 150.35C207.73 149.318 207.202 148.172 206.168 147.789L206.16 147.786C205.126 147.403 203.976 147.93 203.593 148.961Z" fill="#00187F"/>
<path d="M216.182 170.405L216.087 174.421C216.076 174.889 216.445 175.277 216.912 175.288C217.378 175.299 217.766 174.929 217.777 174.461L217.872 170.445C217.883 169.977 217.514 169.589 217.047 169.578C216.581 169.567 216.194 169.937 216.182 170.405Z" fill="#00187F"/>
<path d="M213.788 170.354L213.693 174.371C213.681 174.839 214.051 175.227 214.517 175.238C214.984 175.249 215.371 174.879 215.382 174.411L215.478 170.395C215.489 169.927 215.12 169.539 214.653 169.528C214.187 169.517 213.799 169.887 213.788 170.354Z" fill="#00187F"/>
<path d="M211.402 170.296L211.307 174.313C211.295 174.78 211.665 175.168 212.131 175.179C212.598 175.19 212.985 174.82 212.996 174.353L213.092 170.336C213.103 169.868 212.734 169.48 212.267 169.469C211.801 169.458 211.413 169.828 211.402 170.296Z" fill="#00187F"/>
<path d="M285.547 205.035C285.547 203.645 284.419 202.518 283.028 202.518C281.637 202.518 280.509 203.645 280.509 205.035V219.814C280.509 221.204 281.637 222.331 283.028 222.331C284.419 222.331 285.547 221.204 285.547 219.814V205.035Z" fill="#5944D3" stroke="#777777" stroke-width="1.1" stroke-miterlimit="10"/>
<path d="M296.902 205.035C296.902 203.645 295.774 202.518 294.383 202.518C292.992 202.518 291.864 203.645 291.864 205.035V219.814C291.864 221.204 292.992 222.331 294.383 222.331C295.774 222.331 296.902 221.204 296.902 219.814V205.035Z" fill="#5944D3" stroke="#777777" stroke-width="1.1" stroke-miterlimit="10"/>
<path d="M308.257 205.035C308.257 203.645 307.129 202.518 305.738 202.518C304.347 202.518 303.219 203.645 303.219 205.035V219.814C303.219 221.204 304.347 222.331 305.738 222.331C307.129 222.331 308.257 221.204 308.257 219.814V205.035Z" fill="#5944D3" stroke="#777777" stroke-width="1.1" stroke-miterlimit="10"/>
<path d="M192.912 151.572C190.518 150.531 189.24 148.111 190.081 146.191C190.922 144.271 193.559 143.545 195.961 144.586L201.986 148.506" fill="#F3F5FF"/>
<path d="M192.912 151.572C190.518 150.531 189.24 148.111 190.081 146.191C190.922 144.271 193.559 143.545 195.961 144.586L201.986 148.506" stroke="#777777" stroke-width="1.46" stroke-miterlimit="10" stroke-linecap="round"/>
</g>
<path d="M20.99 14.9738C14.05 12.8538 7.1 10.7238 0 8.56375C1.74 7.26375 3.26 6.39375 5.53 6.64375C12.48 7.41375 19.47 7.84375 26.44 8.44375C27.3 8.51375 27.91 8.30375 28.56 7.72375C31.42 5.16375 34.38 2.71375 37.66 0.683753C38.71 0.0337526 39.72 -0.426247 40.79 0.613753C41.87 1.66375 41.45 2.67375 40.79 3.73375C38.87 6.83375 36.62 9.67375 34.16 12.3438C33.17 13.4138 32.9 14.4638 33.03 15.8638C33.66 22.5638 34.11 29.2838 34.83 35.9838C35.06 38.1538 34.23 39.6938 32.88 41.4038C31.72 37.6338 30.61 33.9938 29.5 30.3638C28.58 27.3538 27.64 24.3438 26.75 21.3238C26.52 20.5338 26.38 20.1938 25.59 20.9238C21.68 24.5238 17.64 27.9638 13.35 31.1138C12.77 31.5338 12.78 32.0338 12.8 32.6238C12.87 34.4138 12.94 36.1938 12.97 37.9838C12.97 38.5038 12.93 39.0438 12.77 39.5338C12.6 40.0238 12.2 40.5238 11.69 40.5738C11.2 40.6238 10.87 40.1038 10.73 39.6638C9.25 35.1638 6.27 32.1938 1.77 30.7038C1.32 30.5538 0.64 30.2038 0.89 29.6238C1.15 29.0438 1.66 28.4938 2.47 28.5138C4.63 28.5538 6.78 28.5738 8.94 28.6038C9.45 28.6038 9.91 28.6638 10.31 28.1138C13.57 23.6538 17.19 19.4838 20.89 15.3838C20.95 15.3138 20.94 15.1938 20.99 14.9738Z" fill="#BCD8FF" fill-opacity="0.5"/>
</g>
<defs>
<radialGradient id="paint0_radial_30_111" cx="0" cy="0" r="1" gradientUnits="userSpaceOnUse" gradientTransform="translate(285.547 184.955) scale(0.695529 0.693799)">
<stop stop-color="#000059"/>
<stop offset="0.79" stop-color="#000964"/>
</radialGradient>
<radialGradient id="paint1_radial_30_111" cx="0" cy="0" r="1" gradientUnits="userSpaceOnUse" gradientTransform="translate(199.916 130.193) scale(10.2713 10.2456)">
<stop stop-color="#4464BC" stop-opacity="0.5"/>
<stop offset="0.25" stop-color="#4A69BE" stop-opacity="0.48"/>
<stop offset="0.45" stop-color="#5D79C5" stop-opacity="0.43"/>
<stop offset="0.63" stop-color="#7E94D0" stop-opacity="0.34"/>
<stop offset="0.79" stop-color="#ACBAE1" stop-opacity="0.22"/>
<stop offset="0.95" stop-color="#E7EBF6" stop-opacity="0.06"/>
<stop offset="1" stop-color="white" stop-opacity="0"/>
</radialGradient>
<radialGradient id="paint2_radial_30_111" cx="0" cy="0" r="1" gradientUnits="userSpaceOnUse" gradientTransform="translate(211.837 117.666) rotate(-19.435) scale(2.66009 1.85844)">
<stop stop-color="#000059"/>
<stop offset="0.79" stop-color="#000964"/>
</radialGradient>
<radialGradient id="paint3_radial_30_111" cx="0" cy="0" r="1" gradientUnits="userSpaceOnUse" gradientTransform="translate(189.992 114.72) rotate(-160.565) scale(2.66009 1.85844)">
<stop stop-color="#000059"/>
<stop offset="0.79" stop-color="#000964"/>
</radialGradient>
<radialGradient id="paint4_radial_30_111" cx="0" cy="0" r="1" gradientUnits="userSpaceOnUse" gradientTransform="translate(199.496 132.727) scale(4.6934 4.00144)">
<stop stop-color="#101A4D"/>
<stop offset="0.23" stop-color="#0D1642"/>
<stop offset="0.61" stop-color="#070C27"/>
<stop offset="1" stop-color="#000106"/>
</radialGradient>
<linearGradient id="paint5_linear_30_111" x1="189.248" y1="126.184" x2="189.208" y2="122.868" gradientUnits="userSpaceOnUse">
<stop stop-color="white"/>
<stop offset="0.47" stop-color="#FCFDFF"/>
<stop offset="0.68" stop-color="#F5F6FF"/>
<stop offset="0.85" stop-color="#E8EBFF"/>
<stop offset="0.98" stop-color="#D6DCFF"/>
<stop offset="1" stop-color="#D4DAFF"/>
</linearGradient>
<linearGradient id="paint6_linear_30_111" x1="213.204" y1="126.184" x2="213.244" y2="122.868" gradientUnits="userSpaceOnUse">
<stop stop-color="white"/>
<stop offset="0.47" stop-color="#FCFDFF"/>
<stop offset="0.68" stop-color="#F5F6FF"/>
<stop offset="0.85" stop-color="#E8EBFF"/>
<stop offset="0.98" stop-color="#D6DCFF"/>
<stop offset="1" stop-color="#D4DAFF"/>
</linearGradient>
<radialGradient id="paint7_radial_30_111" cx="0" cy="0" r="1" gradientUnits="userSpaceOnUse" gradientTransform="translate(199.916 125.97) scale(25.5083 16.539)">
<stop stop-color="#E4E8FF"/>
<stop offset="0.43" stop-color="#E6EAFF"/>
<stop offset="0.74" stop-color="#F0F2FF"/>
<stop offset="1" stop-color="white"/>
</radialGradient>
<clipPath id="clip0_30_111">
<rect width="317" height="242.25" fill="white"/>
</clipPath>
<clipPath id="clip1_30_111">
<rect width="161" height="201.25" fill="white" transform="translate(156 41)"/>
</clipPath>
</defs>
</svg>
