<svg width="55" height="68" viewBox="0 0 55 68" fill="none" xmlns="http://www.w3.org/2000/svg">
<mask id="path-1-outside-1_620_793" maskUnits="userSpaceOnUse" x="9.64941" y="0.0351562" width="36" height="37" fill="black">
<rect fill="white" x="9.64941" y="0.0351562" width="36" height="37"/>
<path fill-rule="evenodd" clip-rule="evenodd" d="M41.4111 17.919C42.519 17.919 43.4303 17.0173 43.2907 15.9182C42.8496 12.4434 41.2681 9.19067 38.7649 6.68744C35.7861 3.70863 31.746 2.03516 27.5333 2.03516C23.3206 2.03516 19.2805 3.70863 16.3017 6.68744C13.7985 9.19067 12.217 12.4434 11.7759 15.9182C11.6363 17.0173 12.5476 17.919 13.6555 17.919V17.919C14.7635 17.919 15.6444 17.0145 15.8307 15.9224C16.2415 13.5147 17.3888 11.2746 19.1388 9.52454C21.3652 7.29818 24.3848 6.04743 27.5333 6.04743C30.6819 6.04743 33.7014 7.29818 35.9278 9.52454C37.6778 11.2746 38.8251 13.5147 39.2359 15.9224C39.4222 17.0145 40.3031 17.919 41.4111 17.919V17.919ZM39.4045 19.9256C39.4045 18.8175 40.3027 17.9192 41.4108 17.9192V17.9192C42.5189 17.9192 43.4172 18.8175 43.4172 19.9256V32.6327C43.4172 33.7408 42.5189 34.6391 41.4108 34.6391V34.6391C40.3027 34.6391 39.4045 33.7408 39.4045 32.6327V19.9256ZM15.6622 19.9256C15.6622 18.8175 14.7639 17.9192 13.6558 17.9192V17.9192C12.5477 17.9192 11.6494 18.8175 11.6494 19.9256V32.6327C11.6494 33.7408 12.5477 34.6391 13.6558 34.6391V34.6391C14.7639 34.6391 15.6622 33.7408 15.6622 32.6327V19.9256Z"/>
</mask>
<path fill-rule="evenodd" clip-rule="evenodd" d="M41.4111 17.919C42.519 17.919 43.4303 17.0173 43.2907 15.9182C42.8496 12.4434 41.2681 9.19067 38.7649 6.68744C35.7861 3.70863 31.746 2.03516 27.5333 2.03516C23.3206 2.03516 19.2805 3.70863 16.3017 6.68744C13.7985 9.19067 12.217 12.4434 11.7759 15.9182C11.6363 17.0173 12.5476 17.919 13.6555 17.919V17.919C14.7635 17.919 15.6444 17.0145 15.8307 15.9224C16.2415 13.5147 17.3888 11.2746 19.1388 9.52454C21.3652 7.29818 24.3848 6.04743 27.5333 6.04743C30.6819 6.04743 33.7014 7.29818 35.9278 9.52454C37.6778 11.2746 38.8251 13.5147 39.2359 15.9224C39.4222 17.0145 40.3031 17.919 41.4111 17.919V17.919ZM39.4045 19.9256C39.4045 18.8175 40.3027 17.9192 41.4108 17.9192V17.9192C42.5189 17.9192 43.4172 18.8175 43.4172 19.9256V32.6327C43.4172 33.7408 42.5189 34.6391 41.4108 34.6391V34.6391C40.3027 34.6391 39.4045 33.7408 39.4045 32.6327V19.9256ZM15.6622 19.9256C15.6622 18.8175 14.7639 17.9192 13.6558 17.9192V17.9192C12.5477 17.9192 11.6494 18.8175 11.6494 19.9256V32.6327C11.6494 33.7408 12.5477 34.6391 13.6558 34.6391V34.6391C14.7639 34.6391 15.6622 33.7408 15.6622 32.6327V19.9256Z" fill="#0567ED"/>
<path d="M38.7649 6.68744L39.8685 5.58386L39.8685 5.58386L38.7649 6.68744ZM16.3017 6.68744L15.1981 5.58386L15.1981 5.58386L16.3017 6.68744ZM19.1388 9.52454L20.2424 10.6281L19.1388 9.52454ZM35.9278 9.52454L34.8242 10.6281L34.8242 10.6281L35.9278 9.52454ZM39.2359 15.9224L37.6974 16.1849L39.2359 15.9224ZM43.2907 15.9182L41.7425 16.1147L43.2907 15.9182ZM37.6613 7.79102C39.9186 10.0483 41.3446 12.9814 41.7425 16.1147L44.839 15.7216C44.3545 11.9054 42.6177 8.33309 39.8685 5.58386L37.6613 7.79102ZM27.5333 3.59585C31.3321 3.59585 34.9752 5.1049 37.6613 7.79102L39.8685 5.58386C36.597 2.31237 32.1599 0.474463 27.5333 0.474463V3.59585ZM17.4053 7.79102C20.0914 5.1049 23.7346 3.59585 27.5333 3.59585V0.474463C22.9067 0.474463 18.4696 2.31237 15.1981 5.58386L17.4053 7.79102ZM13.3241 16.1147C13.722 12.9814 15.148 10.0482 17.4053 7.79102L15.1981 5.58386C12.4489 8.33309 10.7121 11.9054 10.2276 15.7216L13.3241 16.1147ZM18.0352 8.42097C16.0551 10.4011 14.7571 12.9358 14.2923 15.6599L17.3692 16.1849C17.726 14.0937 18.7225 12.148 20.2424 10.6281L18.0352 8.42097ZM27.5333 4.48673C23.9708 4.48673 20.5543 5.90192 18.0352 8.42097L20.2424 10.6281C22.1761 8.69445 24.7987 7.60812 27.5333 7.60812V4.48673ZM37.0314 8.42097C34.5123 5.90192 31.0958 4.48673 27.5333 4.48673V7.60812C30.2679 7.60812 32.8906 8.69445 34.8242 10.6281L37.0314 8.42097ZM40.7743 15.6599C40.3095 12.9358 39.0115 10.4011 37.0314 8.42097L34.8242 10.6281C36.3441 12.148 37.3406 14.0937 37.6974 16.1849L40.7743 15.6599ZM44.9779 32.6327V19.9256H41.8565V32.6327H44.9779ZM37.8438 19.9256V32.6327H40.9652V19.9256H37.8438ZM13.2101 32.6327V19.9256H10.0887V32.6327H13.2101ZM14.1015 19.9256V32.6327H17.2229V19.9256H14.1015ZM13.6558 36.1998C15.6258 36.1998 17.2229 34.6027 17.2229 32.6327H14.1015C14.1015 32.8788 13.902 33.0784 13.6558 33.0784V36.1998ZM13.6558 16.3585C11.6858 16.3585 10.0887 17.9555 10.0887 19.9256H13.2101C13.2101 19.6794 13.4096 19.4799 13.6558 19.4799V16.3585ZM41.4108 33.0784C41.1647 33.0784 40.9652 32.8788 40.9652 32.6327H37.8438C37.8438 34.6027 39.4408 36.1998 41.4108 36.1998V33.0784ZM41.4108 16.3585C39.4408 16.3585 37.8438 17.9555 37.8438 19.9256H40.9652C40.9652 19.6794 41.1647 19.4799 41.4108 19.4799V16.3585ZM41.4108 19.4799C41.657 19.4799 41.8565 19.6794 41.8565 19.9256H44.9779C44.9779 17.9555 43.3809 16.3585 41.4108 16.3585V19.4799ZM10.0887 32.6327C10.0887 34.6027 11.6858 36.1998 13.6558 36.1998V33.0784C13.4097 33.0784 13.2101 32.8788 13.2101 32.6327H10.0887ZM13.6555 19.4797C15.6778 19.4797 17.0826 17.8645 17.3692 16.1849L14.2923 15.6599C14.2545 15.8816 14.146 16.0733 14.0142 16.1984C13.8894 16.3169 13.7665 16.3583 13.6555 16.3583L13.6555 19.4797ZM37.6974 16.1849C37.984 17.8645 39.3888 19.4797 41.4111 19.4797V16.3584C41.3001 16.3584 41.1772 16.3169 41.0524 16.1984C40.9206 16.0733 40.8121 15.8816 40.7743 15.6599L37.6974 16.1849ZM13.6558 19.4799C13.9019 19.4799 14.1015 19.6794 14.1015 19.9256H17.2229C17.2229 17.9555 15.6258 16.3585 13.6558 16.3585V19.4799ZM10.2276 15.7216C9.95277 17.8865 11.7472 19.4797 13.6555 19.4797L13.6555 16.3583C13.5256 16.3583 13.4272 16.3055 13.3729 16.2491C13.3471 16.2223 13.3348 16.1985 13.3291 16.182C13.3242 16.168 13.3199 16.1481 13.3241 16.1147L10.2276 15.7216ZM41.8565 32.6327C41.8565 32.8788 41.657 33.0784 41.4108 33.0784V36.1998C43.3809 36.1998 44.9779 34.6027 44.9779 32.6327H41.8565ZM41.7425 16.1147C41.7467 16.1481 41.7424 16.168 41.7375 16.182C41.7318 16.1985 41.7195 16.2223 41.6937 16.2491C41.6394 16.3055 41.541 16.3584 41.4111 16.3584V19.4797C43.3194 19.4797 45.1138 17.8865 44.839 15.7216L41.7425 16.1147Z" fill="#0567ED" mask="url(#path-1-outside-1_620_793)"/>
<g filter="url(#filter0_b_620_793)">
<path d="M0.5 33.2491C0.5 27.2154 5.39122 22.3242 11.4249 22.3242H43.5751C49.6088 22.3242 54.5 27.2154 54.5 33.2491V56.6595C54.5 62.6931 49.6088 67.5843 43.5751 67.5843H11.4249C5.39122 67.5843 0.5 62.6931 0.5 56.6595V33.2491Z" fill="url(#paint0_linear_620_793)" fill-opacity="0.3"/>
</g>
<g filter="url(#filter1_b_620_793)">
<path fill-rule="evenodd" clip-rule="evenodd" d="M43.5751 22.4803H11.4249C5.47742 22.4803 0.656069 27.3016 0.656069 33.2491V56.6595C0.656069 62.6069 5.47742 67.4283 11.4249 67.4283H43.5751C49.5226 67.4283 54.3439 62.6069 54.3439 56.6595V33.2491C54.3439 27.3016 49.5226 22.4803 43.5751 22.4803ZM11.4249 22.3242C5.39122 22.3242 0.5 27.2154 0.5 33.2491V56.6595C0.5 62.6931 5.39122 67.5843 11.4249 67.5843H43.5751C49.6088 67.5843 54.5 62.6931 54.5 56.6595V33.2491C54.5 27.2154 49.6088 22.3242 43.5751 22.3242H11.4249Z" fill="url(#paint1_linear_620_793)"/>
<path fill-rule="evenodd" clip-rule="evenodd" d="M43.5751 22.4803H11.4249C5.47742 22.4803 0.656069 27.3016 0.656069 33.2491V56.6595C0.656069 62.6069 5.47742 67.4283 11.4249 67.4283H43.5751C49.5226 67.4283 54.3439 62.6069 54.3439 56.6595V33.2491C54.3439 27.3016 49.5226 22.4803 43.5751 22.4803ZM11.4249 22.3242C5.39122 22.3242 0.5 27.2154 0.5 33.2491V56.6595C0.5 62.6931 5.39122 67.5843 11.4249 67.5843H43.5751C49.6088 67.5843 54.5 62.6931 54.5 56.6595V33.2491C54.5 27.2154 49.6088 22.3242 43.5751 22.3242H11.4249Z" fill="url(#paint2_radial_620_793)"/>
</g>
<circle cx="27.6557" cy="45.1098" r="4.68208" fill="white"/>
<defs>
<filter id="filter0_b_620_793" x="-8.86416" y="12.9601" width="72.7283" height="63.9881" filterUnits="userSpaceOnUse" color-interpolation-filters="sRGB">
<feFlood flood-opacity="0" result="BackgroundImageFix"/>
<feGaussianBlur in="BackgroundImageFix" stdDeviation="4.68208"/>
<feComposite in2="SourceAlpha" operator="in" result="effect1_backgroundBlur_620_793"/>
<feBlend mode="normal" in="SourceGraphic" in2="effect1_backgroundBlur_620_793" result="shape"/>
</filter>
<filter id="filter1_b_620_793" x="-8.86416" y="12.9601" width="72.7283" height="63.9881" filterUnits="userSpaceOnUse" color-interpolation-filters="sRGB">
<feFlood flood-opacity="0" result="BackgroundImageFix"/>
<feGaussianBlur in="BackgroundImageFix" stdDeviation="4.68208"/>
<feComposite in2="SourceAlpha" operator="in" result="effect1_backgroundBlur_620_793"/>
<feBlend mode="normal" in="SourceGraphic" in2="effect1_backgroundBlur_620_793" result="shape"/>
</filter>
<linearGradient id="paint0_linear_620_793" x1="6.2786" y1="26.5" x2="59.7746" y2="59.5485" gradientUnits="userSpaceOnUse">
<stop stop-color="#5A81FF" stop-opacity="0.9"/>
<stop offset="0.447036" stop-color="#567DFF" stop-opacity="0.955296"/>
<stop offset="1" stop-color="#4E78FF" stop-opacity="0.9"/>
</linearGradient>
<linearGradient id="paint1_linear_620_793" x1="8.27122" y1="20.7078" x2="53.9673" y2="52.5401" gradientUnits="userSpaceOnUse">
<stop offset="0.188941" stop-color="#E7F0FF" stop-opacity="0.523483"/>
<stop offset="0.526042" stop-color="#88A4FF"/>
<stop offset="1" stop-color="#B4D2FF" stop-opacity="0.1"/>
</linearGradient>
<radialGradient id="paint2_radial_620_793" cx="0" cy="0" r="1" gradientUnits="userSpaceOnUse" gradientTransform="translate(8.57011 66.1026) rotate(-45.963) scale(38.412 64.1642)">
<stop stop-color="white"/>
<stop offset="1" stop-color="white" stop-opacity="0"/>
</radialGradient>
</defs>
</svg>
