<svg width="59" height="65" viewBox="0 0 59 65" fill="none" xmlns="http://www.w3.org/2000/svg">
<path d="M38.9785 45.4355C38.9785 56.1992 30.2529 64.9248 19.4892 64.9248C8.72563 64.9248 0 56.1992 0 45.4355C0 34.6719 8.72563 25.9463 19.4892 25.9463C30.2529 25.9463 38.9785 34.6719 38.9785 45.4355Z" fill="#0567ED"/>
<g filter="url(#filter0_b_620_760)">
<path d="M22.6097 7.43235C25.6552 5.67431 29.9556 4.78215 34.4556 4.96237C38.9456 5.14218 43.4098 6.38134 46.7797 8.63667C47.6834 9.24148 48.906 8.9987 49.5104 8.09442C50.1149 7.19013 49.8722 5.96678 48.9685 5.36197C44.8656 2.61609 39.6544 1.22781 34.613 1.0259C29.5815 0.824401 24.4943 1.79625 20.6423 4.01988C19.7006 4.56351 19.3776 5.76811 19.9209 6.71044C20.4642 7.65277 21.668 7.97598 22.6097 7.43235ZM36.337 8.60461C35.2604 8.45334 34.265 9.20406 34.1139 10.2814C33.9627 11.3587 34.7129 12.3547 35.7896 12.506C43.2574 13.5552 47.6926 17.7977 50.3625 22.1519C53.0641 26.5579 53.9074 31.0179 54.0866 32.1633C54.2548 33.2381 55.2619 33.973 56.336 33.8047C57.4101 33.6364 58.1445 32.6287 57.9763 31.5539C57.76 30.1713 56.8077 25.1301 53.7183 20.0916C50.5972 15.0015 45.2461 9.85634 36.337 8.60461ZM27.3103 22.3977C22.5077 26.2677 19.671 34.6418 24.882 45.4452C25.3546 46.425 24.9439 47.6026 23.9648 48.0754C22.9857 48.5483 21.8088 48.1374 21.3363 47.1577C15.5003 35.0586 18.3269 24.5784 24.8409 19.3293C28.0637 16.7323 32.1406 15.4879 36.2714 16.0804C40.4193 16.6755 44.4365 19.094 47.5985 23.4786C48.2347 24.3607 48.0358 25.592 47.1541 26.2286C46.2725 26.8652 45.0421 26.6661 44.4059 25.7839C41.7846 22.1492 38.6677 20.4041 35.7127 19.9802C32.7406 19.5538 29.7458 20.4351 27.3103 22.3977ZM33.4102 48.0606C30.1649 41.3848 29.2242 35.8056 29.8379 32.1654C30.1415 30.3648 30.7971 29.1801 31.5802 28.4858C32.3277 27.823 33.3819 27.4353 34.8943 27.5788C36.9307 27.772 37.8331 28.4262 38.3815 29.1561C39.0398 30.0322 39.4097 31.29 39.8327 33.1897C39.8844 33.4217 39.9361 33.6602 39.9892 33.9047C40.7611 37.4626 41.8026 42.2626 46.6794 45.9773C47.5445 46.6363 48.7796 46.4687 49.4381 45.6031C50.0966 44.7375 49.9292 43.5016 49.0641 42.8426C45.3691 40.0281 44.6024 36.5431 43.8093 32.9382L43.8087 32.9353C43.7646 32.7351 43.7203 32.5338 43.6756 32.333C43.2717 30.5192 42.7684 28.4389 41.5284 26.7886C40.1784 24.9919 38.1571 23.9311 35.266 23.6568C32.8331 23.426 30.6499 24.047 28.9692 25.5371C27.3241 26.9957 26.3606 29.1082 25.9557 31.5101C25.1524 36.2748 26.4369 42.7222 29.8697 49.7839C30.3453 50.7622 31.5234 51.1695 32.5011 50.6936C33.4787 50.2177 33.8858 49.0389 33.4102 48.0606ZM17.833 8.82076C18.5674 9.62299 18.5127 10.869 17.711 11.6038C15.3066 13.8076 13.8114 16.2527 13.3484 17.0698C12.8123 18.0162 11.6109 18.3485 10.6651 17.812C9.71929 17.2755 9.3872 16.0734 9.92336 15.127C10.4885 14.1293 12.2221 11.2922 15.0517 8.69869C15.8535 7.96388 17.0987 8.01853 17.833 8.82076ZM50.4667 31.8191C50.2654 30.75 49.2361 30.0467 48.1677 30.2481C47.0993 30.4495 46.3964 31.4795 46.5977 32.5486C47.3321 36.4488 49.1341 39.7085 52.419 41.7389C53.344 42.3106 54.557 42.0238 55.1283 41.0982C55.6997 40.1727 55.413 38.9589 54.4881 38.3872C52.3822 37.0855 51.0543 34.9395 50.4667 31.8191ZM34.2838 31.8569C35.3672 31.766 36.3191 32.5711 36.41 33.6551C37.0036 40.7351 40.5343 45.2078 41.501 46.3084C42.2187 47.1255 42.1385 48.3702 41.3219 49.0883C40.5052 49.8065 39.2614 49.7262 38.5437 48.9091C37.2779 47.4679 33.1776 42.2256 32.4867 33.9845C32.3958 32.9004 33.2004 31.9478 34.2838 31.8569ZM28.9701 13.1211C29.9675 12.6882 30.4254 11.5282 29.9928 10.5301C29.5602 9.53208 28.4009 9.0739 27.4035 9.50678C18.3941 13.4168 14.2675 20.0761 12.4845 26.072C10.7227 31.9967 11.2402 37.2697 11.4272 38.6855C11.5696 39.764 12.5588 40.5228 13.6367 40.3803C14.7145 40.2378 15.4728 39.2479 15.3304 38.1694C15.1778 37.014 14.7204 32.3666 16.2581 27.1955C17.7746 22.0957 21.2217 16.4838 28.9701 13.1211Z" fill="url(#paint0_linear_620_760)" fill-opacity="0.3"/>
</g>
<g filter="url(#filter1_b_620_760)">
<path fill-rule="evenodd" clip-rule="evenodd" d="M20.6032 3.95219C24.4712 1.71934 29.574 0.745916 34.616 0.94784C39.6683 1.15018 44.8943 2.54141 49.0117 5.29702C49.9512 5.92577 50.2034 7.19752 49.5751 8.13757C48.9468 9.07764 47.6757 9.33006 46.7362 8.70129C43.3808 6.45567 38.9314 5.21947 34.4523 5.04009C29.9629 4.8603 25.6781 5.75087 22.6486 7.4997C21.6695 8.06487 20.418 7.72883 19.8532 6.74921C19.2884 5.76962 19.6242 4.51735 20.6032 3.95219ZM34.6097 1.10363C29.5888 0.902548 24.5172 1.87282 20.6812 4.08722C19.7767 4.60932 19.4665 5.76627 19.9883 6.67134C20.51 7.57637 21.6662 7.88675 22.5706 7.36467C25.632 5.5974 29.948 4.70366 34.4585 4.8843C38.9595 5.06456 43.4385 6.30668 46.8229 8.57172C47.6908 9.15255 48.865 8.91941 49.4455 8.05093C50.026 7.18241 49.7929 6.00745 48.925 5.42659C44.8366 2.69042 39.6402 1.30509 34.6097 1.10363ZM17.7754 8.87322C17.0701 8.10277 15.8742 8.05028 15.1043 8.75599C12.283 11.3418 10.5542 14.1712 9.99103 15.1652C9.47608 16.0742 9.79505 17.2288 10.7034 17.744C11.6117 18.2593 12.7655 17.9402 13.2804 17.0312C13.7454 16.2105 15.2454 13.7576 17.6582 11.5462C18.4282 10.8404 18.4806 9.64371 17.7754 8.87322ZM14.9989 8.64105C15.8324 7.87713 17.1269 7.93395 17.8904 8.76795C18.6538 9.60192 18.597 10.8972 17.7635 11.6611C15.3675 13.8571 13.877 16.2945 13.4161 17.1081C12.8587 18.0919 11.6098 18.4374 10.6265 17.8797C9.64321 17.3219 9.29802 16.0722 9.85538 15.0884C10.4226 14.0872 12.1608 11.2423 14.9989 8.64105ZM34.0365 10.2704C34.1937 9.15046 35.2284 8.36998 36.3477 8.52724C45.2854 9.78299 50.6546 14.946 53.7846 20.0507C56.8817 25.1017 57.8361 30.1544 58.0532 31.5417C58.228 32.659 57.4646 33.7066 56.3479 33.8816C55.2312 34.0565 54.1843 33.2925 54.0095 32.1752C53.8309 31.0344 52.9898 26.586 50.2959 22.1925C47.635 17.8529 43.2179 13.6282 35.7786 12.583C34.6593 12.4257 33.8794 11.3903 34.0365 10.2704ZM36.326 8.68164C35.2921 8.53637 34.3361 9.25732 34.1909 10.2921C34.0457 11.3268 34.7663 12.2833 35.8003 12.4286C43.2966 13.4818 47.75 17.7422 50.4288 22.111C53.1381 26.5295 53.9835 31.001 54.1635 32.1511C54.325 33.1834 55.2923 33.8892 56.3238 33.7275C57.3553 33.5659 58.0607 32.5981 57.8992 31.5658C57.6836 30.1879 56.7334 25.1582 53.6517 20.1322C50.5395 15.0566 45.2065 9.92935 36.326 8.68164ZM27.3723 9.4351C28.4093 8.98506 29.6145 9.46142 30.0642 10.499C30.5139 11.5365 30.0379 12.7424 29.001 13.1924C21.2775 16.5443 17.8439 22.1355 16.3327 27.2176C14.7994 32.3738 15.2556 37.0088 15.4075 38.159C15.5556 39.2802 14.7673 40.3092 13.6467 40.4574C12.5262 40.6056 11.4978 39.8167 11.3498 38.6955C11.1621 37.2746 10.6434 31.9892 12.4096 26.0496C14.1978 20.036 18.338 13.3559 27.3723 9.4351ZM29.9211 10.561C29.5056 9.6024 28.3923 9.16241 27.4344 9.57812C18.45 13.4773 14.3368 20.1158 12.5591 26.094C10.8017 32.0038 11.3181 37.2644 11.5043 38.6751C11.6411 39.711 12.5912 40.4397 13.6263 40.3028C14.6614 40.166 15.3897 39.2153 15.2529 38.1795C15.0997 37.0189 14.6411 32.3591 16.1832 27.1731C17.705 22.0555 21.1656 16.423 28.9389 13.0494C29.8968 12.6337 30.3366 11.5196 29.9211 10.561ZM36.2602 16.1574C32.1524 15.5682 28.0969 16.8054 24.8897 19.3898C18.4096 24.6116 15.5827 35.05 21.4063 47.1236C21.8602 48.0646 22.9904 48.4592 23.9307 48.0051C24.8711 47.5509 25.2655 46.4199 24.8116 45.4789C19.5882 34.6498 22.4249 26.234 27.2612 22.3368C29.7124 20.3617 32.7286 19.4732 35.7236 19.9029C38.7023 20.3302 41.837 22.0886 44.4689 25.7381C45.08 26.5854 46.2617 26.7766 47.1083 26.1652C47.9551 25.5538 48.1462 24.3713 47.5351 23.524C44.3838 19.1543 40.3844 16.7491 36.2602 16.1574ZM24.7919 19.2684C28.0302 16.6589 32.1286 15.4072 36.2823 16.0031C40.4539 16.6015 44.4889 19.0334 47.6616 23.4328C48.3229 24.3499 48.1161 25.6298 47.1996 26.2916C46.2831 26.9534 45.0039 26.7465 44.3425 25.8293C41.732 22.2095 38.6329 20.4777 35.7015 20.0572C32.7523 19.6341 29.779 20.5082 27.3591 22.4582C22.5902 26.301 19.7535 34.6336 24.952 45.4112C25.4433 46.4297 25.0165 47.6539 23.9985 48.1455C22.9806 48.6371 21.7572 48.2099 21.2659 47.1914C15.4176 35.0668 18.2438 24.5449 24.7919 19.2684ZM28.9173 25.4786C30.6165 23.9721 32.8221 23.3464 35.2732 23.579C38.1812 23.8549 40.2247 24.9237 41.5905 26.7416C42.8421 28.4072 43.348 30.5036 43.7515 32.3158C43.796 32.5153 43.8399 32.7152 43.8837 32.914L43.8846 32.9183L43.8846 32.9184L43.8853 32.9212L43.8853 32.9213C44.6786 36.527 45.4411 39.9849 49.1112 42.7804C50.0105 43.4655 50.1846 44.7503 49.5 45.6501C48.8154 46.55 47.5313 46.7242 46.632 46.0392C41.7323 42.307 40.6856 37.4829 39.9136 33.9247L39.9128 33.921C39.8598 33.6766 39.8081 33.4382 39.7565 33.2065C39.333 31.3048 38.9658 30.0635 38.319 29.2027C37.7864 28.4938 36.9061 27.8478 34.8868 27.6562C33.3927 27.5145 32.3608 27.8975 31.6317 28.5439C30.8656 29.2232 30.2162 30.3895 29.9146 32.1782C29.3047 35.7962 30.2386 41.3581 33.4802 48.0263C33.9745 49.0433 33.5514 50.2688 32.535 50.7635C31.5186 51.2582 30.2939 50.8348 29.7995 49.8178C26.3629 42.7485 25.0716 36.2839 25.8786 31.4969C26.2856 29.0832 27.2551 26.9524 28.9173 25.4786ZM35.2584 23.7342C32.8438 23.5051 30.6829 24.1215 29.0207 25.5953C27.3927 27.0387 26.4353 29.1328 26.0324 31.5229C25.2329 36.2654 26.5106 42.6956 29.9397 49.7496C30.3965 50.6892 31.5279 51.0803 32.4668 50.6233C33.4057 50.1663 33.7967 49.0341 33.3399 48.0945C30.0909 41.411 29.1434 35.8147 29.7609 32.1523C30.0665 30.3397 30.7282 29.1367 31.5283 28.4273C32.2942 27.7482 33.3708 27.3558 34.9015 27.501C36.955 27.6958 37.8794 28.3582 38.4437 29.1091C39.1136 30.0006 39.4861 31.2749 39.9087 33.1726C39.9604 33.4048 40.0122 33.6436 40.0652 33.888C40.837 37.4453 41.8742 42.2191 46.7265 45.9151C47.5573 46.548 48.7435 46.3871 49.3759 45.5557C50.0084 44.7244 49.8475 43.5373 49.0167 42.9045C45.299 40.0726 44.5268 36.5631 43.7344 32.9611L43.733 32.9548L43.733 32.9548L43.7324 32.952L43.7324 32.9519C43.6883 32.7517 43.6441 32.5505 43.5993 32.3497C43.1951 30.5344 42.6945 28.4703 41.4659 26.8352C40.1318 25.0597 38.1327 24.0069 35.2584 23.7342ZM48.1531 30.1713C49.2639 29.9619 50.3339 30.6932 50.5432 31.8045C51.1278 34.9094 52.4463 37.0335 54.5289 38.3207C55.4905 38.915 55.7885 40.1769 55.1945 41.139C54.6005 42.1012 53.3395 42.3994 52.3779 41.805C49.0695 39.7602 47.2582 36.4784 46.5209 32.5628C46.3117 31.4515 47.0424 30.3807 48.1531 30.1713ZM50.39 31.8334C50.1966 30.8066 49.2081 30.1311 48.182 30.3245C47.1559 30.518 46.4808 31.5071 46.6741 32.534C47.4056 36.4189 49.1983 39.6565 52.4598 41.6724C53.3481 42.2215 54.5131 41.946 55.0618 41.0571C55.6106 40.1682 55.3353 39.0024 54.4469 38.4533C52.3178 37.1373 50.9804 34.9692 50.39 31.8334ZM36.3322 33.6615C36.2449 32.6203 35.3306 31.8471 34.2901 31.9344C33.2497 32.0218 32.4769 32.9366 32.5642 33.9778C33.2532 42.196 37.3422 47.423 38.6021 48.8575C39.2914 49.6423 40.4859 49.7193 41.2702 49.0296C42.0545 48.3399 42.1316 47.1445 41.4423 46.3597C40.4697 45.2523 36.9277 40.7644 36.3322 33.6615ZM34.2771 31.779C35.4034 31.6845 36.393 32.5215 36.4875 33.6485C37.0792 40.7055 40.5987 45.1629 41.5594 46.2568C42.3055 47.1063 42.2221 48.4001 41.3732 49.1467C40.5242 49.8933 39.2311 49.8099 38.4849 48.9603C37.2133 47.5124 33.1017 42.2549 32.4088 33.9908C32.3144 32.8639 33.1507 31.8736 34.2771 31.779Z" fill="url(#paint1_linear_620_760)"/>
<path fill-rule="evenodd" clip-rule="evenodd" d="M20.6032 3.95219C24.4712 1.71934 29.574 0.745916 34.616 0.94784C39.6683 1.15018 44.8943 2.54141 49.0117 5.29702C49.9512 5.92577 50.2034 7.19752 49.5751 8.13757C48.9468 9.07764 47.6757 9.33006 46.7362 8.70129C43.3808 6.45567 38.9314 5.21947 34.4523 5.04009C29.9629 4.8603 25.6781 5.75087 22.6486 7.4997C21.6695 8.06487 20.418 7.72883 19.8532 6.74921C19.2884 5.76962 19.6242 4.51735 20.6032 3.95219ZM34.6097 1.10363C29.5888 0.902548 24.5172 1.87282 20.6812 4.08722C19.7767 4.60932 19.4665 5.76627 19.9883 6.67134C20.51 7.57637 21.6662 7.88675 22.5706 7.36467C25.632 5.5974 29.948 4.70366 34.4585 4.8843C38.9595 5.06456 43.4385 6.30668 46.8229 8.57172C47.6908 9.15255 48.865 8.91941 49.4455 8.05093C50.026 7.18241 49.7929 6.00745 48.925 5.42659C44.8366 2.69042 39.6402 1.30509 34.6097 1.10363ZM17.7754 8.87322C17.0701 8.10277 15.8742 8.05028 15.1043 8.75599C12.283 11.3418 10.5542 14.1712 9.99103 15.1652C9.47608 16.0742 9.79505 17.2288 10.7034 17.744C11.6117 18.2593 12.7655 17.9402 13.2804 17.0312C13.7454 16.2105 15.2454 13.7576 17.6582 11.5462C18.4282 10.8404 18.4806 9.64371 17.7754 8.87322ZM14.9989 8.64105C15.8324 7.87713 17.1269 7.93395 17.8904 8.76795C18.6538 9.60192 18.597 10.8972 17.7635 11.6611C15.3675 13.8571 13.877 16.2945 13.4161 17.1081C12.8587 18.0919 11.6098 18.4374 10.6265 17.8797C9.64321 17.3219 9.29802 16.0722 9.85538 15.0884C10.4226 14.0872 12.1608 11.2423 14.9989 8.64105ZM34.0365 10.2704C34.1937 9.15046 35.2284 8.36998 36.3477 8.52724C45.2854 9.78299 50.6546 14.946 53.7846 20.0507C56.8817 25.1017 57.8361 30.1544 58.0532 31.5417C58.228 32.659 57.4646 33.7066 56.3479 33.8816C55.2312 34.0565 54.1843 33.2925 54.0095 32.1752C53.8309 31.0344 52.9898 26.586 50.2959 22.1925C47.635 17.8529 43.2179 13.6282 35.7786 12.583C34.6593 12.4257 33.8794 11.3903 34.0365 10.2704ZM36.326 8.68164C35.2921 8.53637 34.3361 9.25732 34.1909 10.2921C34.0457 11.3268 34.7663 12.2833 35.8003 12.4286C43.2966 13.4818 47.75 17.7422 50.4288 22.111C53.1381 26.5295 53.9835 31.001 54.1635 32.1511C54.325 33.1834 55.2923 33.8892 56.3238 33.7275C57.3553 33.5659 58.0607 32.5981 57.8992 31.5658C57.6836 30.1879 56.7334 25.1582 53.6517 20.1322C50.5395 15.0566 45.2065 9.92935 36.326 8.68164ZM27.3723 9.4351C28.4093 8.98506 29.6145 9.46142 30.0642 10.499C30.5139 11.5365 30.0379 12.7424 29.001 13.1924C21.2775 16.5443 17.8439 22.1355 16.3327 27.2176C14.7994 32.3738 15.2556 37.0088 15.4075 38.159C15.5556 39.2802 14.7673 40.3092 13.6467 40.4574C12.5262 40.6056 11.4978 39.8167 11.3498 38.6955C11.1621 37.2746 10.6434 31.9892 12.4096 26.0496C14.1978 20.036 18.338 13.3559 27.3723 9.4351ZM29.9211 10.561C29.5056 9.6024 28.3923 9.16241 27.4344 9.57812C18.45 13.4773 14.3368 20.1158 12.5591 26.094C10.8017 32.0038 11.3181 37.2644 11.5043 38.6751C11.6411 39.711 12.5912 40.4397 13.6263 40.3028C14.6614 40.166 15.3897 39.2153 15.2529 38.1795C15.0997 37.0189 14.6411 32.3591 16.1832 27.1731C17.705 22.0555 21.1656 16.423 28.9389 13.0494C29.8968 12.6337 30.3366 11.5196 29.9211 10.561ZM36.2602 16.1574C32.1524 15.5682 28.0969 16.8054 24.8897 19.3898C18.4096 24.6116 15.5827 35.05 21.4063 47.1236C21.8602 48.0646 22.9904 48.4592 23.9307 48.0051C24.8711 47.5509 25.2655 46.4199 24.8116 45.4789C19.5882 34.6498 22.4249 26.234 27.2612 22.3368C29.7124 20.3617 32.7286 19.4732 35.7236 19.9029C38.7023 20.3302 41.837 22.0886 44.4689 25.7381C45.08 26.5854 46.2617 26.7766 47.1083 26.1652C47.9551 25.5538 48.1462 24.3713 47.5351 23.524C44.3838 19.1543 40.3844 16.7491 36.2602 16.1574ZM24.7919 19.2684C28.0302 16.6589 32.1286 15.4072 36.2823 16.0031C40.4539 16.6015 44.4889 19.0334 47.6616 23.4328C48.3229 24.3499 48.1161 25.6298 47.1996 26.2916C46.2831 26.9534 45.0039 26.7465 44.3425 25.8293C41.732 22.2095 38.6329 20.4777 35.7015 20.0572C32.7523 19.6341 29.779 20.5082 27.3591 22.4582C22.5902 26.301 19.7535 34.6336 24.952 45.4112C25.4433 46.4297 25.0165 47.6539 23.9985 48.1455C22.9806 48.6371 21.7572 48.2099 21.2659 47.1914C15.4176 35.0668 18.2438 24.5449 24.7919 19.2684ZM28.9173 25.4786C30.6165 23.9721 32.8221 23.3464 35.2732 23.579C38.1812 23.8549 40.2247 24.9237 41.5905 26.7416C42.8421 28.4072 43.348 30.5036 43.7515 32.3158C43.796 32.5153 43.8399 32.7152 43.8837 32.914L43.8846 32.9183L43.8846 32.9184L43.8853 32.9212L43.8853 32.9213C44.6786 36.527 45.4411 39.9849 49.1112 42.7804C50.0105 43.4655 50.1846 44.7503 49.5 45.6501C48.8154 46.55 47.5313 46.7242 46.632 46.0392C41.7323 42.307 40.6856 37.4829 39.9136 33.9247L39.9128 33.921C39.8598 33.6766 39.8081 33.4382 39.7565 33.2065C39.333 31.3048 38.9658 30.0635 38.319 29.2027C37.7864 28.4938 36.9061 27.8478 34.8868 27.6562C33.3927 27.5145 32.3608 27.8975 31.6317 28.5439C30.8656 29.2232 30.2162 30.3895 29.9146 32.1782C29.3047 35.7962 30.2386 41.3581 33.4802 48.0263C33.9745 49.0433 33.5514 50.2688 32.535 50.7635C31.5186 51.2582 30.2939 50.8348 29.7995 49.8178C26.3629 42.7485 25.0716 36.2839 25.8786 31.4969C26.2856 29.0832 27.2551 26.9524 28.9173 25.4786ZM35.2584 23.7342C32.8438 23.5051 30.6829 24.1215 29.0207 25.5953C27.3927 27.0387 26.4353 29.1328 26.0324 31.5229C25.2329 36.2654 26.5106 42.6956 29.9397 49.7496C30.3965 50.6892 31.5279 51.0803 32.4668 50.6233C33.4057 50.1663 33.7967 49.0341 33.3399 48.0945C30.0909 41.411 29.1434 35.8147 29.7609 32.1523C30.0665 30.3397 30.7282 29.1367 31.5283 28.4273C32.2942 27.7482 33.3708 27.3558 34.9015 27.501C36.955 27.6958 37.8794 28.3582 38.4437 29.1091C39.1136 30.0006 39.4861 31.2749 39.9087 33.1726C39.9604 33.4048 40.0122 33.6436 40.0652 33.888C40.837 37.4453 41.8742 42.2191 46.7265 45.9151C47.5573 46.548 48.7435 46.3871 49.3759 45.5557C50.0084 44.7244 49.8475 43.5373 49.0167 42.9045C45.299 40.0726 44.5268 36.5631 43.7344 32.9611L43.733 32.9548L43.733 32.9548L43.7324 32.952L43.7324 32.9519C43.6883 32.7517 43.6441 32.5505 43.5993 32.3497C43.1951 30.5344 42.6945 28.4703 41.4659 26.8352C40.1318 25.0597 38.1327 24.0069 35.2584 23.7342ZM48.1531 30.1713C49.2639 29.9619 50.3339 30.6932 50.5432 31.8045C51.1278 34.9094 52.4463 37.0335 54.5289 38.3207C55.4905 38.915 55.7885 40.1769 55.1945 41.139C54.6005 42.1012 53.3395 42.3994 52.3779 41.805C49.0695 39.7602 47.2582 36.4784 46.5209 32.5628C46.3117 31.4515 47.0424 30.3807 48.1531 30.1713ZM50.39 31.8334C50.1966 30.8066 49.2081 30.1311 48.182 30.3245C47.1559 30.518 46.4808 31.5071 46.6741 32.534C47.4056 36.4189 49.1983 39.6565 52.4598 41.6724C53.3481 42.2215 54.5131 41.946 55.0618 41.0571C55.6106 40.1682 55.3353 39.0024 54.4469 38.4533C52.3178 37.1373 50.9804 34.9692 50.39 31.8334ZM36.3322 33.6615C36.2449 32.6203 35.3306 31.8471 34.2901 31.9344C33.2497 32.0218 32.4769 32.9366 32.5642 33.9778C33.2532 42.196 37.3422 47.423 38.6021 48.8575C39.2914 49.6423 40.4859 49.7193 41.2702 49.0296C42.0545 48.3399 42.1316 47.1445 41.4423 46.3597C40.4697 45.2523 36.9277 40.7644 36.3322 33.6615ZM34.2771 31.779C35.4034 31.6845 36.393 32.5215 36.4875 33.6485C37.0792 40.7055 40.5987 45.1629 41.5594 46.2568C42.3055 47.1063 42.2221 48.4001 41.3732 49.1467C40.5242 49.8933 39.2311 49.8099 38.4849 48.9603C37.2133 47.5124 33.1017 42.2549 32.4088 33.9908C32.3144 32.8639 33.1507 31.8736 34.2771 31.779Z" fill="url(#paint2_radial_620_760)"/>
</g>
<defs>
<filter id="filter0_b_620_760" x="0.312154" y="-8.35484" width="67.0427" height="68.6023" filterUnits="userSpaceOnUse" color-interpolation-filters="sRGB">
<feFlood flood-opacity="0" result="BackgroundImageFix"/>
<feGaussianBlur in="BackgroundImageFix" stdDeviation="4.67742"/>
<feComposite in2="SourceAlpha" operator="in" result="effect1_backgroundBlur_620_760"/>
<feBlend mode="normal" in="SourceGraphic" in2="effect1_backgroundBlur_620_760" result="shape"/>
</filter>
<filter id="filter1_b_620_760" x="0.234029" y="-8.43296" width="67.1989" height="68.7585" filterUnits="userSpaceOnUse" color-interpolation-filters="sRGB">
<feFlood flood-opacity="0" result="BackgroundImageFix"/>
<feGaussianBlur in="BackgroundImageFix" stdDeviation="4.67742"/>
<feComposite in2="SourceAlpha" operator="in" result="effect1_backgroundBlur_620_760"/>
<feBlend mode="normal" in="SourceGraphic" in2="effect1_backgroundBlur_620_760" result="shape"/>
</filter>
<linearGradient id="paint0_linear_620_760" x1="14.8392" y1="5.60318" x2="67.6962" y2="32.1166" gradientUnits="userSpaceOnUse">
<stop stop-color="#5A81FF" stop-opacity="0.9"/>
<stop offset="0.447036" stop-color="#567DFF" stop-opacity="0.955296"/>
<stop offset="1" stop-color="#4E78FF" stop-opacity="0.9"/>
</linearGradient>
<linearGradient id="paint1_linear_620_760" x1="16.567" y1="-0.865568" x2="62.7375" y2="25.2519" gradientUnits="userSpaceOnUse">
<stop offset="0.188941" stop-color="#E7F0FF" stop-opacity="0.523483"/>
<stop offset="0.526042" stop-color="#88A4FF"/>
<stop offset="1" stop-color="#B4D2FF" stop-opacity="0.1"/>
</linearGradient>
<radialGradient id="paint2_radial_620_760" cx="0" cy="0" r="1" gradientUnits="userSpaceOnUse" gradientTransform="translate(16.8354 49.3318) rotate(-51.8612) scale(38.8237 63.0362)">
<stop stop-color="white"/>
<stop offset="1" stop-color="white" stop-opacity="0"/>
</radialGradient>
</defs>
</svg>
