<svg width="42" height="42" viewBox="0 0 42 42" fill="none" xmlns="http://www.w3.org/2000/svg">
<path d="M19.0997 7.5H37C37.8284 7.5 38.5 8.17157 38.5 9V33C38.5 33.8284 37.8284 34.5 37 34.5H19.0997C18.667 34.5 18.2553 34.3131 17.9705 33.9873L17.145 33.0432C16.3481 32.1318 14.9306 32.1318 14.1337 33.0432L13.3082 33.9873C13.0234 34.3131 12.6117 34.5 12.179 34.5H5C4.17157 34.5 3.5 33.8284 3.5 33V9C3.5 8.17157 4.17157 7.5 5 7.5H12.179C12.6117 7.5 13.0234 7.6869 13.3082 8.01268L14.4375 7.02536L13.3082 8.01268L14.1337 8.95679C14.9306 9.86823 16.3481 9.86823 17.145 8.95679L17.9705 8.01268C18.2553 7.6869 18.667 7.5 19.0997 7.5Z" fill="#F9F9F9" stroke="#F9F9F9" stroke-width="3"/>
<path d="M15.5 14V28" stroke="#1F64C3" stroke-width="3" stroke-linecap="round"/>
</svg>
