<svg width="24" height="24" viewBox="0 0 24 24" fill="none" xmlns="http://www.w3.org/2000/svg">
<path d="M12.5928 6.06332L15.244 2.31234C15.691 1.67875 16.6881 2.09078 16.5559 2.85652L15.7765 7.38296C15.691 7.87856 16.1225 8.31002 16.6181 8.2245L21.1449 7.44515C21.9088 7.31299 22.3228 8.31002 21.6891 8.75702L17.9359 11.406C17.5258 11.6956 17.5258 12.3059 17.9359 12.5955L21.6891 15.2445C22.3228 15.6915 21.9107 16.6885 21.1449 16.5563L16.6181 15.777C16.1225 15.6915 15.691 16.1229 15.7765 16.6185L16.5559 21.145C16.6881 21.9088 15.691 22.3227 15.244 21.6892L12.5948 17.9362C12.3052 17.5262 11.6948 17.5262 11.4052 17.9362L8.75603 21.6892C8.30899 22.3227 7.3119 21.9107 7.44406 21.145L8.22347 16.6185C8.30899 16.1229 7.8775 15.6915 7.38187 15.777L2.85509 16.5563C2.09123 16.6885 1.67723 15.6915 2.31086 15.2445L6.06407 12.5955C6.47418 12.3059 6.47418 11.6956 6.06407 11.406L2.31086 8.75508C1.67723 8.30807 2.08929 7.31105 2.85509 7.44321L7.38187 8.22256C7.8775 8.30807 8.30899 7.87661 8.22347 7.38102L7.44406 2.85458C7.3119 2.09078 8.30899 1.67681 8.75603 2.31039L11.4052 6.06332C11.6948 6.4734 12.3052 6.4734 12.5948 6.06332H12.5928Z" fill="#666E79"/>
</svg>
