<svg width="305" height="70" viewBox="0 0 305 70" fill="none" xmlns="http://www.w3.org/2000/svg">
<g clip-path="url(#clip0_59_291)">
<g clip-path="url(#clip1_59_291)">
<path d="M179.867 1.74229L168.841 34.459L157.545 1.74229L137.206 1.74229L161.24 69.8796H176.502L200.206 1.74229L179.867 1.74229Z" fill="#0562E2"/>
<path d="M229.227 1.74229V69.9698H207.657V1.74229L229.227 1.74229Z" fill="#0562E2"/>
<path d="M134.322 21.9617C132.699 9.76426 121.223 0.300744 107.193 0.0303574L106.712 0.0303574C104.699 0.0303574 102.807 0.210615 100.884 0.631216C99.9226 0.811473 98.9612 1.05182 98.0299 1.3222C97.4591 1.50246 96.8883 1.7428 96.3174 1.92306C96.017 2.01319 95.7466 2.10332 95.5664 2.19345C89.1672 4.65697 83.9998 9.28358 81.2359 15.0819C80.5749 16.3737 80.0943 17.8158 79.7037 19.2578C79.5234 19.6784 79.4033 20.099 79.4033 20.6098C79.223 21.5411 79.1028 22.4724 79.0127 23.5239C78.9226 23.9445 78.9226 24.4553 78.9226 24.8759L78.9226 69.9102H99.4419L99.4419 53.7171L105.42 53.7171V45.7857L99.4419 37.4038V24.245C99.4419 22.9531 100.043 21.8115 101.004 21.0003C101.244 20.79 101.485 20.6098 101.755 20.4595C101.905 20.3694 102.086 20.2793 102.266 20.2192C102.717 20.0389 103.167 19.8887 103.648 19.8286C103.918 19.7986 104.189 19.7686 104.459 19.7686C104.669 19.7686 104.88 19.7986 105.09 19.8286C107.584 20.099 109.536 21.9917 109.536 24.305L109.536 69.9703L134.472 69.9703V24.9359C134.472 23.9145 134.382 22.9831 134.292 22.0218L134.322 21.9617Z" fill="#0562E2"/>
<path d="M32.6266 54.1974C31.485 55.1588 31.2747 56.9313 32.176 58.1631L40.7082 69.9099H14.721L14.721 51.6137C14.721 40.1373 23.073 29.382 33.5579 28.721C33.8884 28.691 34.2489 28.691 34.5794 28.691H44.824C44.824 28.691 44.9743 28.6609 45.0644 28.6609H45.1245C47.6481 28.6609 49.6609 26.8884 49.6609 23.794C49.6609 20.6996 47.6481 18.897 45.1245 18.897C45.0644 18.897 45.0343 18.927 44.9743 18.927C44.9142 18.927 44.8841 18.897 44.824 18.897L16.794 18.897C8.44206 18.897 0 9.01288 0 0L51.8541 0C52.3348 0 52.9056 0.0600858 53.5064 0.150215C53.9571 0.180258 54.4077 0.270386 54.8584 0.390558C55.0987 0.420601 55.3391 0.480687 55.5794 0.540773C55.6695 0.540773 55.7597 0.570815 55.8498 0.600858C63.5708 2.58369 69.4893 9.91416 70.4807 18.9871C70.5408 19.6481 70.5708 20.309 70.5708 20.97C70.5708 23.5536 70.2704 26.0472 69.6695 28.4206C67.206 36.9528 60.1459 43.1717 51.7639 43.2618H51.0129L70.6309 70L47.3777 69.9099L36.3219 54.6781C35.4206 53.4464 33.7682 53.2361 32.6266 54.1974Z" fill="#0562E2"/>
<path d="M304.305 0.0300429L296.704 0.0300429L285.197 0L273.511 0.0300429C270.476 0.0300429 267.592 0.51073 264.948 1.4721C261.704 2.58369 258.729 4.44635 256.026 7C251.159 11.6266 249.747 17.1846 249.747 23.6137C249.747 28.9313 251.339 34.279 254.584 39.5966C256.596 42.9614 257.618 45.2446 257.888 46.206C258.699 49.2103 257.197 50.5021 256.897 51.073H237.159V69.9099H264.948C267.472 68.9785 269.815 67.6266 271.948 65.8541C272.399 65.5537 272.85 65.1631 273.27 64.7725C278.257 60.176 280.781 54.5579 280.781 47.9185C280.781 43.412 278.378 38.6953 275.403 33.8283L273.42 30.2833C272.129 28.2103 270.987 24.7253 270.987 23.3433C270.987 21.7811 271.287 19.7082 272.669 18.897H285.468C295.893 18.897 304.335 10.4549 304.335 0.0300429L304.305 0.0300429Z" fill="#0562E2"/>
</g>
</g>
<defs>
<clipPath id="clip0_59_291">
<rect width="304.3" height="70" fill="white"/>
</clipPath>
<clipPath id="clip1_59_291">
<rect width="304.305" height="70" fill="white"/>
</clipPath>
</defs>
</svg>
