<svg width="49" height="49" viewBox="0 0 49 49" fill="none" xmlns="http://www.w3.org/2000/svg">
<circle cx="24.5" cy="24.5" r="21.5" fill="white" stroke="#E9E9E9" stroke-width="2"/>
<g clip-path="url(#clip0_316_60)">
<path d="M24.6998 22.7727V26.4518H29.8125C29.588 27.635 28.9143 28.6368 27.9039 29.3105L30.987 31.7028C32.7834 30.0446 33.8198 27.6092 33.8198 24.716C33.8198 24.0424 33.7593 23.3946 33.647 22.7728L24.6998 22.7727Z" fill="#4285F4"/>
<path d="M19.3758 26.3082L18.6804 26.8405L16.219 28.7578C17.7822 31.8582 20.986 34 24.6996 34C27.2646 34 29.415 33.1537 30.9868 31.7028L27.9037 29.3105C27.0573 29.8805 25.9778 30.226 24.6996 30.226C22.2296 30.226 20.1311 28.5592 19.3797 26.3137L19.3758 26.3082Z" fill="#34A853"/>
<path d="M16.219 20.2423C15.5713 21.5204 15.2 22.9627 15.2 24.5C15.2 26.0372 15.5713 27.4795 16.219 28.7577C16.219 28.7662 19.3799 26.3049 19.3799 26.3049C19.1899 25.7349 19.0776 25.1304 19.0776 24.4999C19.0776 23.8693 19.1899 23.2648 19.3799 22.6948L16.219 20.2423Z" fill="#FBBC05"/>
<path d="M24.6998 18.7827C26.0989 18.7827 27.3426 19.2663 28.3357 20.1991L31.0562 17.4787C29.4066 15.9414 27.2649 15 24.6998 15C20.9862 15 17.7822 17.1332 16.219 20.2423L19.3799 22.695C20.1312 20.4495 22.2298 18.7827 24.6998 18.7827Z" fill="#EA4335"/>
</g>
<defs>
<clipPath id="clip0_316_60">
<rect width="19" height="19" fill="white" transform="translate(15.2 15)"/>
</clipPath>
</defs>
</svg>
