<svg width="42" height="42" viewBox="0 0 42 42" fill="none" xmlns="http://www.w3.org/2000/svg">
<path d="M38.0359 13.2803C39.0788 13.9234 39.0788 15.4396 38.0359 16.0827L22.3901 25.7303C21.6484 26.1876 20.7123 26.1875 19.9707 25.7302L4.32712 16.0826C3.28437 15.4395 3.28437 13.9234 4.32712 13.2804L19.9707 3.63279C20.7123 3.17544 21.6484 3.17542 22.3901 3.63272L38.0359 13.2803Z" fill="#666E79" stroke="#666E79" stroke-width="0.658459"/>
<path d="M4.71997 21.5952L19.599 30.9705C20.4525 31.5083 21.5382 31.5113 22.3947 30.9783L37.4715 21.5952" stroke="#666E79" stroke-width="3.29229" stroke-linecap="round"/>
<path d="M4.71997 28.2454L19.599 37.6206C20.4525 38.1585 21.5382 38.1615 22.3947 37.6284L37.4715 28.2454" stroke="#666E79" stroke-width="3.29229" stroke-linecap="round"/>
</svg>
