<svg width="24" height="24" viewBox="0 0 24 24" fill="none" xmlns="http://www.w3.org/2000/svg">
<path fill-rule="evenodd" clip-rule="evenodd" d="M20 10.2748C20 9.99065 19.8791 9.71989 19.6675 9.53021L12.6675 3.25538C12.2876 2.91487 11.7124 2.91487 11.3325 3.25538L4.33252 9.53021C4.12091 9.71989 4 9.99065 4 10.2748V20.4069C4 20.9592 4.44772 21.4069 5 21.4069H19C19.5523 21.4069 20 20.9592 20 20.4069V10.2748Z" fill="#666E79"/>
<path d="M12.6675 3.25538L12.1669 3.81384L12.6675 3.25538ZM12.1669 3.81384L19.1669 10.0887L20.1681 8.97174L13.1681 2.69691L12.1669 3.81384ZM4.83313 10.0887L11.8331 3.81384L10.8319 2.69691L3.8319 8.97174L4.83313 10.0887ZM4.75 20.4069V10.2748H3.25V20.4069H4.75ZM19 20.6569H5V22.1569H19V20.6569ZM19.25 10.2748V20.4069H20.75V10.2748H19.25ZM19 22.1569C19.9665 22.1569 20.75 21.3734 20.75 20.4069H19.25C19.25 20.545 19.1381 20.6569 19 20.6569V22.1569ZM3.25 20.4069C3.25 21.3734 4.0335 22.1569 5 22.1569V20.6569C4.86193 20.6569 4.75 20.545 4.75 20.4069H3.25ZM3.8319 8.97174C3.46159 9.30369 3.25 9.77751 3.25 10.2748H4.75C4.75 10.2038 4.78023 10.1361 4.83313 10.0887L3.8319 8.97174ZM19.1669 10.0887C19.2198 10.1361 19.25 10.2038 19.25 10.2748H20.75C20.75 9.77752 20.5384 9.30369 20.1681 8.97174L19.1669 10.0887ZM13.1681 2.69691C12.5034 2.10103 11.4966 2.10103 10.8319 2.69691L11.8331 3.81384C11.9281 3.72872 12.0719 3.72872 12.1669 3.81384L13.1681 2.69691Z" fill="#666E79"/>
<path d="M9 15.8286C9 14.724 9.89543 13.8286 11 13.8286H13C14.1046 13.8286 15 14.724 15 15.8286V21.4047H9V15.8286Z" fill="#EEEEEE" stroke="#666E79" stroke-width="1.5"/>
</svg>
