<svg width="18" height="21" viewBox="0 0 18 21" fill="none" xmlns="http://www.w3.org/2000/svg">
<path fill-rule="evenodd" clip-rule="evenodd" d="M16.6675 7.53021C16.8791 7.71989 17 7.99065 17 8.27483V18.4069C17 18.9592 16.5523 19.4069 16 19.4069H2C1.44772 19.4069 1 18.9592 1 18.4069V8.27483C1 7.99065 1.12091 7.71989 1.33252 7.53021L8.33252 1.25538C8.71237 0.914875 9.28763 0.914875 9.66748 1.25538L16.6675 7.53021ZM8 11.8281C6.89543 11.8281 6 12.7236 6 13.8281V19.4042H12V13.8281C12 12.7236 11.1046 11.8281 10 11.8281H8Z" fill="#666E79"/>
<path d="M16.6675 7.53021L17.1681 6.97174L17.1681 6.97174L16.6675 7.53021ZM1.33252 7.53021L1.83313 8.08867L1.83313 8.08867L1.33252 7.53021ZM8.33252 1.25538L8.83313 1.81384V1.81384L8.33252 1.25538ZM9.66748 1.25538L9.16687 1.81384V1.81384L9.66748 1.25538ZM6 19.4042H5.25V20.1542H6V19.4042ZM12 19.4042V20.1542H12.75V19.4042H12ZM17.75 8.27483C17.75 7.77751 17.5384 7.30369 17.1681 6.97174L16.1669 8.08867C16.2198 8.1361 16.25 8.20379 16.25 8.27483H17.75ZM17.75 18.4069V8.27483H16.25V18.4069H17.75ZM16 20.1569C16.9665 20.1569 17.75 19.3734 17.75 18.4069H16.25C16.25 18.545 16.1381 18.6569 16 18.6569V20.1569ZM2 20.1569H16V18.6569H2V20.1569ZM0.25 18.4069C0.25 19.3734 1.0335 20.1569 2 20.1569V18.6569C1.86193 18.6569 1.75 18.545 1.75 18.4069H0.25ZM0.25 8.27483V18.4069H1.75V8.27483H0.25ZM0.831903 6.97174C0.46159 7.30369 0.25 7.77751 0.25 8.27483H1.75C1.75 8.20378 1.78023 8.1361 1.83313 8.08867L0.831903 6.97174ZM7.8319 0.696908L0.831903 6.97174L1.83313 8.08867L8.83313 1.81384L7.8319 0.696908ZM10.1681 0.696908C9.50336 0.101031 8.49664 0.10103 7.8319 0.696908L8.83313 1.81384C8.92809 1.72872 9.07191 1.72872 9.16687 1.81384L10.1681 0.696908ZM17.1681 6.97174L10.1681 0.696908L9.16687 1.81384L16.1669 8.08867L17.1681 6.97174ZM6.75 13.8281C6.75 13.1378 7.30964 12.5781 8 12.5781V11.0781C6.48122 11.0781 5.25 12.3093 5.25 13.8281H6.75ZM6.75 19.4042V13.8281H5.25V19.4042H6.75ZM12 18.6542H6V20.1542H12V18.6542ZM11.25 13.8281V19.4042H12.75V13.8281H11.25ZM10 12.5781C10.6904 12.5781 11.25 13.1378 11.25 13.8281H12.75C12.75 12.3093 11.5188 11.0781 10 11.0781V12.5781ZM8 12.5781H10V11.0781H8V12.5781Z" fill="#666E79"/>
</svg>
