<svg width="42" height="42" viewBox="0 0 42 42" fill="none" xmlns="http://www.w3.org/2000/svg">
<path d="M37.5146 35.1343C37.3898 35.7857 37.2725 36.2196 37.1804 36.5H7.77188C7.79013 36.3863 7.80902 36.2679 7.82849 36.1449C8.03679 34.8291 8.31166 32.99 8.57821 30.8947C9.10846 26.7267 9.61704 21.4614 9.47951 17.284C9.35576 13.525 8.64049 8.59166 8.10579 5.32931C7.94749 4.36346 8.69204 3.5 9.62937 3.5H35.5695C36.2824 3.5 36.8671 3.99293 36.9897 4.65477C37.5757 7.81703 38.478 13.3536 38.478 17.3333C38.478 27.644 37.9821 32.6951 37.5146 35.1343ZM37.0019 36.9375C37.0004 36.94 36.9996 36.9411 36.9996 36.9412C36.9995 36.9413 37.0002 36.94 37.0019 36.9375Z" stroke="#666E79" stroke-width="3"/>
<path d="M3.51079 27.8678C3.50644 27.7048 3.64139 27.5 3.92762 27.5H31.6401C31.8934 27.5 32.1595 27.7061 32.1995 28.0321C32.3766 29.4735 32.7019 31.5868 33.2525 33.1617C33.6495 34.2971 34.3641 35.5098 35.0242 36.5H6.73882C6.5076 36.202 6.2056 35.8009 5.88368 35.3417C5.16536 34.317 4.43488 33.1247 4.10164 32.1716C3.69841 31.0183 3.54856 29.2832 3.51079 27.8678Z" fill="#666E79" stroke="#666E79" stroke-width="3"/>
<path d="M15 18.35H32.85M15 11H26.025" stroke="#666E79" stroke-width="2.5" stroke-linecap="round"/>
</svg>
