<svg width="233" height="54" viewBox="0 0 233 54" fill="none" xmlns="http://www.w3.org/2000/svg">
<g clip-path="url(#clip0_130_149)">
<path d="M137.195 1.32901L128.785 26.284L120.169 1.32901H104.655L122.987 53.3013H134.628L152.709 1.32901H137.195Z" fill="#020418"/>
<path d="M174.845 1.32901V53.37H158.392V1.32901H174.845Z" fill="#020418"/>
<path d="M102.455 16.7513C101.217 7.44762 92.4638 0.229249 81.7622 0.0230103H81.3956C79.8603 0.0230103 78.4166 0.160503 76.95 0.48132C76.2167 0.618812 75.4834 0.802136 74.773 1.00838C74.3376 1.14587 73.9022 1.32919 73.4668 1.46668C73.2377 1.53543 73.0315 1.60418 72.894 1.67292C68.013 3.55199 64.0715 7.08097 61.9633 11.5037C61.4591 12.489 61.0925 13.589 60.7946 14.6889C60.6571 15.0097 60.5654 15.3305 60.5654 15.7201C60.4279 16.4305 60.3363 17.1409 60.2675 17.9429C60.1988 18.2637 60.1988 18.6533 60.1988 18.9741V53.3244H75.85V40.9729H80.4102V34.9233L75.85 28.5298V18.4929C75.85 17.5075 76.3084 16.6367 77.0417 16.018C77.225 15.8576 77.4083 15.7201 77.6145 15.6055C77.7291 15.5368 77.8666 15.468 78.0041 15.4222C78.3478 15.2847 78.6916 15.1701 79.0582 15.1243C79.2645 15.1014 79.4707 15.0785 79.6769 15.0785C79.8373 15.0785 79.9978 15.1014 80.1582 15.1243C82.0601 15.3305 83.5496 16.7742 83.5496 18.5387V53.3702H102.569V19.0199C102.569 18.2408 102.501 17.5304 102.432 16.7971L102.455 16.7513Z" fill="#020418"/>
<path d="M24.8862 41.3395C24.0154 42.0728 23.855 43.4248 24.5425 44.3643L31.0505 53.3243H11.2286V39.3688C11.2286 30.6151 17.5991 22.4113 25.5966 21.9072C25.8486 21.8843 26.1236 21.8843 26.3757 21.8843H34.1899C34.1899 21.8843 34.3044 21.8614 34.3732 21.8614H34.419C36.3439 21.8614 37.8793 20.5093 37.8793 18.149C37.8793 15.7888 36.3439 14.4138 34.419 14.4138C34.3732 14.4138 34.3503 14.4367 34.3045 14.4367C34.2586 14.4367 34.2357 14.4138 34.1899 14.4138H12.8097C6.43925 14.4138 0 6.87464 0 0H39.5521C39.9187 0 40.3541 0.0458309 40.8124 0.114577C41.1562 0.137493 41.4999 0.206239 41.8436 0.297901C42.027 0.320816 42.2103 0.366647 42.3936 0.412478C42.4624 0.412478 42.5311 0.435394 42.5998 0.458309C48.4891 1.97073 53.0035 7.5621 53.7597 14.4826C53.8055 14.9867 53.8284 15.4909 53.8284 15.995C53.8284 17.9657 53.5993 19.8677 53.141 21.678C51.2619 28.186 45.8768 32.9295 39.4833 32.9983H38.9105L53.8743 53.393L36.1377 53.3243L27.7048 41.7061C27.0173 40.7666 25.757 40.6062 24.8862 41.3395Z" fill="#020418"/>
<path d="M232.111 0.0229155H226.313L217.536 0L208.622 0.0229155C206.308 0.0229155 204.108 0.389563 202.091 1.12286C199.617 1.97073 197.348 3.39149 195.286 5.3393C191.573 8.86828 190.496 13.1076 190.496 18.0116C190.496 22.0676 191.711 26.1465 194.186 30.2026C195.721 32.7691 196.5 34.5107 196.706 35.244C197.325 37.5355 196.179 38.5209 195.95 38.9563H180.895V53.3243H202.091C204.016 52.6139 205.804 51.5827 207.431 50.2307C207.774 50.0015 208.118 49.7036 208.439 49.4057C212.243 45.8997 214.168 41.6145 214.168 36.5502C214.168 33.1128 212.335 29.5151 210.066 25.8028L208.554 23.0988C207.568 21.5176 206.697 18.8594 206.697 17.8053C206.697 16.6137 206.927 15.0325 207.981 14.4138H217.743C225.694 14.4138 232.134 7.97458 232.134 0.0229155H232.111Z" fill="#020418"/>
</g>
<defs>
<clipPath id="clip0_130_149">
<rect width="232.111" height="53.393" fill="white"/>
</clipPath>
</defs>
</svg>
