<svg width="390" height="336" viewBox="0 0 390 336" fill="none" xmlns="http://www.w3.org/2000/svg">
<mask id="mask0_41_63" style="mask-type:luminance" maskUnits="userSpaceOnUse" x="34" y="8" width="321" height="321">
<path d="M194.17 328.34C282.629 328.34 354.34 256.629 354.34 168.17C354.34 79.7105 282.629 8 194.17 8C105.711 8 34 79.7105 34 168.17C34 256.629 105.711 328.34 194.17 328.34Z" fill="white"/>
</mask>
<g mask="url(#mask0_41_63)">
<path d="M194.171 328.34C282.63 328.34 354.341 256.629 354.341 168.17C354.341 79.7103 282.63 7.99976 194.171 7.99976C105.711 7.99976 34.0007 79.7103 34.0007 168.17C34.0007 256.629 105.711 328.34 194.171 328.34Z" fill="white"/>
<path d="M25.4532 206.715L102.42 283.618C104.465 285.663 107.897 285.207 109.334 282.697C123.726 257.573 187.705 145.906 188.119 145.356C188.556 144.772 71.7523 23.5034 58.1115 9.34585C57.2848 8.48571 56.142 8.00244 54.9505 8.00244H38.6776C36.3434 8.00244 34.4164 9.82912 34.2918 12.1634L24.1706 203.375C24.1037 204.618 24.5718 205.834 25.4532 206.715Z" fill="#F1F4FA" stroke="#D6D9E4" stroke-width="4.25515" stroke-miterlimit="10"/>
<path d="M72.0265 342.151L95.7703 306.067L34.5082 244.139V339.202L72.0265 342.151Z" fill="#F1F4FA"/>
<path d="M121.722 324.091L163.556 253.264C164.265 252.063 165.502 251.273 166.888 251.13L168.948 250.917C170.064 250.802 171.182 251.118 172.07 251.799L212.457 282.74C213.463 283.509 214.086 284.676 214.168 285.937L215.108 300.195C215.168 301.137 214.928 302.073 214.415 302.863L197.975 328.337L125.649 330.713C122.187 330.826 119.962 327.072 121.722 324.091Z" fill="#F1F4FA" stroke="#D6D9E4" stroke-width="4.25515" stroke-miterlimit="10"/>
<path d="M214.269 328.34L232.418 301.49C233.819 299.417 236.664 298.931 238.673 300.423L274.282 326.853C277.884 329.528 275.632 335.245 271.173 334.744L214.269 328.34Z" fill="#F1F4FA" stroke="#D6D9E4" stroke-width="4.25515" stroke-miterlimit="10"/>
<path d="M322.633 330.762L303.324 323.741C302.932 323.598 302.564 323.401 302.227 323.154L186.769 238.516C186.176 238.082 185.702 237.504 185.389 236.842L181.42 228.383C180.845 227.161 180.867 225.742 181.474 224.538L226.959 134.441C228.05 132.28 230.685 131.408 232.849 132.496L362.641 197.603C364.157 198.363 365.099 199.931 365.063 201.627L362.203 328.951C362.148 331.449 360.018 333.397 357.522 333.233L323.846 331.014C323.432 330.987 323.022 330.902 322.633 330.759V330.762Z" fill="#F1F4FA" stroke="#D6D9E4" stroke-width="4.25515" stroke-miterlimit="10"/>
<path d="M350.213 173.765L236.762 118.114C234.707 117.108 233.771 114.692 234.61 112.564L262.578 41.4878C263.429 39.3268 265.812 38.2023 268.019 38.9165L360.681 68.9396C362.608 69.5627 363.857 71.4228 363.708 73.444L356.529 170.148C356.298 173.249 353.006 175.136 350.216 173.765H350.213Z" fill="#F1F4FA" stroke="#D6D9E4" stroke-width="4.25515" stroke-miterlimit="10"/>
<path d="M237.935 9.78665C235.781 18.9535 231.535 37.2628 230.884 40.0712C230.826 40.3143 230.75 40.5514 230.653 40.7824L198.897 116.096C197.682 118.98 193.928 119.703 191.728 117.478L82.1331 6.63176C79.3369 3.80512 81.4371 -0.984963 85.4126 -0.845151L233.817 4.39476C236.583 4.49202 238.571 7.09071 237.939 9.78665H237.935Z" fill="#F1F4FA" stroke="#D6D9E4" stroke-width="4.25515" stroke-miterlimit="10"/>
</g>
<g clip-path="url(#clip0_41_63)">
<g filter="url(#filter0_di_41_63)">
<path d="M102.287 148.668L114.727 131.068C116.824 128.095 121.503 130.028 120.883 133.621L117.226 154.86C116.824 157.186 118.849 159.21 121.175 158.809L142.415 155.152C146 154.532 147.942 159.21 144.969 161.308L127.358 173.737C125.434 175.096 125.434 177.96 127.358 179.319L144.969 191.748C147.942 193.846 146.009 198.524 142.415 197.904L121.175 194.247C118.849 193.846 116.824 195.87 117.226 198.196L120.883 219.435C121.503 223.019 116.824 224.961 114.727 221.988L102.296 204.379C100.937 202.454 98.0735 202.454 96.7146 204.379L84.2839 221.988C82.1863 224.961 77.5077 223.028 78.1279 219.435L81.785 198.196C82.1863 195.87 80.1617 193.846 77.8361 194.247L56.5954 197.904C53.0112 198.524 51.0686 193.846 54.0418 191.748L71.6526 179.319C73.577 177.96 73.577 175.096 71.6526 173.737L54.0418 161.299C51.0686 159.201 53.0021 154.523 56.5954 155.143L77.8361 158.8C80.1617 159.201 82.1863 157.177 81.785 154.851L78.1279 133.612C77.5077 130.028 82.1863 128.086 84.2839 131.059L96.7146 148.668C98.0735 150.592 100.937 150.592 102.296 148.668H102.287Z" fill="#0567ED"/>
</g>
<path d="M97.3213 173.236H99.4831V175.099H97.3213V180.302H95.0716V168.649H97.3213V173.236ZM97.9013 184.362H86.9516V179.071H89.1838V182.569H97.9013V184.362ZM89.131 169.686C89.9395 169.686 90.6748 169.862 91.3368 170.213C92.0047 170.559 92.529 171.042 92.9098 171.663C93.2965 172.278 93.4898 172.973 93.4898 173.746C93.4898 174.513 93.2965 175.208 92.9098 175.829C92.529 176.444 92.0047 176.927 91.3368 177.279C90.6748 177.63 89.9395 177.806 89.131 177.806C88.3167 177.806 87.5756 177.63 86.9077 177.279C86.2398 176.927 85.7096 176.444 85.3171 175.829C84.9304 175.208 84.7371 174.513 84.7371 173.746C84.7371 172.973 84.9304 172.278 85.3171 171.663C85.7038 171.042 86.231 170.559 86.8989 170.213C87.5726 169.862 88.3167 169.686 89.131 169.686ZM89.131 171.637C88.7209 171.631 88.3489 171.713 88.015 171.883C87.6869 172.047 87.4262 172.29 87.2328 172.612C87.0395 172.934 86.9458 173.312 86.9516 173.746C86.9458 174.168 87.0395 174.54 87.2328 174.862C87.4262 175.178 87.6898 175.424 88.0238 175.6C88.3577 175.77 88.7268 175.855 89.131 175.855C89.5411 175.855 89.9102 175.77 90.2383 175.6C90.5664 175.424 90.8242 175.178 91.0116 174.862C91.205 174.54 91.3046 174.168 91.3104 173.746C91.3046 173.312 91.205 172.934 91.0116 172.612C90.8242 172.29 90.5664 172.047 90.2383 171.883C89.9102 171.713 89.5411 171.631 89.131 171.637ZM113.255 180.337H111.023V174.607H108.404V172.797H111.023V168.666H113.255V180.337ZM113.642 184.362H102.64V179.317H104.889V182.569H113.642V184.362ZM105.821 171.795C105.821 172.434 105.953 173.058 106.216 173.667C106.486 174.276 106.896 174.827 107.447 175.319C107.997 175.811 108.68 176.189 109.494 176.453L108.387 178.228C107.526 177.952 106.785 177.539 106.164 176.989C105.548 176.438 105.059 175.788 104.696 175.038C104.333 175.87 103.826 176.587 103.176 177.191C102.531 177.794 101.749 178.251 100.829 178.562L99.6869 176.734C100.531 176.47 101.239 176.081 101.814 175.565C102.394 175.049 102.824 174.466 103.105 173.816C103.387 173.16 103.53 172.48 103.536 171.777V171.531H100.32V169.739H109.002V171.531H105.821V171.795Z" fill="white"/>
</g>
<g clip-path="url(#clip1_41_63)">
<g filter="url(#filter1_di_41_63)">
<path d="M297.286 31.6683L309.726 14.0678C311.824 11.0949 316.502 13.0282 315.882 16.6213L312.225 37.8603C311.824 40.1858 313.849 42.2103 316.174 41.809L337.415 38.1522C340.999 37.532 342.942 42.2103 339.968 44.3078L322.358 56.7375C320.433 58.0963 320.433 60.9598 322.358 62.3186L339.968 74.7483C342.942 76.8458 341.008 81.524 337.415 80.9039L316.174 77.247C313.849 76.8458 311.824 78.8703 312.225 81.1957L315.882 102.435C316.502 106.019 311.824 107.961 309.726 104.988L297.296 87.3787C295.937 85.4545 293.073 85.4545 291.714 87.3787L279.283 104.988C277.186 107.961 272.507 106.028 273.127 102.435L276.785 81.1957C277.186 78.8703 275.161 76.8458 272.836 77.247L251.595 80.9039C248.011 81.524 246.068 76.8458 249.041 74.7483L266.652 62.3186C268.576 60.9598 268.576 58.0963 266.652 56.7375L249.041 44.2986C246.068 42.2012 248.002 37.5229 251.595 38.143L272.836 41.7999C275.161 42.2012 277.186 40.1767 276.785 37.8512L273.127 16.6122C272.507 13.0282 277.186 11.0858 279.283 14.0587L291.714 31.6683C293.073 33.5925 295.937 33.5925 297.296 31.6683H297.286Z" fill="#ED3333"/>
</g>
<path d="M284.85 52.3168C285.659 52.3109 286.382 52.4515 287.021 52.7386C287.659 53.0198 288.16 53.4211 288.524 53.9426C288.887 54.4581 289.068 55.0469 289.068 55.7089C289.068 56.3651 288.887 56.9539 288.524 57.4753C288.16 57.9908 287.656 58.3921 287.012 58.6792C286.373 58.9663 285.653 59.1069 284.85 59.101C284.042 59.1069 283.318 58.9663 282.68 58.6792C282.041 58.3921 281.54 57.9908 281.177 57.4753C280.819 56.9539 280.644 56.3651 280.65 55.7089C280.644 55.0469 280.819 54.4581 281.177 53.9426C281.54 53.4211 282.041 53.0198 282.68 52.7386C283.318 52.4515 284.042 52.3109 284.85 52.3168ZM284.85 54.1095C284.241 54.1095 283.749 54.2531 283.374 54.5401C282.999 54.8213 282.811 55.2109 282.811 55.7089C282.811 56.201 282.999 56.5877 283.374 56.8689C283.749 57.1501 284.241 57.2849 284.85 57.2732C285.477 57.2849 285.981 57.1501 286.362 56.8689C286.748 56.5877 286.942 56.201 286.942 55.7089C286.942 55.2109 286.748 54.8213 286.362 54.5401C285.981 54.2531 285.477 54.1095 284.85 54.1095ZM293.111 67.6428H290.896V51.6665H293.111V67.6428ZM279.665 60.0853C283.919 60.0853 287.34 59.8919 289.93 59.5053L290.07 61.1574C288.857 61.3976 287.522 61.5763 286.063 61.6935V67.1683H283.831V61.8253C282.8 61.8721 281.716 61.8956 280.579 61.8956C280.439 61.9073 280.228 61.9132 279.947 61.9132L279.665 60.0853ZM308.254 61.3156H306.022V58.1695H303.948V56.3416H306.022V51.6489H308.254V61.3156ZM308.254 67.4671H297.498V62.001H308.254V67.4671ZM299.747 65.6744H306.057V63.7586H299.747V65.6744ZM304.229 54.8301H294.808V53.0374H298.429V51.5083H300.644V53.0374H304.229V54.8301ZM299.536 55.3574C300.275 55.3574 300.934 55.4804 301.514 55.7265C302.099 55.9726 302.554 56.3123 302.876 56.7459C303.204 57.1794 303.368 57.6715 303.368 58.2222C303.368 58.7964 303.204 59.3032 302.876 59.7425C302.554 60.1761 302.102 60.5159 301.522 60.7619C300.942 61.0021 300.28 61.1222 299.536 61.1222C298.798 61.1222 298.136 61.0021 297.55 60.7619C296.964 60.5159 296.507 60.1732 296.179 59.7338C295.851 59.2944 295.687 58.7905 295.687 58.2222C295.687 57.6715 295.851 57.1794 296.179 56.7459C296.513 56.3123 296.973 55.9726 297.559 55.7265C298.145 55.4804 298.804 55.3574 299.536 55.3574ZM299.536 57.0447C299.009 57.0447 298.593 57.1472 298.288 57.3522C297.99 57.5573 297.843 57.8473 297.849 58.2222C297.843 58.6206 297.99 58.9282 298.288 59.145C298.593 59.3617 299.009 59.4701 299.536 59.4701C300.058 59.4701 300.468 59.3617 300.767 59.145C301.071 58.9282 301.224 58.6206 301.224 58.2222C301.224 57.8473 301.071 57.5573 300.767 57.3522C300.462 57.1472 300.052 57.0447 299.536 57.0447Z" fill="white"/>
</g>
<circle cx="264.536" cy="225.524" r="48.5" fill="url(#paint0_radial_41_63)" fill-opacity="0.8"/>
<circle cx="265.036" cy="225.024" r="15" fill="white"/>
<circle cx="265.036" cy="225.024" r="11" fill="#0567ED"/>
<defs>
<filter id="filter0_di_41_63" x="50.012" y="127.031" width="104.129" height="104.129" filterUnits="userSpaceOnUse" color-interpolation-filters="sRGB">
<feFlood flood-opacity="0" result="BackgroundImageFix"/>
<feColorMatrix in="SourceAlpha" type="matrix" values="0 0 0 0 0 0 0 0 0 0 0 0 0 0 0 0 0 0 127 0" result="hardAlpha"/>
<feOffset dx="2.57108" dy="2.57108"/>
<feGaussianBlur stdDeviation="2.57108"/>
<feComposite in2="hardAlpha" operator="out"/>
<feColorMatrix type="matrix" values="0 0 0 0 0.266667 0 0 0 0 0.266667 0 0 0 0 0.266667 0 0 0 0.5 0"/>
<feBlend mode="normal" in2="BackgroundImageFix" result="effect1_dropShadow_41_63"/>
<feBlend mode="normal" in="SourceGraphic" in2="effect1_dropShadow_41_63" result="shape"/>
<feColorMatrix in="SourceAlpha" type="matrix" values="0 0 0 0 0 0 0 0 0 0 0 0 0 0 0 0 0 0 127 0" result="hardAlpha"/>
<feOffset dx="2.57108" dy="2.57108"/>
<feGaussianBlur stdDeviation="1.28554"/>
<feComposite in2="hardAlpha" operator="arithmetic" k2="-1" k3="1"/>
<feColorMatrix type="matrix" values="0 0 0 0 1 0 0 0 0 1 0 0 0 0 1 0 0 0 0.25 0"/>
<feBlend mode="normal" in2="shape" result="effect2_innerShadow_41_63"/>
</filter>
<filter id="filter1_di_41_63" x="245.012" y="10.0312" width="104.129" height="104.129" filterUnits="userSpaceOnUse" color-interpolation-filters="sRGB">
<feFlood flood-opacity="0" result="BackgroundImageFix"/>
<feColorMatrix in="SourceAlpha" type="matrix" values="0 0 0 0 0 0 0 0 0 0 0 0 0 0 0 0 0 0 127 0" result="hardAlpha"/>
<feOffset dx="2.57108" dy="2.57108"/>
<feGaussianBlur stdDeviation="2.57108"/>
<feComposite in2="hardAlpha" operator="out"/>
<feColorMatrix type="matrix" values="0 0 0 0 0.266667 0 0 0 0 0.266667 0 0 0 0 0.266667 0 0 0 0.5 0"/>
<feBlend mode="normal" in2="BackgroundImageFix" result="effect1_dropShadow_41_63"/>
<feBlend mode="normal" in="SourceGraphic" in2="effect1_dropShadow_41_63" result="shape"/>
<feColorMatrix in="SourceAlpha" type="matrix" values="0 0 0 0 0 0 0 0 0 0 0 0 0 0 0 0 0 0 127 0" result="hardAlpha"/>
<feOffset dx="2.57108" dy="2.57108"/>
<feGaussianBlur stdDeviation="1.28554"/>
<feComposite in2="hardAlpha" operator="arithmetic" k2="-1" k3="1"/>
<feColorMatrix type="matrix" values="0 0 0 0 1 0 0 0 0 1 0 0 0 0 1 0 0 0 0.25 0"/>
<feBlend mode="normal" in2="shape" result="effect2_innerShadow_41_63"/>
</filter>
<radialGradient id="paint0_radial_41_63" cx="0" cy="0" r="1" gradientUnits="userSpaceOnUse" gradientTransform="translate(264.536 225.524) rotate(90) scale(48.5)">
<stop stop-color="#83B5F9"/>
<stop offset="1" stop-color="#ACCDFA" stop-opacity="0.2"/>
</radialGradient>
<clipPath id="clip0_41_63">
<rect width="103" height="103" fill="white" transform="translate(48.0361 125.024)"/>
</clipPath>
<clipPath id="clip1_41_63">
<rect width="103" height="103" fill="white" transform="translate(243.036 8.02441)"/>
</clipPath>
</defs>
</svg>
