<svg width="390" height="410" viewBox="0 0 390 410" fill="none" xmlns="http://www.w3.org/2000/svg">
<g clip-path="url(#clip0_63_224)">
<g filter="url(#filter0_f_63_224)">
<rect x="40.1719" y="25" width="309.656" height="112.776" rx="8.48041" fill="#939CB1" fill-opacity="0.5"/>
</g>
<g filter="url(#filter1_f_63_224)">
<rect x="40.1719" y="152.112" width="309.656" height="112.776" rx="8.48041" fill="#939CB1" fill-opacity="0.5"/>
</g>
<g filter="url(#filter2_f_63_224)">
<rect x="40.1719" y="279.224" width="309.656" height="112.776" rx="8.48041" fill="#939CB1" fill-opacity="0.5"/>
</g>
<rect x="43.0391" y="27.8672" width="303.599" height="106.853" rx="8.48041" fill="white"/>
<rect x="43.8871" y="28.7152" width="301.903" height="105.157" rx="7.63237" stroke="#1F64C3" stroke-opacity="0.1" stroke-width="1.69608"/>
<path d="M71.8342 52.8281H69.941V51.5013H66.8851V49.9808H69.941V48.6839H67.0192C66.1795 50.8256 64.2614 52.3063 61.2651 53.1262L60.5198 51.6206C62.0403 51.2231 63.2055 50.669 64.0155 49.9585C64.8254 49.2429 65.3 48.4057 65.4391 47.4466H61.2502V45.9261H67.5112C67.5112 46.3833 67.4789 46.8056 67.4143 47.1932H69.941V45.0168H71.8342V52.8281ZM67.3174 52.992C68.2317 52.992 69.0366 53.1038 69.7323 53.3274C70.428 53.551 70.9671 53.8691 71.3497 54.2815C71.7373 54.6939 71.9336 55.1784 71.9385 55.7349C71.9336 56.2964 71.7373 56.7859 71.3497 57.2033C70.9671 57.6206 70.428 57.9411 69.7323 58.1648C69.0366 58.3933 68.2317 58.5076 67.3174 58.5076C66.3931 58.5076 65.5807 58.3933 64.8801 58.1648C64.1795 57.9411 63.6353 57.6206 63.2478 57.2033C62.8652 56.7859 62.6763 56.2964 62.6813 55.7349C62.6763 55.1784 62.8652 54.6939 63.2478 54.2815C63.6353 53.8691 64.1795 53.551 64.8801 53.3274C65.5807 53.1038 66.3931 52.992 67.3174 52.992ZM67.3174 54.4827C66.4528 54.4728 65.7795 54.5771 65.2975 54.7958C64.8155 55.0094 64.5745 55.3225 64.5745 55.7349C64.5745 56.1473 64.813 56.4629 65.29 56.6815C65.772 56.8952 66.4478 57.002 67.3174 57.002C68.172 57.002 68.8379 56.8952 69.3149 56.6815C69.7919 56.4629 70.0304 56.1473 70.0304 55.7349C70.0304 55.3225 69.7919 55.0094 69.3149 54.7958C68.8379 54.5771 68.172 54.4728 67.3174 54.4827ZM76.0827 47.5808H78.751V45.7771H80.6293V48.2218H83.1337V45.0019H85.0269V52.8579H83.1337V49.7721H80.6293V52.2765H74.1746V45.7771H76.0827V47.5808ZM78.751 50.756V49.0566H76.0827V50.756H78.751ZM85.0269 58.4182H75.9038V53.3945H85.0269V58.4182ZM77.8119 56.8977H83.1635V54.915H77.8119V56.8977ZM94.9698 47.7001H92.1897C92.2244 48.1671 92.3661 48.6168 92.6145 49.0491C92.8679 49.4814 93.2331 49.8665 93.7102 50.2044C94.1922 50.5423 94.776 50.8007 95.4617 50.9796L94.5524 52.4405C93.7773 52.2367 93.1089 51.9187 92.5474 51.4864C91.9909 51.0541 91.5536 50.5374 91.2356 49.9361C90.9126 50.5771 90.4605 51.1287 89.8791 51.5908C89.3027 52.0479 88.6095 52.3858 87.7996 52.6045L86.9051 51.1436C87.5958 50.9597 88.1822 50.6939 88.6642 50.346C89.1462 49.9932 89.5163 49.5908 89.7747 49.1386C90.0331 48.6864 90.1822 48.2069 90.2219 47.7001H87.4567V46.1795H94.9698V47.7001ZM92.1822 54.2889C93.3797 54.2194 94.4928 54.1051 95.5214 53.9461L95.6704 55.3622C94.3388 55.6107 92.9797 55.7722 91.5934 55.8467C90.207 55.9213 88.6989 55.9585 87.0691 55.9585L86.8455 54.4231C88.1325 54.4231 89.2704 54.4082 90.2592 54.3784V51.9784H92.1822V54.2889ZM98.1897 58.5971H96.2965V45.0019H98.1897V58.5971Z" fill="#1F64C3"/>
<path d="M71.2876 82.593H66.5704V84.7794H65.3248V82.593H60.4221V81.586H71.2876V82.593ZM70.0818 86.9922H61.7736V83.7458H63.0192V85.9719H70.0818V86.9922ZM63.0987 77.1867H68.5977V75.7424H69.8565V80.5392H61.8531V75.7424H63.0987V77.1867ZM68.5977 79.5321V78.1275H63.0987V79.5321H68.5977ZM81.9941 81.4799H80.7486V75.3714H81.9941V81.4799ZM82.0074 85.0179H75.4616V86.1177H82.4049V87.1247H74.2425V84.0638H80.7618V83.0435H74.2027V82.0497H82.0074V85.0179ZM76.4819 76.6037C76.4774 77.1293 76.5945 77.6328 76.833 78.1143C77.0759 78.5957 77.4204 79.0197 77.8665 79.3863C78.3171 79.7485 78.8405 80.0224 79.4367 80.2079L78.814 81.1884C78.1293 80.9632 77.5309 80.6275 77.0185 80.1814C76.5106 79.7309 76.1219 79.2008 75.8524 78.5913C75.5786 79.2494 75.1833 79.8236 74.6665 80.3139C74.1497 80.8042 73.5402 81.1708 72.8379 81.4137L72.2019 80.4199C72.8114 80.2167 73.3414 79.9208 73.792 79.5321C74.2425 79.139 74.5892 78.6907 74.8321 78.1872C75.0751 77.6792 75.1965 77.1514 75.1965 76.6037V75.6894H76.4819V76.6037ZM93.4692 81.0029H87.8244V76.1267H93.4692V81.0029ZM89.0567 80.0224H92.2236V77.1337H89.0567V80.0224ZM97.0336 82.1557H95.788V75.3714H97.0336V82.1557ZM97.3119 83.8783H93.8402C93.8667 84.2228 94.0544 84.5629 94.4034 84.8986C94.7523 85.2299 95.2183 85.517 95.8013 85.7599C96.3887 85.9984 97.0336 86.1574 97.7359 86.2369L97.3119 87.2042C96.3932 87.0982 95.5694 86.8597 94.8406 86.4887C94.1118 86.1177 93.5641 85.6672 93.1975 85.1371C92.8354 85.6672 92.2855 86.1155 91.5478 86.4821C90.8146 86.8487 89.9798 87.0894 89.0435 87.2042L88.6062 86.2369C89.3085 86.1707 89.9556 86.0183 90.5474 85.7798C91.1393 85.5413 91.6119 85.2542 91.9652 84.9185C92.323 84.5784 92.5151 84.2317 92.5416 83.8783H89.0832V82.9243H92.5681V81.8112H93.8137V82.9243H97.3119V83.8783ZM111.861 81.851H108.27V84.7529H113.107V85.7864H102.241V84.7529H107.025V81.851H103.593V76.2857H111.755V77.306H104.851V80.8439H111.861V81.851ZM115.77 80.7909C116.653 80.7909 117.515 80.7556 118.354 80.6849C119.198 80.6098 120.05 80.4817 120.911 80.3006L121.057 81.3342C120.129 81.5241 119.211 81.6588 118.301 81.7383C117.395 81.8134 116.455 81.851 115.479 81.851H114.511V76.2194H115.77V80.7909ZM123.296 78.8431H125.019V79.9164H123.296V83.9446H122.038V75.3847H123.296V78.8431ZM123.707 86.9922H115.797V83.1098H117.069V85.9719H123.707V86.9922ZM126.768 88.8606H125.642L126.344 85.2034H127.828L126.768 88.8606ZM143.331 83.3483H138.482V87.244H137.249V83.3483H132.466V82.3545H143.331V83.3483ZM135.063 77.3988H140.708V75.8484H141.967V81.0029H133.817V75.8484H135.063V77.3988ZM140.708 79.9959V78.4058H135.063V79.9959H140.708ZM153.548 78.3793H155.257V79.4128H153.548V82.381H152.276V75.3714H153.548V78.3793ZM149.705 82.6063C150.513 82.6063 151.211 82.6968 151.799 82.8779C152.39 83.059 152.845 83.324 153.163 83.6729C153.481 84.0174 153.64 84.4304 153.64 84.9119C153.64 85.3933 153.481 85.8063 153.163 86.1508C152.845 86.4997 152.39 86.7647 151.799 86.9458C151.207 87.1314 150.509 87.2219 149.705 87.2175C148.892 87.2219 148.186 87.1314 147.585 86.9458C146.984 86.7647 146.523 86.4997 146.2 86.1508C145.878 85.8063 145.716 85.3933 145.716 84.9119C145.716 84.4304 145.878 84.0174 146.2 83.6729C146.523 83.324 146.982 83.059 147.578 82.8779C148.179 82.6968 148.888 82.6063 149.705 82.6063ZM149.705 83.6266C149.135 83.6221 148.643 83.6707 148.227 83.7723C147.817 83.8695 147.501 84.0152 147.28 84.2096C147.064 84.4039 146.958 84.638 146.962 84.9119C146.958 85.1813 147.064 85.4154 147.28 85.6142C147.501 85.8085 147.817 85.9565 148.227 86.058C148.638 86.1596 149.131 86.2104 149.705 86.2104C150.266 86.2104 150.75 86.1596 151.156 86.058C151.562 85.9565 151.876 85.8085 152.097 85.6142C152.318 85.4154 152.43 85.1813 152.435 84.9119C152.43 84.6424 152.318 84.4106 152.097 84.2162C151.876 84.0174 151.56 83.8695 151.149 83.7723C150.743 83.6707 150.261 83.6221 149.705 83.6266ZM150.01 77.2662H145.955V80.4994C147.174 80.495 148.157 80.4663 148.903 80.4133C149.65 80.3603 150.385 80.2609 151.109 80.1151L151.229 81.1354C150.473 81.2944 149.701 81.3982 148.91 81.4468C148.119 81.4954 147.033 81.5197 145.65 81.5197H144.709V76.2459H150.01V77.2662ZM165.261 79.2008H166.984V80.2476H165.261V84.2626H164.002V75.3847H165.261V79.2008ZM163.022 77.783H155.946V76.7627H158.861V75.3714H160.12V76.7627H163.022V77.783ZM159.484 78.3528C160.049 78.3528 160.548 78.4456 160.981 78.6311C161.418 78.8166 161.756 79.0794 161.995 79.4195C162.238 79.7552 162.359 80.1461 162.359 80.5922C162.359 81.0383 162.238 81.4292 161.995 81.7648C161.756 82.1005 161.418 82.3611 160.981 82.5466C160.548 82.7277 160.049 82.8183 159.484 82.8183C158.914 82.8183 158.411 82.7277 157.973 82.5466C157.536 82.3611 157.196 82.1005 156.953 81.7648C156.715 81.4292 156.595 81.0383 156.595 80.5922C156.595 80.1461 156.715 79.7552 156.953 79.4195C157.196 79.0794 157.536 78.8166 157.973 78.6311C158.411 78.4456 158.914 78.3528 159.484 78.3528ZM159.484 79.3201C159.148 79.3201 158.852 79.3731 158.596 79.4791C158.344 79.5807 158.15 79.7287 158.013 79.923C157.876 80.1129 157.81 80.336 157.814 80.5922C157.81 80.8439 157.876 81.0648 158.013 81.2547C158.15 81.4402 158.344 81.5837 158.596 81.6853C158.852 81.7869 159.148 81.8377 159.484 81.8377C159.82 81.8377 160.113 81.7869 160.365 81.6853C160.621 81.5837 160.82 81.4402 160.961 81.2547C161.103 81.0648 161.176 80.8439 161.18 80.5922C161.176 80.336 161.103 80.1129 160.961 79.923C160.82 79.7287 160.621 79.5807 160.365 79.4791C160.113 79.3731 159.82 79.3201 159.484 79.3201ZM165.765 86.9922H157.735V83.5603H158.994V85.9719H165.765V86.9922ZM174.523 79.0153C174.523 79.6469 174.618 80.2653 174.808 80.8704C175.003 81.4755 175.288 82.0232 175.663 82.5135C176.043 82.9994 176.498 83.3836 177.028 83.6663L176.325 84.5939C175.769 84.2979 175.288 83.8827 174.881 83.3483C174.479 82.8094 174.168 82.1933 173.947 81.4998C173.726 82.2463 173.415 82.9132 173.013 83.5007C172.615 84.0837 172.138 84.5408 171.582 84.8721L170.84 83.9181C171.37 83.6089 171.822 83.1959 172.198 82.6791C172.573 82.1579 172.856 81.5815 173.046 80.9499C173.24 80.3139 173.34 79.669 173.344 79.0153V78.5383H171.197V77.5048H173.344V75.7954H174.523V77.5048H176.63V78.5383H174.523V79.0153ZM181.162 87.244H179.956V75.3714H181.162V87.244ZM178.75 86.6477H177.558V81.0427H175.848V79.9959H177.558V75.6232H178.75V86.6477ZM193.565 85.8262H182.699V84.7529H187.469V82.222H183.653V81.2282H185.429V77.4915H183.627V76.4712H192.571V77.4915H190.755V81.2282H192.531V82.222H188.715V84.7529H193.565V85.8262ZM189.523 81.2282V77.4915H186.674V81.2282H189.523ZM204.006 81.0029H198.361V76.1267H204.006V81.0029ZM199.594 80.0224H202.761V77.1337H199.594V80.0224ZM207.57 82.1557H206.325V75.3714H207.57V82.1557ZM207.849 83.8783H204.377C204.404 84.2228 204.591 84.5629 204.94 84.8986C205.289 85.2299 205.755 85.517 206.338 85.7599C206.926 85.9984 207.57 86.1574 208.273 86.2369L207.849 87.2042C206.93 87.0982 206.106 86.8597 205.378 86.4887C204.649 86.1177 204.101 85.6672 203.734 85.1371C203.372 85.6672 202.822 86.1155 202.085 86.4821C201.352 86.8487 200.517 87.0894 199.58 87.2042L199.143 86.2369C199.845 86.1707 200.492 86.0183 201.084 85.7798C201.676 85.5413 202.149 85.2542 202.502 84.9185C202.86 84.5784 203.052 84.2317 203.079 83.8783H199.62V82.9243H203.105V81.8112H204.351V82.9243H207.849V83.8783ZM222.226 77.1602C222.226 77.9244 222.206 78.6024 222.166 79.1942C222.131 79.7817 222.04 80.4508 221.894 81.2017H223.604V82.2352H218.794V87.2572H217.522V82.2352H212.778V81.2017H220.622C220.781 80.4552 220.881 79.7861 220.921 79.1942C220.96 78.5979 220.98 77.9199 220.98 77.1602V77.147H214.103V76.1134H222.226V77.1602ZM233.992 76.8687C233.992 77.5136 233.975 78.0878 233.939 78.5913C233.908 79.0948 233.824 79.6646 233.688 80.3006H235.37V81.3342H224.505V80.3006H232.415C232.557 79.6823 232.647 79.1258 232.687 78.6311C232.727 78.1364 232.747 77.5931 232.747 77.0012H225.87V75.9677H233.992V76.8687ZM234.006 87.0982H225.83V82.8448H234.006V87.0982ZM227.062 86.0779H232.76V83.8386H227.062V86.0779ZM237.305 88.8606H236.179L236.881 85.2034H238.365L237.305 88.8606ZM71.3008 105.773H60.4353V104.726H65.2188V102.288H61.6809V96.1797H62.9397V98.2203H68.77V96.1797H70.0155V102.288H66.4644V104.726H71.3008V105.773ZM68.77 101.268V99.2406H62.9397V101.268H68.77ZM81.9941 107.27H80.7353V95.3714H81.9941V107.27ZM75.6471 96.2592C76.2345 96.2592 76.7601 96.4315 77.2239 96.776C77.6877 97.1161 78.0498 97.6019 78.3104 98.2335C78.5755 98.8607 78.708 99.5895 78.708 100.42C78.708 101.255 78.5755 101.988 78.3104 102.62C78.0498 103.251 77.6877 103.739 77.2239 104.084C76.7601 104.424 76.2345 104.594 75.6471 104.594C75.0508 104.594 74.5208 104.424 74.057 104.084C73.5932 103.739 73.2288 103.253 72.9638 102.626C72.7032 101.995 72.5729 101.259 72.5729 100.42C72.5729 99.5851 72.7032 98.8541 72.9638 98.2269C73.2288 97.5953 73.5932 97.1094 74.057 96.7693C74.5208 96.4292 75.0508 96.2592 75.6471 96.2592ZM75.6471 97.3855C75.2805 97.3855 74.9558 97.5092 74.6731 97.7565C74.3949 98.0039 74.1784 98.3572 74.0239 98.8166C73.8693 99.2715 73.792 99.806 73.792 100.42C73.792 101.038 73.8693 101.577 74.0239 102.036C74.1784 102.496 74.3949 102.849 74.6731 103.097C74.9558 103.344 75.2805 103.468 75.6471 103.468C76.0092 103.468 76.3295 103.344 76.6077 103.097C76.886 102.849 77.1024 102.496 77.257 102.036C77.4116 101.577 77.4889 101.038 77.4889 100.42C77.4889 99.806 77.4116 99.2715 77.257 98.8166C77.1024 98.3572 76.886 98.0039 76.6077 97.7565C76.3295 97.5092 76.0092 97.3855 75.6471 97.3855ZM89.918 97.0542C89.918 97.6814 90.119 98.291 90.5209 98.8828C90.9273 99.4747 91.4639 99.9804 92.1309 100.4C92.7978 100.815 93.5089 101.091 94.2642 101.228L93.6812 102.275C93.0496 102.138 92.4445 101.913 91.8659 101.599C91.2872 101.286 90.7705 100.904 90.3155 100.453C89.865 99.9981 89.5139 99.4968 89.2621 98.9491C89.0059 99.4924 88.6526 99.9915 88.202 100.446C87.7559 100.897 87.2436 101.279 86.665 101.593C86.0864 101.906 85.479 102.134 84.843 102.275L84.2865 101.228C85.0329 101.087 85.7374 100.809 86.4 100.393C87.0625 99.9738 87.5925 99.4703 87.99 98.8828C88.392 98.291 88.5929 97.6814 88.5929 97.0542V96.1532H89.918V97.0542ZM94.7545 105.68H83.889V104.634H94.7545V105.68ZM105.488 107.244H104.215V95.3714H105.488V107.244ZM102.665 97.624H101.433V103.143C102.122 103.09 102.727 103.035 103.248 102.977L103.314 103.905C102.175 104.086 100.996 104.207 99.7765 104.269C98.5574 104.327 97.2103 104.36 95.735 104.369L95.5893 103.322L97.1529 103.309V97.624H95.9073V96.5905H102.665V97.624ZM98.3719 103.282C99.0477 103.269 99.6572 103.247 100.201 103.216V97.624H98.3719V103.282ZM117.188 102.447H115.929V95.3847H117.188V102.447ZM113.226 102.686C114.047 102.686 114.761 102.776 115.366 102.957C115.975 103.134 116.441 103.392 116.764 103.733C117.091 104.073 117.254 104.479 117.254 104.952C117.254 105.42 117.091 105.822 116.764 106.157C116.437 106.498 115.971 106.756 115.366 106.933C114.761 107.114 114.047 107.204 113.226 107.204C112.396 107.204 111.676 107.114 111.066 106.933C110.461 106.756 109.995 106.498 109.668 106.157C109.346 105.822 109.184 105.42 109.184 104.952C109.184 104.479 109.346 104.073 109.668 103.733C109.995 103.392 110.461 103.134 111.066 102.957C111.676 102.776 112.396 102.686 113.226 102.686ZM113.226 103.68C112.347 103.68 111.662 103.79 111.172 104.011C110.686 104.232 110.443 104.545 110.443 104.952C110.443 105.354 110.686 105.665 111.172 105.886C111.662 106.102 112.347 106.21 113.226 106.21C114.1 106.21 114.783 106.102 115.273 105.886C115.768 105.665 116.017 105.354 116.022 104.952C116.017 104.545 115.768 104.232 115.273 104.011C114.783 103.79 114.1 103.68 113.226 103.68ZM111.662 97.0542C111.658 97.5975 111.773 98.1165 112.007 98.6112C112.245 99.1015 112.588 99.5343 113.034 99.9097C113.48 100.285 114.003 100.57 114.604 100.764L113.981 101.758C113.297 101.524 112.702 101.18 112.199 100.725C111.7 100.27 111.313 99.7331 111.04 99.1147C110.77 99.8037 110.379 100.404 109.867 100.917C109.354 101.429 108.747 101.816 108.045 102.076L107.409 101.069C108.014 100.853 108.54 100.539 108.986 100.128C109.436 99.7132 109.781 99.2406 110.019 98.7106C110.258 98.1761 110.377 97.624 110.377 97.0542V95.9014H111.662V97.0542ZM133.221 101.983H122.382V100.95H133.221V101.983ZM131.962 99.9164H123.734V95.7954H131.883V96.829H124.979V98.8961H131.962V99.9164ZM127.788 102.911C128.641 102.911 129.372 102.995 129.981 103.163C130.595 103.331 131.066 103.578 131.393 103.905C131.719 104.227 131.883 104.616 131.883 105.071C131.883 105.526 131.719 105.914 131.393 106.237C131.066 106.559 130.595 106.805 129.981 106.972C129.367 107.14 128.636 107.222 127.788 107.217C126.936 107.222 126.2 107.14 125.582 106.972C124.964 106.805 124.489 106.559 124.158 106.237C123.831 105.914 123.667 105.526 123.667 105.071C123.667 104.616 123.831 104.227 124.158 103.905C124.489 103.578 124.962 103.331 125.575 103.163C126.194 102.995 126.931 102.911 127.788 102.911ZM127.788 103.878C126.878 103.887 126.176 103.995 125.681 104.203C125.187 104.406 124.939 104.695 124.939 105.071C124.939 105.446 125.187 105.738 125.681 105.945C126.176 106.149 126.878 106.25 127.788 106.25C128.685 106.25 129.381 106.149 129.875 105.945C130.374 105.738 130.624 105.446 130.624 105.071C130.624 104.695 130.377 104.406 129.882 104.203C129.387 103.995 128.689 103.887 127.788 103.878Z" fill="#666E79"/>
<rect x="43.0391" y="155.073" width="303.599" height="106.853" rx="8.48041" fill="white"/>
<rect x="43.8871" y="155.921" width="301.903" height="105.157" rx="7.63237" stroke="#1F64C3" stroke-opacity="0.1" stroke-width="1.69608"/>
<path d="M71.1634 175.398H72.9969V176.948H71.1634V180.079H69.2553V172.208H71.1634V175.398ZM67.377 173.102C67.382 174.3 67.1385 175.378 66.6466 176.337C66.1596 177.296 65.4441 178.116 64.5 178.797C63.5608 179.478 62.4179 180.004 61.0713 180.377L60.3111 178.842C61.7869 178.449 62.9496 177.888 63.7993 177.157C64.654 176.422 65.1559 175.577 65.3049 174.623H60.9521V173.102H67.377ZM66.736 180.243C67.6503 180.243 68.4528 180.357 69.1435 180.586C69.8342 180.809 70.3683 181.13 70.746 181.547C71.1236 181.965 71.3124 182.454 71.3124 183.016C71.3124 183.582 71.1236 184.074 70.746 184.491C70.3683 184.909 69.8342 185.229 69.1435 185.453C68.4528 185.676 67.6503 185.788 66.736 185.788C65.8217 185.788 65.0167 185.676 64.3211 185.453C63.6254 185.229 63.0863 184.906 62.7037 184.484C62.326 184.066 62.1397 183.577 62.1447 183.016C62.1397 182.454 62.326 181.965 62.7037 181.547C63.0863 181.13 63.6254 180.809 64.3211 180.586C65.0167 180.357 65.8217 180.243 66.736 180.243ZM66.736 181.719C65.8714 181.719 65.2006 181.833 64.7236 182.061C64.2515 182.285 64.018 182.603 64.0229 183.016C64.018 183.423 64.254 183.741 64.731 183.97C65.208 184.198 65.8764 184.307 66.736 184.298C67.5807 184.307 68.2416 184.198 68.7186 183.97C69.1957 183.741 69.4342 183.423 69.4342 183.016C69.4342 182.603 69.1957 182.285 68.7186 182.061C68.2466 181.833 67.5857 181.719 66.736 181.719ZM80.1076 177.232H76.0081V178.678C77.0516 178.678 77.9088 178.655 78.5796 178.61C79.2554 178.561 79.9287 178.474 80.5995 178.35L80.7784 179.87C80.0281 180.004 79.2529 180.094 78.4529 180.138C77.6578 180.178 76.5547 180.198 75.1435 180.198H74.1299V175.815H78.1995V174.489H74.1V172.998H80.1076V177.232ZM85.0269 180.571H83.1337V178.484H80.8827V176.978H83.1337V175.607H80.8827V174.101H83.1337V172.223H85.0269V180.571ZM85.0269 185.773H83.1337V182.702H75.6802V181.182H85.0269V185.773ZM89.2753 174.787H91.9437V172.983H93.822V175.428H96.3263V172.208H98.2195V180.064H96.3263V176.978H93.822V179.483H87.3673V172.983H89.2753V174.787ZM91.9437 177.962V176.263H89.2753V177.962H91.9437ZM98.2195 185.624H89.0965V180.601H98.2195V185.624ZM91.0046 184.104H96.3562V182.121H91.0046V184.104ZM108.162 174.906H105.382C105.417 175.373 105.559 175.823 105.807 176.255C106.061 176.687 106.426 177.073 106.903 177.41C107.385 177.748 107.969 178.007 108.654 178.186L107.745 179.647C106.97 179.443 106.302 179.125 105.74 178.692C105.184 178.26 104.746 177.743 104.428 177.142C104.105 177.783 103.653 178.335 103.072 178.797C102.495 179.254 101.802 179.592 100.992 179.811L100.098 178.35C100.789 178.166 101.375 177.9 101.857 177.552C102.339 177.199 102.709 176.797 102.967 176.345C103.226 175.892 103.375 175.413 103.415 174.906H100.649V173.386H108.162V174.906ZM105.375 181.495C106.572 181.425 107.685 181.311 108.714 181.152L108.863 182.568C107.531 182.817 106.172 182.978 104.786 183.053C103.4 183.127 101.892 183.165 100.262 183.165L100.038 181.629C101.325 181.629 102.463 181.614 103.452 181.584V179.184H105.375V181.495ZM111.382 185.803H109.489V172.208H111.382V185.803Z" fill="#1F64C3"/>
<path d="M69.7638 205.161H71.4996V206.208H69.7638V208.778H68.505V202.59H69.7638V205.161ZM62.2374 207.228C63.1252 207.219 63.9865 207.177 64.8213 207.102C65.6561 207.027 66.4997 206.901 67.3522 206.724L67.5112 207.771C65.7002 208.107 63.8452 208.275 61.9459 208.275H60.9786V203.12H62.2374V207.228ZM63.377 210.832H68.505V209.375H69.7638V214.304H62.1447V209.375H63.377V210.832ZM68.505 213.283V211.852H63.377V213.283H68.505ZM81.9941 214.45H80.7353V202.577H81.9941V214.45ZM76.6276 206.393C76.6276 207.02 76.7579 207.641 77.0185 208.255C77.2791 208.864 77.6435 209.412 78.1117 209.898C78.5843 210.379 79.1231 210.748 79.7283 211.004L79.0392 211.972C78.359 211.676 77.7561 211.236 77.2305 210.653C76.7093 210.07 76.3096 209.401 76.0313 208.646C75.7575 209.45 75.36 210.161 74.8388 210.779C74.322 211.397 73.7213 211.861 73.0367 212.17L72.3344 211.203C72.9395 210.934 73.474 210.547 73.9377 210.044C74.4015 209.54 74.7593 208.97 75.011 208.334C75.2672 207.698 75.3953 207.051 75.3953 206.393V205.611H72.6922V204.604H75.382V202.815H76.6276V204.604H79.291V205.611H76.6276V206.393ZM93.4692 208.208H87.8244V203.332H93.4692V208.208ZM89.0567 207.228H92.2236V204.339H89.0567V207.228ZM97.0336 209.361H95.788V202.577H97.0336V209.361ZM97.3119 211.084H93.8402C93.8667 211.428 94.0544 211.768 94.4034 212.104C94.7523 212.435 95.2183 212.723 95.8013 212.965C96.3887 213.204 97.0336 213.363 97.7359 213.442L97.3119 214.41C96.3932 214.304 95.5694 214.065 94.8406 213.694C94.1118 213.323 93.5641 212.873 93.1975 212.343C92.8354 212.873 92.2855 213.321 91.5478 213.688C90.8146 214.054 89.9798 214.295 89.0435 214.41L88.6062 213.442C89.3085 213.376 89.9556 213.224 90.5474 212.985C91.1393 212.747 91.6119 212.46 91.9652 212.124C92.323 211.784 92.5151 211.437 92.5416 211.084H89.0832V210.13H92.5681V209.017H93.8137V210.13H97.3119V211.084ZM111.57 205.373H113.292V206.42H111.57V209.282H110.311V202.577H111.57V205.373ZM108.297 203.319C108.292 204.326 108.069 205.234 107.627 206.042C107.19 206.85 106.554 207.542 105.719 208.116C104.885 208.69 103.875 209.136 102.692 209.454L102.188 208.447C103.124 208.2 103.933 207.875 104.613 207.473C105.298 207.067 105.836 206.601 106.23 206.075C106.623 205.545 106.857 204.971 106.932 204.353H102.745V203.319H108.297ZM111.57 214.291H103.964V209.785H111.57V214.291ZM105.223 213.283H110.324V210.832H105.223V213.283ZM123.455 204.074C123.455 204.719 123.438 205.293 123.402 205.797C123.371 206.3 123.288 206.87 123.151 207.506H124.833V208.54H113.968V207.506H121.879C122.02 206.888 122.11 206.331 122.15 205.837C122.19 205.342 122.21 204.799 122.21 204.207H115.333V203.173H123.455V204.074ZM123.469 214.304H115.293V210.05H123.469V214.304ZM116.525 213.283H122.223V211.044H116.525V213.283ZM126.768 216.066H125.642L126.344 212.409H127.828L126.768 216.066ZM138.482 211.468H132.93V203.756H138.482V211.468ZM134.162 210.448H137.236V204.75H134.162V210.448ZM141.728 207.228H143.636V208.288H141.728V214.45H140.469V202.577H141.728V207.228ZM155.217 205.346H153.534V206.857H155.217V207.917H153.534V209.613H152.276V202.577H153.534V204.313H155.217V205.346ZM153.534 214.45H152.276V211.163H145.69V210.143H153.534V214.45ZM147.545 203.266C148.146 203.266 148.685 203.387 149.162 203.63C149.643 203.869 150.021 204.205 150.295 204.637C150.568 205.066 150.708 205.554 150.712 206.102C150.708 206.649 150.568 207.14 150.295 207.572C150.021 208.001 149.643 208.337 149.162 208.58C148.685 208.818 148.146 208.937 147.545 208.937C146.944 208.937 146.403 208.818 145.922 208.58C145.44 208.337 145.063 208.001 144.789 207.572C144.52 207.14 144.387 206.649 144.391 206.102C144.387 205.554 144.52 205.066 144.789 204.637C145.063 204.205 145.44 203.869 145.922 203.63C146.403 203.387 146.944 203.266 147.545 203.266ZM147.545 204.339C147.174 204.339 146.843 204.414 146.551 204.565C146.26 204.71 146.03 204.916 145.862 205.181C145.699 205.446 145.619 205.753 145.624 206.102C145.619 206.455 145.699 206.766 145.862 207.036C146.03 207.301 146.26 207.506 146.551 207.652C146.843 207.798 147.174 207.868 147.545 207.864C147.916 207.868 148.247 207.798 148.539 207.652C148.835 207.506 149.064 207.301 149.228 207.036C149.396 206.766 149.48 206.455 149.48 206.102C149.48 205.753 149.396 205.446 149.228 205.181C149.064 204.911 148.835 204.704 148.539 204.558C148.247 204.412 147.916 204.339 147.545 204.339ZM170.111 212.939H159.245V211.905H164.002V209.083H165.248V211.905H170.111V212.939ZM165.274 204.233C165.274 204.843 165.475 205.435 165.877 206.009C166.284 206.579 166.82 207.065 167.487 207.466C168.159 207.868 168.874 208.133 169.634 208.261L169.091 209.295C168.446 209.167 167.83 208.955 167.242 208.659C166.659 208.359 166.138 207.99 165.679 207.553C165.224 207.115 164.868 206.629 164.612 206.095C164.356 206.629 164 207.118 163.545 207.559C163.095 207.996 162.578 208.365 161.995 208.666C161.416 208.962 160.809 209.171 160.173 209.295L159.616 208.261C160.372 208.133 161.081 207.868 161.743 207.466C162.41 207.065 162.945 206.579 163.346 206.009C163.748 205.435 163.949 204.843 163.949 204.233V203.332H165.274V204.233ZM175.345 206.075C175.345 206.733 175.477 207.385 175.742 208.03C176.012 208.674 176.383 209.251 176.855 209.759C177.333 210.262 177.871 210.642 178.472 210.898L177.783 211.879C177.09 211.574 176.476 211.115 175.941 210.501C175.407 209.882 175 209.174 174.722 208.374C174.444 209.227 174.035 209.991 173.496 210.666C172.962 211.342 172.355 211.848 171.674 212.184L170.946 211.19C171.529 210.916 172.059 210.507 172.536 209.964C173.013 209.417 173.386 208.8 173.655 208.116C173.929 207.427 174.068 206.747 174.073 206.075V204.816H171.356V203.77H178.048V204.816H175.345V206.075ZM180.804 214.45H179.545V202.577H180.804V214.45ZM192.279 208.208H186.634V203.332H192.279V208.208ZM187.867 207.228H191.034V204.339H187.867V207.228ZM195.844 209.361H194.598V202.577H195.844V209.361ZM196.122 211.084H192.65C192.677 211.428 192.864 211.768 193.213 212.104C193.562 212.435 194.028 212.723 194.611 212.965C195.199 213.204 195.844 213.363 196.546 213.442L196.122 214.41C195.203 214.304 194.379 214.065 193.651 213.694C192.922 213.323 192.374 212.873 192.008 212.343C191.645 212.873 191.096 213.321 190.358 213.688C189.625 214.054 188.79 214.295 187.854 214.41L187.416 213.442C188.119 213.376 188.766 213.224 189.357 212.985C189.949 212.747 190.422 212.46 190.775 212.124C191.133 211.784 191.325 211.437 191.352 211.084H187.893V210.13H191.378V209.017H192.624V210.13H196.122V211.084ZM211.877 209.653H201.051V208.633H205.835V207.347H202.469V202.855H203.715V204.141H209.214V202.855H210.472V207.347H207.08V208.633H211.877V209.653ZM210.552 214.45H209.28V211.72H202.257V210.713H210.552V214.45ZM209.214 206.34V205.081H203.715V206.34H209.214ZM223.604 209.388H212.778V208.368H215.375V206.771C214.911 206.581 214.556 206.338 214.308 206.042C214.066 205.742 213.944 205.399 213.944 205.015C213.944 204.551 214.114 204.154 214.454 203.823C214.799 203.487 215.289 203.231 215.925 203.054C216.565 202.877 217.319 202.789 218.184 202.789C219.05 202.789 219.801 202.877 220.437 203.054C221.073 203.231 221.563 203.487 221.908 203.823C222.252 204.154 222.424 204.551 222.424 205.015C222.424 205.404 222.299 205.748 222.047 206.049C221.799 206.345 221.444 206.585 220.98 206.771V208.368H223.604V209.388ZM218.184 210.196C219.037 210.196 219.768 210.278 220.377 210.441C220.991 210.605 221.462 210.845 221.788 211.163C222.115 211.477 222.279 211.857 222.279 212.303C222.279 212.758 222.115 213.142 221.788 213.456C221.466 213.774 220.998 214.014 220.384 214.178C219.77 214.341 219.037 214.423 218.184 214.423C217.323 214.423 216.583 214.341 215.965 214.178C215.351 214.014 214.88 213.774 214.554 213.456C214.227 213.142 214.063 212.758 214.063 212.303C214.063 211.857 214.227 211.477 214.554 211.163C214.88 210.845 215.351 210.605 215.965 210.441C216.583 210.278 217.323 210.196 218.184 210.196ZM218.184 211.163C217.274 211.163 216.572 211.263 216.077 211.462C215.583 211.66 215.335 211.941 215.335 212.303C215.335 212.674 215.583 212.961 216.077 213.164C216.577 213.363 217.279 213.46 218.184 213.456C219.081 213.465 219.777 213.367 220.271 213.164C220.77 212.961 221.02 212.674 221.02 212.303C221.02 211.941 220.77 211.66 220.271 211.462C219.777 211.263 219.081 211.163 218.184 211.163ZM218.184 203.756C217.575 203.756 217.047 203.807 216.601 203.909C216.159 204.006 215.821 204.149 215.587 204.339C215.353 204.529 215.238 204.754 215.243 205.015C215.238 205.276 215.353 205.501 215.587 205.691C215.821 205.876 216.159 206.018 216.601 206.115C217.042 206.212 217.57 206.261 218.184 206.261C219.107 206.261 219.827 206.152 220.344 205.936C220.865 205.72 221.126 205.413 221.126 205.015C221.126 204.75 221.009 204.525 220.775 204.339C220.541 204.149 220.203 204.006 219.761 203.909C219.319 203.807 218.794 203.756 218.184 203.756ZM219.735 208.368V207.102C219.258 207.177 218.741 207.215 218.184 207.215C217.654 207.215 217.142 207.179 216.647 207.109V208.368H219.735ZM225.578 216.066H224.452L225.154 212.409H226.638L225.578 216.066ZM65.2983 224.989H62.0651V227.175H64.7683V228.155H62.0651V230.647C62.8558 230.638 63.5338 230.611 64.0991 230.567C64.6689 230.523 65.2541 230.448 65.8548 230.342L65.9608 231.362C65.3292 231.49 64.7087 231.574 64.0991 231.614C63.4896 231.649 62.6658 231.667 61.6279 231.667H60.8593V223.982H65.2983V224.989ZM70.6383 234.45H69.4193V222.577H70.6383V234.45ZM68.1869 233.853H66.9944V228.049H65.3911V227.029H66.9944V222.829H68.1869V233.853ZM82.0471 234.476H80.8016V228.089H78.6285V227.042H80.8016V222.577H82.0471V234.476ZM77.9262 227.89H73.8582V230.594C74.8918 230.589 75.7884 230.563 76.5481 230.514C77.3122 230.461 78.0852 230.364 78.867 230.223L78.973 231.256C78.1426 231.406 77.3166 231.508 76.4951 231.561C75.678 231.614 74.693 231.645 73.5402 231.654H72.5994V226.87H76.7071V224.671H72.5729V223.65H77.9262V227.89ZM93.4692 228.208H87.8244V223.332H93.4692V228.208ZM89.0567 227.228H92.2236V224.339H89.0567V227.228ZM97.0336 229.361H95.788V222.577H97.0336V229.361ZM97.3119 231.084H93.8402C93.8667 231.428 94.0544 231.768 94.4034 232.104C94.7523 232.435 95.2183 232.723 95.8013 232.965C96.3887 233.204 97.0336 233.363 97.7359 233.442L97.3119 234.41C96.3932 234.304 95.5694 234.065 94.8406 233.694C94.1118 233.323 93.5641 232.873 93.1975 232.343C92.8354 232.873 92.2855 233.321 91.5478 233.688C90.8146 234.054 89.9798 234.295 89.0435 234.41L88.6062 233.442C89.3085 233.376 89.9556 233.224 90.5474 232.985C91.1393 232.747 91.6119 232.46 91.9652 232.124C92.323 231.784 92.5151 231.437 92.5416 231.084H89.0832V230.13H92.5681V229.017H93.8137V230.13H97.3119V231.084ZM112.047 224.021H110.324V226.406H111.994V227.4H108.27V228.725H113.067V229.746H102.241V228.725H107.025V227.4H103.288V226.406H104.971V224.021H103.235V222.988H112.047V224.021ZM111.742 234.45H110.47V231.826H103.447V230.806H111.742V234.45ZM109.065 226.406V224.021H106.216V226.406H109.065ZM115.664 224.697H118.778V223.08H120.023V228.261H114.432V223.08H115.664V224.697ZM118.778 227.254V225.664H115.664V227.254H118.778ZM123.296 225.068H125.019V226.088H123.296V228.686H122.038V222.577H123.296V225.068ZM123.296 232.197H116.883V233.323H123.707V234.33H115.651V231.269H122.051V230.196H115.624V229.202H123.296V232.197ZM139.846 229.189H129.007V228.155H139.846V229.189ZM138.588 227.122H130.359V223.001H138.508V224.035H131.605V226.102H138.588V227.122ZM134.414 230.117C135.266 230.117 135.997 230.201 136.607 230.368C137.221 230.536 137.691 230.784 138.018 231.11C138.345 231.433 138.508 231.822 138.508 232.276C138.508 232.731 138.345 233.12 138.018 233.442C137.691 233.765 137.221 234.01 136.607 234.178C135.993 234.346 135.262 234.427 134.414 234.423C133.561 234.427 132.826 234.346 132.207 234.178C131.589 234.01 131.114 233.765 130.783 233.442C130.456 233.12 130.293 232.731 130.293 232.276C130.293 231.822 130.456 231.433 130.783 231.11C131.114 230.784 131.587 230.536 132.201 230.368C132.819 230.201 133.557 230.117 134.414 230.117ZM134.414 231.084C133.504 231.093 132.802 231.201 132.307 231.409C131.812 231.612 131.565 231.901 131.565 232.276C131.565 232.652 131.812 232.943 132.307 233.151C132.802 233.354 133.504 233.456 134.414 233.456C135.31 233.456 136.006 233.354 136.501 233.151C137 232.943 137.249 232.652 137.249 232.276C137.249 231.901 137.002 231.612 136.507 231.409C136.013 231.201 135.315 231.093 134.414 231.084Z" fill="#666E79"/>
<rect x="43.0391" y="282.28" width="303.599" height="106.853" rx="8.48041" fill="white"/>
<rect x="43.8871" y="283.128" width="301.903" height="105.157" rx="7.63237" stroke="#1F64C3" stroke-opacity="0.1" stroke-width="1.69608"/>
<path d="M65.3944 302.485C65.3894 303.315 65.5062 304.12 65.7447 304.9C65.9832 305.675 66.3434 306.371 66.8254 306.987C67.3074 307.603 67.8987 308.08 68.5994 308.418L67.4515 309.938C66.7459 309.59 66.1422 309.101 65.6403 308.47C65.1434 307.839 64.7484 307.099 64.4552 306.249C64.1521 307.153 63.7322 307.946 63.1956 308.627C62.6639 309.302 62.0254 309.824 61.28 310.192L60.1024 308.656C60.8428 308.318 61.4664 307.829 61.9732 307.188C62.4801 306.542 62.8577 305.814 63.1062 305.004C63.3596 304.189 63.4863 303.349 63.4863 302.485V300.457H65.3944V302.485ZM71.1037 304.646H73.1013V306.256H71.1037V312.979H69.1957V299.414H71.1037V304.646ZM84.7734 301.874C84.7734 302.644 84.7635 303.317 84.7436 303.894C84.7287 304.465 84.679 305.131 84.5946 305.891C84.5151 306.646 84.3908 307.469 84.2219 308.358L82.3138 308.164C82.5424 307.031 82.6889 306.013 82.7535 305.108C82.8181 304.204 82.8554 303.2 82.8653 302.097H74.8752V300.592H84.7734V301.874ZM85.966 311.325H73.5932V309.774H78.0206V305.108H79.9138V309.774H85.966V311.325ZM97.6233 305.943H90.9896V300.234H97.6233V305.943ZM92.8679 304.453H95.7301V301.71H92.8679V304.453ZM101.648 307.106H99.755V299.414H101.648V307.106ZM101.887 309.268H98.0854C98.1599 309.59 98.3711 309.909 98.7189 310.222C99.0717 310.535 99.5612 310.808 100.187 311.041C100.818 311.275 101.559 311.434 102.408 311.518L101.767 312.95C100.674 312.85 99.7251 312.614 98.9202 312.241C98.1202 311.869 97.5065 311.407 97.0791 310.855C96.6518 311.412 96.0357 311.874 95.2307 312.241C94.4257 312.609 93.4692 312.845 92.3611 312.95L91.7052 311.518C92.5698 311.449 93.3176 311.3 93.9487 311.071C94.5797 310.838 95.0717 310.562 95.4245 310.244C95.7773 309.926 95.9885 309.6 96.058 309.268H92.2567V307.851H96.1176V306.733H98.0257V307.851H101.887V309.268ZM111.412 300.323C112.118 300.318 112.756 300.46 113.328 300.748C113.904 301.031 114.354 301.426 114.677 301.933C115.005 302.44 115.169 303.012 115.169 303.648C115.169 304.289 115.005 304.863 114.677 305.369C114.354 305.876 113.907 306.274 113.335 306.562C112.764 306.845 112.123 306.987 111.412 306.987C110.702 306.987 110.058 306.845 109.482 306.562C108.91 306.274 108.461 305.876 108.133 305.369C107.805 304.863 107.641 304.289 107.641 303.648C107.641 303.012 107.805 302.44 108.133 301.933C108.461 301.426 108.913 301.031 109.489 300.748C110.066 300.46 110.707 300.318 111.412 300.323ZM111.412 301.963C111.054 301.963 110.731 302.03 110.443 302.164C110.155 302.299 109.929 302.495 109.765 302.753C109.606 303.007 109.529 303.305 109.534 303.648C109.529 303.995 109.606 304.296 109.765 304.549C109.929 304.803 110.153 304.997 110.436 305.131C110.724 305.265 111.049 305.332 111.412 305.332C111.775 305.332 112.098 305.265 112.381 305.131C112.669 304.997 112.895 304.803 113.059 304.549C113.228 304.296 113.315 303.995 113.32 303.648C113.315 303.3 113.231 302.999 113.067 302.746C112.903 302.492 112.677 302.299 112.389 302.164C112.1 302.03 111.775 301.963 111.412 301.963ZM118.418 313.009H116.525V299.414H118.418V313.009ZM107.82 308.686C111.005 308.686 113.648 308.542 115.75 308.254L115.899 309.625C114.568 309.884 113.208 310.05 111.822 310.125C110.436 310.199 108.928 310.236 107.298 310.236L107.074 308.686H107.82ZM132.625 311.474H120.207V309.909H123.383V307.836H121.638V303.275H129.315V301.814H121.623V300.294H131.194V304.795H123.546V306.301H131.507V307.836H129.584V309.909H132.625V311.474ZM127.72 309.909V307.836H125.231V309.909H127.72Z" fill="#1F64C3"/>
<path d="M69.7638 333.215H71.4996V334.262H69.7638V338.37H68.505V329.77H69.7638V333.215ZM66.2656 331.811H62.2109V335.269H62.4892C63.589 335.269 64.4922 335.243 65.1989 335.19C65.91 335.137 66.6145 335.04 67.3124 334.898L67.4582 335.919C66.6764 336.073 65.8835 336.179 65.0797 336.237C64.2758 336.29 63.218 336.316 61.9061 336.316H60.9653V330.791H66.2656V331.811ZM70.2673 341.404H62.2374V337.482H63.4962V340.384H70.2673V341.404ZM78.2177 330.605C78.2177 331.091 78.4054 331.564 78.7808 332.023C79.1607 332.478 79.6686 332.869 80.3047 333.196C80.9451 333.522 81.6364 333.741 82.3784 333.851L81.8881 334.845C81.2609 334.744 80.6668 334.571 80.1059 334.328C79.545 334.081 79.0459 333.779 78.6086 333.421C78.1757 333.063 77.8334 332.666 77.5817 332.228C77.3343 332.674 76.992 333.079 76.5547 333.441C76.1175 333.803 75.6161 334.105 75.0508 334.348C74.4898 334.591 73.8936 334.766 73.2619 334.872L72.7849 333.878C73.5314 333.763 74.2204 333.544 74.852 333.222C75.4881 332.895 75.9938 332.502 76.3692 332.043C76.7447 331.583 76.9324 331.104 76.9324 330.605V330.088H78.2177V330.605ZM83.0144 336.78H78.2972V339.072H77.0516V336.78H72.1489V335.76H83.0144V336.78ZM81.8086 341.404H73.5005V337.959H74.7593V340.384H81.8086V341.404ZM91.3226 332.805C91.3182 333.503 91.4418 334.192 91.6936 334.872C91.9454 335.548 92.2965 336.155 92.747 336.694C93.202 337.228 93.7209 337.637 94.304 337.919L93.5222 338.926C92.8862 338.595 92.323 338.116 91.8327 337.489C91.3469 336.862 90.9714 336.146 90.7064 335.342C90.437 336.199 90.0483 336.963 89.5404 337.635C89.0368 338.301 88.4516 338.807 87.7847 339.152L87.0029 338.131C87.5991 337.844 88.1292 337.42 88.5929 336.859C89.0611 336.298 89.4233 335.662 89.6795 334.951C89.9357 334.24 90.0638 333.525 90.0638 332.805V330.777H91.3226V332.805ZM96.4506 334.514H98.3587V335.587H96.4506V341.656H95.1918V329.784H96.4506V334.514ZM109.794 340.146H98.9284V339.112H103.685V336.29H104.931V339.112H109.794V340.146ZM104.957 331.44C104.957 332.049 105.158 332.641 105.56 333.215C105.967 333.785 106.503 334.271 107.17 334.673C107.842 335.075 108.557 335.34 109.317 335.468L108.774 336.502C108.129 336.373 107.513 336.161 106.925 335.866C106.342 335.565 105.821 335.196 105.362 334.759C104.907 334.322 104.551 333.836 104.295 333.302C104.039 333.836 103.683 334.324 103.228 334.766C102.778 335.203 102.261 335.572 101.678 335.872C101.099 336.168 100.492 336.378 99.856 336.502L99.2995 335.468C100.055 335.34 100.764 335.075 101.426 334.673C102.093 334.271 102.628 333.785 103.03 333.215C103.431 332.641 103.632 332.049 103.632 331.44V330.539H104.957V331.44ZM120.235 335.415H114.591V330.539H120.235V335.415ZM115.823 334.434H118.99V331.546H115.823V334.434ZM123.8 336.568H122.554V329.784H123.8V336.568ZM124.078 338.29H120.607C120.633 338.635 120.821 338.975 121.17 339.311C121.519 339.642 121.985 339.929 122.568 340.172C123.155 340.411 123.8 340.57 124.502 340.649L124.078 341.616C123.159 341.51 122.336 341.272 121.607 340.901C120.878 340.53 120.33 340.079 119.964 339.549C119.602 340.079 119.052 340.528 118.314 340.894C117.581 341.261 116.746 341.501 115.81 341.616L115.372 340.649C116.075 340.583 116.722 340.43 117.314 340.192C117.906 339.953 118.378 339.666 118.732 339.331C119.089 338.991 119.281 338.644 119.308 338.29H115.85V337.336H119.334V336.223H120.58V337.336H124.078V338.29ZM138.336 332.712H140.058V333.772H138.336V336.727H137.077V329.784H138.336V332.712ZM135.05 330.512C135.05 331.524 134.829 332.434 134.387 333.242C133.95 334.05 133.314 334.739 132.479 335.309C131.644 335.879 130.637 336.316 129.458 336.621L128.941 335.654C129.882 335.406 130.695 335.082 131.379 334.68C132.068 334.273 132.609 333.803 133.002 333.268C133.396 332.734 133.627 332.155 133.698 331.533H129.511V330.512H135.05ZM138.336 341.656H137.077V338.264H130.491V337.244H138.336V341.656ZM146.763 335.614H151.56V336.647H140.734V335.614H145.518V334.01H146.763V335.614ZM146.141 337.509C146.997 337.509 147.731 337.588 148.34 337.747C148.954 337.906 149.422 338.14 149.745 338.449C150.072 338.759 150.235 339.134 150.235 339.576C150.235 340.013 150.072 340.386 149.745 340.695C149.422 341.005 148.954 341.239 148.34 341.398C147.726 341.557 146.993 341.634 146.141 341.63C145.279 341.634 144.539 341.557 143.921 341.398C143.307 341.239 142.837 341.005 142.51 340.695C142.183 340.386 142.02 340.013 142.02 339.576C142.02 339.134 142.183 338.759 142.51 338.449C142.837 338.14 143.307 337.906 143.921 337.747C144.539 337.588 145.279 337.509 146.141 337.509ZM146.141 338.476C145.222 338.476 144.517 338.571 144.027 338.761C143.537 338.946 143.292 339.218 143.292 339.576C143.292 339.934 143.537 340.207 144.027 340.397C144.517 340.583 145.222 340.676 146.141 340.676C147.046 340.676 147.744 340.583 148.234 340.397C148.729 340.207 148.976 339.934 148.976 339.576C148.976 339.218 148.729 338.946 148.234 338.761C147.744 338.571 147.046 338.476 146.141 338.476ZM150.593 331.334H146.989C147.046 331.705 147.256 332.054 147.618 332.381C147.985 332.707 148.462 332.981 149.049 333.202C149.641 333.423 150.292 333.569 151.003 333.639L150.553 334.633C149.502 334.514 148.583 334.249 147.797 333.838C147.011 333.427 146.459 332.911 146.141 332.288C145.822 332.906 145.27 333.423 144.484 333.838C143.698 334.249 142.784 334.514 141.741 334.633L141.291 333.639C141.997 333.569 142.645 333.425 143.232 333.209C143.819 332.988 144.294 332.714 144.656 332.387C145.023 332.06 145.235 331.709 145.292 331.334H141.728V330.327H150.593V331.334ZM159.643 330.632C160.261 330.627 160.816 330.744 161.306 330.983C161.796 331.221 162.178 331.557 162.452 331.99C162.73 332.418 162.872 332.906 162.876 333.454C162.872 334.002 162.73 334.492 162.452 334.925C162.178 335.353 161.796 335.689 161.306 335.932C160.816 336.17 160.261 336.29 159.643 336.29C159.025 336.29 158.468 336.17 157.973 335.932C157.483 335.689 157.099 335.353 156.821 334.925C156.542 334.492 156.405 334.002 156.41 333.454C156.405 332.906 156.542 332.418 156.821 331.99C157.099 331.557 157.483 331.221 157.973 330.983C158.468 330.744 159.025 330.627 159.643 330.632ZM159.643 331.718C159.259 331.718 158.914 331.791 158.609 331.937C158.309 332.078 158.073 332.281 157.9 332.546C157.733 332.807 157.651 333.109 157.655 333.454C157.651 333.798 157.733 334.103 157.9 334.368C158.073 334.629 158.309 334.832 158.609 334.978C158.914 335.119 159.259 335.19 159.643 335.19C160.027 335.19 160.369 335.119 160.67 334.978C160.975 334.832 161.213 334.629 161.385 334.368C161.558 334.103 161.644 333.798 161.644 333.454C161.644 333.109 161.558 332.807 161.385 332.546C161.213 332.281 160.975 332.078 160.67 331.937C160.369 331.791 160.027 331.718 159.643 331.718ZM165.592 341.683H164.334V329.784H165.592V341.683ZM155.84 338.078C157.306 338.078 158.676 338.054 159.948 338.006C161.224 337.953 162.439 337.844 163.592 337.681L163.684 338.595C162.501 338.825 161.297 338.971 160.074 339.032C158.854 339.094 157.496 339.125 155.999 339.125L155.84 338.078ZM178.366 340.238H167.501V339.178H170.469V337.085H168.826V333.308H175.795V331.652H168.799V330.618H177.041V334.328H170.071V336.051H177.319V337.085H175.517V339.178H178.366V340.238ZM174.285 339.178V337.085H171.688V339.178H174.285ZM183.481 331.89C183.481 332.389 183.596 332.875 183.825 333.348C184.055 333.821 184.386 334.242 184.819 334.613C185.252 334.984 185.76 335.269 186.343 335.468L185.694 336.449C185.04 336.219 184.468 335.881 183.978 335.435C183.492 334.984 183.119 334.461 182.858 333.865C182.597 334.527 182.211 335.108 181.699 335.607C181.191 336.102 180.588 336.471 179.89 336.714L179.241 335.72C179.837 335.517 180.358 335.218 180.804 334.825C181.25 334.428 181.593 333.975 181.831 333.467C182.074 332.959 182.196 332.438 182.196 331.904V331.572H179.625V330.552H186.025V331.572H183.481V331.89ZM189.126 341.656H187.867V338.502H181.082V337.482H189.126V341.656ZM189.126 336.886H187.867V333.838H185.667V332.805H187.867V329.784H189.126V336.886ZM204.457 341.656H203.251V335.521H201.714V341.047H200.561V330.022H201.714V334.487H203.251V329.784H204.457V341.656ZM199.117 332.235H195.923V337.734C196.701 337.725 197.381 337.699 197.964 337.654C198.551 337.61 199.148 337.531 199.753 337.416L199.845 338.449C199.178 338.586 198.52 338.679 197.871 338.728C197.222 338.772 196.418 338.798 195.459 338.807H194.664V331.215H199.117V332.235ZM215.905 341.683H214.646V335.508H212.195V334.487H214.646V329.784H215.905V341.683ZM210.207 333.6C210.207 334.222 210.333 334.839 210.585 335.448C210.837 336.058 211.192 336.605 211.652 337.091C212.111 337.573 212.641 337.946 213.242 338.211L212.539 339.178C211.868 338.882 211.278 338.443 210.771 337.86C210.263 337.272 209.874 336.601 209.604 335.846C209.339 336.65 208.953 337.363 208.445 337.986C207.942 338.604 207.354 339.068 206.683 339.377L205.994 338.41C206.581 338.14 207.1 337.754 207.551 337.25C208.001 336.742 208.348 336.17 208.591 335.534C208.838 334.898 208.962 334.253 208.962 333.6V332.818H206.325V331.811H208.975V330.022H210.234V331.811H212.804V332.818H210.207V333.6ZM226.969 334.514H228.811V335.561H226.969V341.643H225.711V329.784H226.969V334.514ZM223.869 331.029C223.86 332.84 223.42 334.465 222.55 335.905C221.68 337.345 220.309 338.529 218.436 339.456L217.734 338.476C219.218 337.734 220.364 336.828 221.172 335.76C221.985 334.691 222.455 333.463 222.583 332.076H218.33V331.029H223.869ZM70.307 355.919H69.035V349.784H70.307V355.919ZM70.307 359.403H63.695V360.53H70.7178V361.537H62.4627V358.489H69.0615V357.456H62.4229V356.462H70.307V359.403ZM67.4052 351.559H66.2656V354.368C66.8619 354.328 67.4228 354.275 67.9484 354.209L68.0014 355.124C66.0668 355.415 63.6596 355.561 60.7798 355.561L60.6341 354.554L62.0784 354.54V351.559H60.9521V350.565H67.4052V351.559ZM63.2842 354.514C64.0837 354.487 64.6755 354.463 65.0598 354.441V351.559H63.2842V354.514ZM83.0277 360.172H72.1621V359.125H74.7593V356.025C74.2646 355.751 73.8803 355.404 73.6065 354.984C73.3326 354.565 73.1957 354.094 73.1957 353.573C73.1957 352.959 73.3812 352.418 73.7522 351.95C74.1277 351.482 74.6466 351.12 75.3092 350.863C75.9717 350.603 76.7248 350.473 77.5684 350.473C78.4164 350.473 79.1717 350.603 79.8343 350.863C80.5012 351.12 81.0202 351.482 81.3912 351.95C81.7667 352.418 81.9544 352.959 81.9544 353.573C81.9544 354.09 81.8219 354.556 81.5568 354.971C81.2918 355.382 80.9164 355.724 80.4305 355.998V359.125H83.0277V360.172ZM77.5684 351.48C76.95 351.48 76.4023 351.566 75.9253 351.738C75.4483 351.906 75.0773 352.149 74.8123 352.467C74.5473 352.78 74.4147 353.149 74.4147 353.573C74.4147 353.993 74.5473 354.362 74.8123 354.68C75.0773 354.998 75.4483 355.245 75.9253 355.422C76.4023 355.594 76.95 355.68 77.5684 355.68C78.1824 355.68 78.7278 355.594 79.2049 355.422C79.6863 355.245 80.0617 354.998 80.3312 354.68C80.6006 354.362 80.7353 353.993 80.7353 353.573C80.7353 353.154 80.6006 352.785 80.3312 352.467C80.0662 352.149 79.6929 351.906 79.2115 351.738C78.7345 351.566 78.1868 351.48 77.5684 351.48ZM79.1585 359.125V356.482C78.677 356.601 78.147 356.661 77.5684 356.661C77.0119 356.661 76.4907 356.603 76.0048 356.488V359.125H79.1585ZM93.2174 353.613H94.94V354.66H93.2174V358.675H91.9586V349.797H93.2174V353.613ZM90.9781 352.195H83.9022V351.175H86.8174V349.784H88.0762V351.175H90.9781V352.195ZM87.4401 352.765C88.0055 352.765 88.5046 352.858 88.9375 353.043C89.3747 353.229 89.7126 353.491 89.9511 353.832C90.1941 354.167 90.3155 354.558 90.3155 355.004C90.3155 355.45 90.1941 355.841 89.9511 356.177C89.7126 356.513 89.3747 356.773 88.9375 356.959C88.5046 357.14 88.0055 357.23 87.4401 357.23C86.8704 357.23 86.3668 357.14 85.9296 356.959C85.4923 356.773 85.1522 356.513 84.9093 356.177C84.6708 355.841 84.5515 355.45 84.5515 355.004C84.5515 354.558 84.6708 354.167 84.9093 353.832C85.1522 353.491 85.4923 353.229 85.9296 353.043C86.3668 352.858 86.8704 352.765 87.4401 352.765ZM87.4401 353.732C87.1045 353.732 86.8085 353.785 86.5523 353.891C86.3006 353.993 86.1062 354.141 85.9693 354.335C85.8324 354.525 85.7661 354.748 85.7706 355.004C85.7661 355.256 85.8324 355.477 85.9693 355.667C86.1062 355.852 86.3006 355.996 86.5523 356.097C86.8085 356.199 87.1045 356.25 87.4401 356.25C87.7758 356.25 88.0695 356.199 88.3213 356.097C88.5775 355.996 88.7762 355.852 88.9176 355.667C89.0589 355.477 89.1318 355.256 89.1362 355.004C89.1318 354.748 89.0589 354.525 88.9176 354.335C88.7762 354.141 88.5775 353.993 88.3213 353.891C88.0695 353.785 87.7758 353.732 87.4401 353.732ZM93.7209 361.404H85.691V357.972H86.9499V360.384H93.7209V361.404ZM103.023 351.678C103.023 352.2 103.138 352.699 103.367 353.176C103.602 353.653 103.933 354.075 104.361 354.441C104.794 354.803 105.302 355.079 105.885 355.269L105.209 356.263C104.569 356.038 104.008 355.704 103.526 355.263C103.049 354.817 102.681 354.298 102.42 353.706C102.159 354.381 101.78 354.969 101.28 355.468C100.786 355.963 100.196 356.338 99.5115 356.594L98.8357 355.587C99.4452 355.371 99.9686 355.062 100.406 354.66C100.848 354.253 101.185 353.785 101.42 353.255C101.654 352.725 101.773 352.164 101.777 351.572V350.406H103.023V351.678ZM108.257 352.765H109.979V353.825H108.257V356.952H106.998V349.784H108.257V352.765ZM104.427 357.23C105.236 357.23 105.936 357.319 106.528 357.495C107.12 357.668 107.572 357.919 107.886 358.251C108.204 358.578 108.363 358.971 108.363 359.43C108.363 359.894 108.204 360.291 107.886 360.623C107.572 360.954 107.12 361.206 106.528 361.378C105.936 361.55 105.236 361.634 104.427 361.63C103.61 361.634 102.901 361.55 102.301 361.378C101.7 361.206 101.238 360.954 100.916 360.623C100.598 360.291 100.439 359.894 100.439 359.43C100.439 358.971 100.598 358.578 100.916 358.251C101.238 357.919 101.7 357.668 102.301 357.495C102.901 357.319 103.61 357.23 104.427 357.23ZM104.427 358.224C103.858 358.224 103.367 358.273 102.957 358.37C102.546 358.463 102.232 358.6 102.016 358.781C101.799 358.962 101.693 359.178 101.698 359.43C101.693 359.819 101.93 360.117 102.407 360.324C102.884 360.532 103.557 360.64 104.427 360.649C105.289 360.64 105.953 360.532 106.422 360.324C106.894 360.117 107.131 359.819 107.131 359.43C107.131 359.05 106.892 358.754 106.415 358.542C105.942 358.33 105.28 358.224 104.427 358.224ZM119.997 353.295H121.693V354.342H119.997V357.827H118.738V349.797H119.997V353.295ZM116.115 357.959C116.949 357.955 117.66 358.023 118.248 358.165C118.84 358.306 119.29 358.518 119.599 358.801C119.913 359.079 120.072 359.417 120.076 359.814C120.072 360.406 119.725 360.859 119.036 361.172C118.352 361.486 117.378 361.647 116.115 361.656C114.847 361.647 113.869 361.486 113.18 361.172C112.495 360.859 112.153 360.406 112.153 359.814C112.153 359.417 112.307 359.079 112.616 358.801C112.926 358.518 113.376 358.306 113.968 358.165C114.56 358.023 115.275 357.955 116.115 357.959ZM116.115 358.887C115.231 358.887 114.56 358.966 114.1 359.125C113.641 359.284 113.416 359.514 113.425 359.814C113.416 360.101 113.641 360.324 114.1 360.483C114.564 360.638 115.236 360.715 116.115 360.715C116.98 360.715 117.643 360.638 118.102 360.483C118.561 360.324 118.791 360.101 118.791 359.814C118.791 359.514 118.561 359.284 118.102 359.125C117.647 358.966 116.985 358.887 116.115 358.887ZM111.464 356.369C112.426 356.369 113.164 356.36 113.676 356.343V355.475C112.987 355.404 112.446 355.223 112.053 354.931C111.665 354.64 111.472 354.267 111.477 353.812C111.472 353.463 111.585 353.162 111.815 352.911C112.044 352.659 112.371 352.467 112.795 352.334C113.224 352.197 113.725 352.129 114.299 352.129C114.869 352.129 115.366 352.197 115.79 352.334C116.214 352.467 116.541 352.659 116.77 352.911C117.005 353.162 117.122 353.463 117.122 353.812C117.122 354.262 116.927 354.633 116.539 354.925C116.15 355.216 115.615 355.4 114.935 355.475V356.29C116.119 356.232 117.161 356.139 118.062 356.011L118.168 356.886C117.038 357.08 115.858 357.208 114.63 357.27C113.407 357.332 112.1 357.363 110.708 357.363L110.576 356.369H111.464ZM117.731 351.692H110.881V350.751H113.676V349.691H114.935V350.751H117.731V351.692ZM114.299 352.977C113.791 352.977 113.392 353.052 113.1 353.202C112.813 353.348 112.669 353.551 112.669 353.812C112.669 354.077 112.813 354.284 113.1 354.434C113.392 354.585 113.791 354.66 114.299 354.66C114.803 354.66 115.198 354.585 115.485 354.434C115.772 354.284 115.916 354.077 115.916 353.812C115.916 353.551 115.772 353.348 115.485 353.202C115.198 353.052 114.803 352.977 114.299 352.977Z" fill="#666E79"/>
<path d="M310.153 91.8399C310.153 100.968 302.753 108.368 293.625 108.368C284.497 108.368 277.098 100.968 277.098 91.8399C277.098 82.712 284.497 75.3123 293.625 75.3123C302.753 75.3123 310.153 82.712 310.153 91.8399Z" fill="#0567ED"/>
<g filter="url(#filter3_b_63_224)">
<path d="M296.271 59.6116C298.854 58.1207 302.501 57.3642 306.317 57.517C310.125 57.6695 313.911 58.7203 316.768 60.633C317.535 61.1458 318.572 60.94 319.084 60.1731C319.597 59.4062 319.391 58.3688 318.625 57.8559C315.145 55.5272 310.726 54.3499 306.451 54.1787C302.184 54.0078 297.869 54.832 294.603 56.7177C293.804 57.1787 293.53 58.2003 293.991 58.9994C294.452 59.7986 295.473 60.0727 296.271 59.6116ZM307.913 60.6058C307 60.4775 306.155 61.1141 306.027 62.0277C305.899 62.9414 306.535 63.786 307.448 63.9143C313.781 64.8041 317.543 68.4019 319.807 72.0944C322.098 75.8309 322.813 79.6131 322.965 80.5845C323.108 81.496 323.962 82.1192 324.873 81.9765C325.783 81.8338 326.406 80.9792 326.264 80.0677C326.08 78.8952 325.273 74.62 322.653 70.3472C320.006 66.0306 315.468 61.6673 307.913 60.6058ZM300.258 72.3028C296.185 75.5848 293.779 82.6864 298.198 91.8481C298.599 92.679 298.251 93.6776 297.42 94.0787C296.59 94.4797 295.592 94.1312 295.191 93.3003C290.242 83.0398 292.639 74.1522 298.163 69.7007C300.896 67.4984 304.354 66.443 307.857 66.9456C311.375 67.4502 314.781 69.5012 317.463 73.2195C318.002 73.9676 317.834 75.0117 317.086 75.5516C316.338 76.0915 315.295 75.9226 314.755 75.1745C312.532 72.0922 309.889 70.6122 307.383 70.2527C304.863 69.8911 302.323 70.6385 300.258 72.3028ZM305.431 94.066C302.678 88.4047 301.881 83.6734 302.401 80.5863C302.659 79.0593 303.214 78.0546 303.879 77.4658C304.512 76.9038 305.407 76.575 306.689 76.6966C308.416 76.8605 309.181 77.4153 309.646 78.0343C310.205 78.7773 310.518 79.8439 310.877 81.4549C310.921 81.6516 310.965 81.854 311.01 82.0613C311.664 85.0785 312.548 89.1491 316.683 92.2994C317.417 92.8582 318.464 92.7161 319.023 91.982C319.581 91.2479 319.439 90.1998 318.706 89.641C315.572 87.2542 314.922 84.2988 314.249 81.2416L314.249 81.2392C314.211 81.0694 314.174 80.8987 314.136 80.7284C313.793 79.1902 313.367 77.4261 312.315 76.0265C311.17 74.5029 309.456 73.6032 307.004 73.3706C304.941 73.1749 303.09 73.7015 301.664 74.9652C300.269 76.2022 299.452 77.9936 299.109 80.0305C298.428 84.0712 299.517 89.5389 302.428 95.5275C302.831 96.3571 303.83 96.7025 304.66 96.2989C305.489 95.8954 305.834 94.8957 305.431 94.066ZM292.22 60.7891C292.843 61.4694 292.797 62.5261 292.117 63.1492C290.078 65.0181 288.81 67.0916 288.417 67.7846C287.963 68.5872 286.944 68.869 286.142 68.414C285.34 67.9591 285.058 66.9396 285.513 66.137C285.992 65.291 287.462 62.8849 289.862 60.6855C290.542 60.0624 291.598 60.1087 292.22 60.7891ZM319.895 80.2926C319.724 79.386 318.852 78.7895 317.945 78.9603C317.039 79.1311 316.443 80.0046 316.614 80.9112C317.237 84.2188 318.765 86.9831 321.551 88.705C322.335 89.1899 323.364 88.9466 323.848 88.1617C324.333 87.3768 324.09 86.3474 323.305 85.8626C321.52 84.7588 320.393 82.9388 319.895 80.2926ZM306.171 80.3247C307.09 80.2475 307.897 80.9303 307.974 81.8496C308.478 87.8537 311.472 91.6467 312.292 92.5801C312.9 93.2731 312.832 94.3286 312.14 94.9376C311.447 95.5467 310.393 95.4786 309.784 94.7856C308.71 93.5634 305.233 89.1178 304.647 82.1289C304.57 81.2096 305.253 80.4018 306.171 80.3247ZM301.665 64.4359C302.511 64.0688 302.899 63.0851 302.532 62.2387C302.166 61.3923 301.182 61.0037 300.337 61.3708C292.696 64.6867 289.197 70.334 287.685 75.4188C286.191 80.4432 286.629 84.9149 286.788 86.1156C286.909 87.0302 287.748 87.6737 288.662 87.5528C289.576 87.432 290.219 86.5926 290.098 85.6779C289.969 84.6981 289.581 80.7569 290.885 76.3716C292.171 72.0467 295.094 67.2877 301.665 64.4359Z" fill="url(#paint0_linear_63_224)" fill-opacity="0.3"/>
</g>
<g filter="url(#filter4_b_63_224)">
<path fill-rule="evenodd" clip-rule="evenodd" d="M294.57 56.6604C297.85 54.7669 302.177 53.9414 306.453 54.1126C310.738 54.2842 315.17 55.464 318.661 57.8009C319.458 58.3341 319.672 59.4126 319.139 60.2098C318.606 61.007 317.528 61.2211 316.732 60.6878C313.886 58.7835 310.113 57.7351 306.314 57.583C302.507 57.4305 298.873 58.1858 296.304 59.6688C295.474 60.1481 294.413 59.8632 293.934 59.0324C293.455 58.2017 293.739 57.1397 294.57 56.6604ZM306.448 54.2447C302.19 54.0742 297.889 54.897 294.636 56.7749C293.869 57.2177 293.606 58.1988 294.048 58.9664C294.491 59.7339 295.471 59.9971 296.238 59.5543C298.834 58.0556 302.495 57.2977 306.32 57.4509C310.137 57.6037 313.935 58.6571 316.805 60.578C317.541 61.0705 318.537 60.8728 319.029 60.1363C319.521 59.3998 319.324 58.4034 318.588 57.9108C315.121 55.5904 310.714 54.4156 306.448 54.2447ZM292.172 60.8336C291.574 60.1803 290.559 60.1358 289.906 60.7342C287.514 62.9271 286.048 65.3265 285.57 66.1695C285.133 66.9404 285.404 67.9195 286.174 68.3565C286.945 68.7934 287.923 68.5228 288.36 67.752C288.754 67.056 290.026 64.9758 292.072 63.1004C292.725 62.5019 292.77 61.4871 292.172 60.8336ZM289.817 60.6368C290.524 59.9889 291.622 60.0371 292.269 60.7444C292.917 61.4516 292.868 62.5501 292.162 63.1979C290.13 65.0602 288.866 67.1272 288.475 67.8171C288.002 68.6515 286.943 68.9445 286.109 68.4715C285.275 67.9985 284.982 66.9387 285.455 66.1044C285.936 65.2553 287.41 62.8427 289.817 60.6368ZM305.962 62.0185C306.095 61.0688 306.972 60.4069 307.922 60.5402C315.501 61.6052 320.055 65.9836 322.709 70.3126C325.335 74.596 326.145 78.881 326.329 80.0574C326.477 81.005 325.83 81.8934 324.883 82.0418C323.936 82.1901 323.048 81.5422 322.9 80.5947C322.748 79.6273 322.035 75.8548 319.75 72.129C317.494 68.4488 313.748 64.8661 307.439 63.9797C306.49 63.8463 305.828 62.9682 305.962 62.0185ZM307.903 60.6712C307.026 60.548 306.216 61.1594 306.093 62.0369C305.97 62.9144 306.581 63.7255 307.457 63.8487C313.815 64.7419 317.591 68.3549 319.863 72.0598C322.161 75.8069 322.878 79.5989 323.03 80.5743C323.167 81.4497 323.987 82.0482 324.862 81.9111C325.737 81.7741 326.335 80.9533 326.198 80.0779C326.015 78.9094 325.21 74.6439 322.596 70.3818C319.957 66.0774 315.434 61.7293 307.903 60.6712ZM300.31 61.3101C301.19 60.9285 302.212 61.3325 302.593 62.2123C302.974 63.0922 302.571 64.1149 301.691 64.4965C295.142 67.3391 292.23 72.0806 290.948 76.3904C289.648 80.7631 290.035 84.6937 290.164 85.6692C290.289 86.62 289.621 87.4927 288.67 87.6183C287.72 87.744 286.848 87.075 286.722 86.1242C286.563 84.9191 286.123 80.4369 287.621 75.3999C289.138 70.3001 292.649 64.6352 300.31 61.3101ZM302.472 62.2649C302.119 61.452 301.175 61.0789 300.363 61.4314C292.744 64.7381 289.256 70.3678 287.748 75.4376C286.258 80.4493 286.696 84.9106 286.854 86.1069C286.97 86.9853 287.775 87.6033 288.653 87.4873C289.531 87.3712 290.148 86.565 290.032 85.6865C289.903 84.7023 289.514 80.7507 290.821 76.3527C292.112 72.0128 295.047 67.2362 301.639 64.3752C302.451 64.0227 302.824 63.0779 302.472 62.2649ZM307.848 67.011C304.364 66.5112 300.925 67.5605 298.205 69.7522C292.709 74.1804 290.312 83.0327 295.251 93.2716C295.636 94.0696 296.594 94.4042 297.392 94.0191C298.189 93.6339 298.524 92.6748 298.139 91.8768C293.709 82.6932 296.115 75.5563 300.216 72.2513C302.295 70.5763 304.853 69.8229 307.392 70.1872C309.918 70.5496 312.577 72.0408 314.809 75.1358C315.327 75.8543 316.329 76.0164 317.047 75.498C317.765 74.9795 317.927 73.9766 317.409 73.2581C314.737 69.5524 311.345 67.5127 307.848 67.011ZM298.122 69.6492C300.868 67.4362 304.344 66.3748 307.866 66.8801C311.404 67.3876 314.826 69.4499 317.516 73.1808C318.077 73.9585 317.902 75.0439 317.125 75.6051C316.347 76.1664 315.263 75.9909 314.702 75.2131C312.488 72.1434 309.86 70.6747 307.374 70.3181C304.873 69.9593 302.351 70.7006 300.299 72.3543C296.255 75.6131 293.849 82.6795 298.258 91.8194C298.674 92.6831 298.312 93.7212 297.449 94.1381C296.586 94.555 295.548 94.1928 295.132 93.329C290.172 83.0469 292.569 74.1239 298.122 69.6492ZM301.62 74.9157C303.061 73.6381 304.932 73.1075 307.01 73.3047C309.477 73.5387 311.21 74.4452 312.368 75.9867C313.429 77.3993 313.858 79.1771 314.2 80.714C314.238 80.8831 314.275 81.0526 314.313 81.2212L314.313 81.2249L314.313 81.225L314.314 81.2273L314.314 81.2274C314.987 84.2852 315.633 87.2176 318.746 89.5884C319.508 90.1693 319.656 91.2589 319.075 92.022C318.495 92.7851 317.406 92.9329 316.643 92.3519C312.488 89.1869 311.6 85.0958 310.946 82.0784L310.945 82.0752C310.9 81.8679 310.856 81.6658 310.812 81.4693C310.453 79.8566 310.142 78.8039 309.593 78.0739C309.142 77.4727 308.395 76.9249 306.683 76.7624C305.416 76.6422 304.541 76.967 303.922 77.5152C303.273 78.0912 302.722 79.0803 302.466 80.5972C301.949 83.6654 302.741 88.3822 305.49 94.0371C305.909 94.8995 305.55 95.9388 304.688 96.3583C303.826 96.7779 302.788 96.4188 302.369 95.5563C299.454 89.5613 298.359 84.0791 299.044 80.0195C299.389 77.9726 300.211 76.1655 301.62 74.9157ZM306.998 73.4364C304.95 73.2421 303.118 73.7649 301.708 75.0147C300.328 76.2388 299.516 78.0146 299.174 80.0415C298.496 84.0633 299.579 89.5164 302.487 95.4985C302.875 96.2953 303.834 96.627 304.631 96.2394C305.427 95.8519 305.758 94.8917 305.371 94.0949C302.616 88.4271 301.812 83.6812 302.336 80.5752C302.595 79.0381 303.156 78.0179 303.835 77.4163C304.484 76.8404 305.397 76.5076 306.695 76.6308C308.437 76.796 309.221 77.3577 309.699 77.9945C310.267 78.7506 310.583 79.8312 310.942 81.4405C310.985 81.6374 311.029 81.8399 311.074 82.0472C311.729 85.064 312.608 89.1123 316.723 92.2467C317.428 92.7834 318.434 92.647 318.97 91.9419C319.507 91.2369 319.37 90.2302 318.666 89.6936C315.513 87.292 314.858 84.3158 314.186 81.2612L314.185 81.2558L314.185 81.2558L314.184 81.2534L314.184 81.2534C314.147 81.0836 314.109 80.9129 314.071 80.7427C313.729 79.2032 313.304 77.4528 312.262 76.0662C311.131 74.5605 309.436 73.6676 306.998 73.4364ZM317.933 78.8953C318.875 78.7177 319.783 79.3379 319.96 80.2803C320.456 82.9134 321.574 84.7147 323.34 85.8063C324.156 86.3104 324.408 87.3804 323.905 88.1964C323.401 89.0123 322.331 89.2653 321.516 88.7612C318.71 87.0271 317.174 84.244 316.549 80.9234C316.372 79.9809 316.991 79.0729 317.933 78.8953ZM319.83 80.3048C319.666 79.434 318.828 78.8612 317.958 79.0252C317.088 79.1893 316.515 80.0281 316.679 80.8989C317.299 84.1935 318.82 86.9391 321.585 88.6487C322.339 89.1144 323.327 88.8808 323.792 88.1269C324.257 87.373 324.024 86.3844 323.271 85.9188C321.465 84.8027 320.331 82.9641 319.83 80.3048ZM307.909 81.8551C307.835 80.9721 307.059 80.3164 306.177 80.3905C305.294 80.4646 304.639 81.2404 304.713 82.1234C305.297 89.0927 308.765 93.5255 309.834 94.7419C310.418 95.4075 311.431 95.4728 312.096 94.8879C312.761 94.303 312.827 93.2893 312.242 92.6237C311.417 91.6846 308.414 87.8787 307.909 81.8551ZM306.166 80.2587C307.121 80.1785 307.96 80.8884 308.04 81.8441C308.542 87.8287 311.527 91.6088 312.341 92.5364C312.974 93.2568 312.903 94.3541 312.184 94.9872C311.464 95.6204 310.367 95.5496 309.734 94.8292C308.656 93.6013 305.169 89.1427 304.581 82.1344C304.501 81.1787 305.211 80.3389 306.166 80.2587Z" fill="url(#paint1_linear_63_224)"/>
<path fill-rule="evenodd" clip-rule="evenodd" d="M294.57 56.6604C297.85 54.7669 302.177 53.9414 306.453 54.1126C310.738 54.2842 315.17 55.464 318.661 57.8009C319.458 58.3341 319.672 59.4126 319.139 60.2098C318.606 61.007 317.528 61.2211 316.732 60.6878C313.886 58.7835 310.113 57.7351 306.314 57.583C302.507 57.4305 298.873 58.1858 296.304 59.6688C295.474 60.1481 294.413 59.8632 293.934 59.0324C293.455 58.2017 293.739 57.1397 294.57 56.6604ZM306.448 54.2447C302.19 54.0742 297.889 54.897 294.636 56.7749C293.869 57.2177 293.606 58.1988 294.048 58.9664C294.491 59.7339 295.471 59.9971 296.238 59.5543C298.834 58.0556 302.495 57.2977 306.32 57.4509C310.137 57.6037 313.935 58.6571 316.805 60.578C317.541 61.0705 318.537 60.8728 319.029 60.1363C319.521 59.3998 319.324 58.4034 318.588 57.9108C315.121 55.5904 310.714 54.4156 306.448 54.2447ZM292.172 60.8336C291.574 60.1803 290.559 60.1358 289.906 60.7342C287.514 62.9271 286.048 65.3265 285.57 66.1695C285.133 66.9404 285.404 67.9195 286.174 68.3565C286.945 68.7934 287.923 68.5228 288.36 67.752C288.754 67.056 290.026 64.9758 292.072 63.1004C292.725 62.5019 292.77 61.4871 292.172 60.8336ZM289.817 60.6368C290.524 59.9889 291.622 60.0371 292.269 60.7444C292.917 61.4516 292.868 62.5501 292.162 63.1979C290.13 65.0602 288.866 67.1272 288.475 67.8171C288.002 68.6515 286.943 68.9445 286.109 68.4715C285.275 67.9985 284.982 66.9387 285.455 66.1044C285.936 65.2553 287.41 62.8427 289.817 60.6368ZM305.962 62.0185C306.095 61.0688 306.972 60.4069 307.922 60.5402C315.501 61.6052 320.055 65.9836 322.709 70.3126C325.335 74.596 326.145 78.881 326.329 80.0574C326.477 81.005 325.83 81.8934 324.883 82.0418C323.936 82.1901 323.048 81.5422 322.9 80.5947C322.748 79.6273 322.035 75.8548 319.75 72.129C317.494 68.4488 313.748 64.8661 307.439 63.9797C306.49 63.8463 305.828 62.9682 305.962 62.0185ZM307.903 60.6712C307.026 60.548 306.216 61.1594 306.093 62.0369C305.97 62.9144 306.581 63.7255 307.457 63.8487C313.815 64.7419 317.591 68.3549 319.863 72.0598C322.161 75.8069 322.878 79.5989 323.03 80.5743C323.167 81.4497 323.987 82.0482 324.862 81.9111C325.737 81.7741 326.335 80.9533 326.198 80.0779C326.015 78.9094 325.21 74.6439 322.596 70.3818C319.957 66.0774 315.434 61.7293 307.903 60.6712ZM300.31 61.3101C301.19 60.9285 302.212 61.3325 302.593 62.2123C302.974 63.0922 302.571 64.1149 301.691 64.4965C295.142 67.3391 292.23 72.0806 290.948 76.3904C289.648 80.7631 290.035 84.6937 290.164 85.6692C290.289 86.62 289.621 87.4927 288.67 87.6183C287.72 87.744 286.848 87.075 286.722 86.1242C286.563 84.9191 286.123 80.4369 287.621 75.3999C289.138 70.3001 292.649 64.6352 300.31 61.3101ZM302.472 62.2649C302.119 61.452 301.175 61.0789 300.363 61.4314C292.744 64.7381 289.256 70.3678 287.748 75.4376C286.258 80.4493 286.696 84.9106 286.854 86.1069C286.97 86.9853 287.775 87.6033 288.653 87.4873C289.531 87.3712 290.148 86.565 290.032 85.6865C289.903 84.7023 289.514 80.7507 290.821 76.3527C292.112 72.0128 295.047 67.2362 301.639 64.3752C302.451 64.0227 302.824 63.0779 302.472 62.2649ZM307.848 67.011C304.364 66.5112 300.925 67.5605 298.205 69.7522C292.709 74.1804 290.312 83.0327 295.251 93.2716C295.636 94.0696 296.594 94.4042 297.392 94.0191C298.189 93.6339 298.524 92.6748 298.139 91.8768C293.709 82.6932 296.115 75.5563 300.216 72.2513C302.295 70.5763 304.853 69.8229 307.392 70.1872C309.918 70.5496 312.577 72.0408 314.809 75.1358C315.327 75.8543 316.329 76.0164 317.047 75.498C317.765 74.9795 317.927 73.9766 317.409 73.2581C314.737 69.5524 311.345 67.5127 307.848 67.011ZM298.122 69.6492C300.868 67.4362 304.344 66.3748 307.866 66.8801C311.404 67.3876 314.826 69.4499 317.516 73.1808C318.077 73.9585 317.902 75.0439 317.125 75.6051C316.347 76.1664 315.263 75.9909 314.702 75.2131C312.488 72.1434 309.86 70.6747 307.374 70.3181C304.873 69.9593 302.351 70.7006 300.299 72.3543C296.255 75.6131 293.849 82.6795 298.258 91.8194C298.674 92.6831 298.312 93.7212 297.449 94.1381C296.586 94.555 295.548 94.1928 295.132 93.329C290.172 83.0469 292.569 74.1239 298.122 69.6492ZM301.62 74.9157C303.061 73.6381 304.932 73.1075 307.01 73.3047C309.477 73.5387 311.21 74.4452 312.368 75.9867C313.429 77.3993 313.858 79.1771 314.2 80.714C314.238 80.8831 314.275 81.0526 314.313 81.2212L314.313 81.2249L314.313 81.225L314.314 81.2273L314.314 81.2274C314.987 84.2852 315.633 87.2176 318.746 89.5884C319.508 90.1693 319.656 91.2589 319.075 92.022C318.495 92.7851 317.406 92.9329 316.643 92.3519C312.488 89.1869 311.6 85.0958 310.946 82.0784L310.945 82.0752C310.9 81.8679 310.856 81.6658 310.812 81.4693C310.453 79.8566 310.142 78.8039 309.593 78.0739C309.142 77.4727 308.395 76.9249 306.683 76.7624C305.416 76.6422 304.541 76.967 303.922 77.5152C303.273 78.0912 302.722 79.0803 302.466 80.5972C301.949 83.6654 302.741 88.3822 305.49 94.0371C305.909 94.8995 305.55 95.9388 304.688 96.3583C303.826 96.7779 302.788 96.4188 302.369 95.5563C299.454 89.5613 298.359 84.0791 299.044 80.0195C299.389 77.9726 300.211 76.1655 301.62 74.9157ZM306.998 73.4364C304.95 73.2421 303.118 73.7649 301.708 75.0147C300.328 76.2388 299.516 78.0146 299.174 80.0415C298.496 84.0633 299.579 89.5164 302.487 95.4985C302.875 96.2953 303.834 96.627 304.631 96.2394C305.427 95.8519 305.758 94.8917 305.371 94.0949C302.616 88.4271 301.812 83.6812 302.336 80.5752C302.595 79.0381 303.156 78.0179 303.835 77.4163C304.484 76.8404 305.397 76.5076 306.695 76.6308C308.437 76.796 309.221 77.3577 309.699 77.9945C310.267 78.7506 310.583 79.8312 310.942 81.4405C310.985 81.6374 311.029 81.8399 311.074 82.0472C311.729 85.064 312.608 89.1123 316.723 92.2467C317.428 92.7834 318.434 92.647 318.97 91.9419C319.507 91.2369 319.37 90.2302 318.666 89.6936C315.513 87.292 314.858 84.3158 314.186 81.2612L314.185 81.2558L314.185 81.2558L314.184 81.2534L314.184 81.2534C314.147 81.0836 314.109 80.9129 314.071 80.7427C313.729 79.2032 313.304 77.4528 312.262 76.0662C311.131 74.5605 309.436 73.6676 306.998 73.4364ZM317.933 78.8953C318.875 78.7177 319.783 79.3379 319.96 80.2803C320.456 82.9134 321.574 84.7147 323.34 85.8063C324.156 86.3104 324.408 87.3804 323.905 88.1964C323.401 89.0123 322.331 89.2653 321.516 88.7612C318.71 87.0271 317.174 84.244 316.549 80.9234C316.372 79.9809 316.991 79.0729 317.933 78.8953ZM319.83 80.3048C319.666 79.434 318.828 78.8612 317.958 79.0252C317.088 79.1893 316.515 80.0281 316.679 80.8989C317.299 84.1935 318.82 86.9391 321.585 88.6487C322.339 89.1144 323.327 88.8808 323.792 88.1269C324.257 87.373 324.024 86.3844 323.271 85.9188C321.465 84.8027 320.331 82.9641 319.83 80.3048ZM307.909 81.8551C307.835 80.9721 307.059 80.3164 306.177 80.3905C305.294 80.4646 304.639 81.2404 304.713 82.1234C305.297 89.0927 308.765 93.5255 309.834 94.7419C310.418 95.4075 311.431 95.4728 312.096 94.8879C312.761 94.303 312.827 93.2893 312.242 92.6237C311.417 91.6846 308.414 87.8787 307.909 81.8551ZM306.166 80.2587C307.121 80.1785 307.96 80.8884 308.04 81.8441C308.542 87.8287 311.527 91.6088 312.341 92.5364C312.974 93.2568 312.903 94.3541 312.184 94.9872C311.464 95.6204 310.367 95.5496 309.734 94.8292C308.656 93.6013 305.169 89.1427 304.581 82.1344C304.501 81.1787 305.211 80.3389 306.166 80.2587Z" fill="url(#paint2_radial_63_224)"/>
</g>
<g clip-path="url(#clip1_63_224)">
<mask id="path-19-outside-1_63_224" maskUnits="userSpaceOnUse" x="284.552" y="178.544" width="31" height="31" fill="black">
<rect fill="white" x="284.552" y="178.544" width="31" height="31"/>
<path fill-rule="evenodd" clip-rule="evenodd" d="M310.09 194.015C310.09 194.015 310.09 194.015 310.09 194.015C310.09 194.015 310.09 194.015 310.09 194.014C310.09 191.344 309.029 188.784 307.141 186.896C305.253 185.008 302.692 183.947 300.022 183.947C297.352 183.947 294.791 185.008 292.903 186.896C291.015 188.784 289.955 191.344 289.955 194.014C289.955 194.015 289.955 194.015 289.955 194.015C289.955 194.015 289.955 194.015 289.955 194.015V206.492C289.955 207.432 289.193 208.194 288.254 208.194C287.314 208.194 286.552 207.432 286.552 206.492V194.015C286.552 194.015 286.552 194.015 286.552 194.015C286.552 194.015 286.552 194.015 286.552 194.015C286.552 190.442 287.971 187.016 290.497 184.49C293.024 181.964 296.45 180.544 300.022 180.544C303.595 180.544 307.021 181.964 309.547 184.49C312.073 187.016 313.493 190.442 313.493 194.015C313.493 194.015 313.493 194.015 313.493 194.015C313.493 194.015 313.493 194.015 313.493 194.015V206.492C313.493 207.432 312.731 208.194 311.791 208.194C310.851 208.194 310.09 207.432 310.09 206.492V194.015Z"/>
</mask>
<path fill-rule="evenodd" clip-rule="evenodd" d="M310.09 194.015C310.09 194.015 310.09 194.015 310.09 194.015C310.09 194.015 310.09 194.015 310.09 194.014C310.09 191.344 309.029 188.784 307.141 186.896C305.253 185.008 302.692 183.947 300.022 183.947C297.352 183.947 294.791 185.008 292.903 186.896C291.015 188.784 289.955 191.344 289.955 194.014C289.955 194.015 289.955 194.015 289.955 194.015C289.955 194.015 289.955 194.015 289.955 194.015V206.492C289.955 207.432 289.193 208.194 288.254 208.194C287.314 208.194 286.552 207.432 286.552 206.492V194.015C286.552 194.015 286.552 194.015 286.552 194.015C286.552 194.015 286.552 194.015 286.552 194.015C286.552 190.442 287.971 187.016 290.497 184.49C293.024 181.964 296.45 180.544 300.022 180.544C303.595 180.544 307.021 181.964 309.547 184.49C312.073 187.016 313.493 190.442 313.493 194.015C313.493 194.015 313.493 194.015 313.493 194.015C313.493 194.015 313.493 194.015 313.493 194.015V206.492C313.493 207.432 312.731 208.194 311.791 208.194C310.851 208.194 310.09 207.432 310.09 206.492V194.015Z" fill="#0567ED"/>
<path d="M307.141 186.896L306.205 187.832L307.141 186.896ZM300.022 183.947V182.623V183.947ZM292.903 186.896L291.968 185.96L291.968 185.96L292.903 186.896ZM290.497 184.49L291.433 185.426L290.497 184.49ZM309.547 184.49L308.611 185.426V185.426L309.547 184.49ZM313.493 194.015L312.169 194.015L313.493 194.015ZM286.552 194.015L285.229 194.015L286.552 194.015ZM289.955 194.014L288.631 194.014L289.955 194.014ZM310.09 194.014L311.413 194.014L310.09 194.014ZM306.205 187.832C307.845 189.471 308.766 191.695 308.766 194.014L311.413 194.014C311.413 190.993 310.213 188.096 308.077 185.96L306.205 187.832ZM300.022 185.271C302.341 185.271 304.565 186.192 306.205 187.832L308.077 185.96C305.941 183.824 303.043 182.623 300.022 182.623V185.271ZM293.839 187.832C295.479 186.192 297.703 185.271 300.022 185.271V182.623C297.001 182.623 294.104 183.824 291.968 185.96L293.839 187.832ZM291.278 194.014C291.278 191.695 292.2 189.471 293.839 187.832L291.968 185.96C289.831 188.096 288.631 190.993 288.631 194.014L291.278 194.014ZM288.632 194.015V206.492H291.279V194.015H288.632ZM287.876 206.492V194.015H285.229V206.492H287.876ZM289.562 183.554C286.787 186.328 285.229 190.091 285.229 194.015L287.876 194.015C287.876 190.793 289.155 187.704 291.433 185.426L289.562 183.554ZM300.022 179.221C296.099 179.221 292.336 180.78 289.562 183.554L291.433 185.426C293.711 183.148 296.801 181.868 300.022 181.868V179.221ZM310.483 183.554C307.709 180.78 303.946 179.221 300.022 179.221V181.868C303.244 181.868 306.333 183.148 308.611 185.426L310.483 183.554ZM314.816 194.015C314.816 190.091 313.257 186.328 310.483 183.554L308.611 185.426C310.889 187.704 312.169 190.793 312.169 194.015L314.816 194.015ZM314.816 206.492V194.015H312.169V206.492H314.816ZM308.766 194.015V206.492H311.413V194.015H308.766ZM311.791 206.87C311.582 206.87 311.413 206.701 311.413 206.492H308.766C308.766 208.163 310.12 209.517 311.791 209.517V206.87ZM313.493 195.338C312.74 195.338 312.169 194.724 312.169 194.015H314.816C314.816 193.306 314.245 192.691 313.493 192.691V195.338ZM312.169 194.015C312.169 194.743 312.759 195.338 313.493 195.338V192.691C314.226 192.691 314.816 193.286 314.816 194.015L312.169 194.015ZM286.552 192.691C287.295 192.691 287.876 193.296 287.876 194.015L285.229 194.015C285.229 194.734 285.809 195.338 286.552 195.338V192.691ZM287.876 194.015C287.876 193.3 287.299 192.691 286.552 192.691V195.338C285.805 195.338 285.229 194.73 285.229 194.015H287.876ZM288.254 206.87C288.045 206.87 287.876 206.701 287.876 206.492H285.229C285.229 208.163 286.583 209.517 288.254 209.517V206.87ZM288.632 206.492C288.632 206.701 288.462 206.87 288.254 206.87V209.517C289.924 209.517 291.279 208.163 291.279 206.492H288.632ZM289.955 195.338C289.224 195.338 288.632 194.746 288.632 194.015H291.279C291.279 193.284 290.686 192.691 289.955 192.691V195.338ZM310.09 192.691C309.359 192.691 308.766 193.284 308.766 194.015H311.413C311.413 194.746 310.821 195.338 310.09 195.338V192.691ZM312.169 206.492C312.169 206.701 312 206.87 311.791 206.87V209.517C313.462 209.517 314.816 208.163 314.816 206.492H312.169ZM288.631 194.014C288.631 194.743 289.222 195.338 289.955 195.338V192.691C290.688 192.691 291.278 193.286 291.278 194.014L288.631 194.014ZM310.09 195.338C310.823 195.338 311.413 194.743 311.413 194.014L308.766 194.014C308.766 193.286 309.357 192.691 310.09 192.691V195.338Z" fill="#0567ED" mask="url(#path-19-outside-1_63_224)"/>
<g filter="url(#filter5_b_63_224)">
<path d="M277.098 207.015C277.098 201.898 281.245 197.75 286.362 197.75H313.627C318.744 197.75 322.892 201.898 322.892 207.015V226.868C322.892 231.985 318.744 236.133 313.627 236.133H286.362C281.245 236.133 277.098 231.985 277.098 226.868V207.015Z" fill="url(#paint3_linear_63_224)" fill-opacity="0.3"/>
</g>
<g filter="url(#filter6_b_63_224)">
<path fill-rule="evenodd" clip-rule="evenodd" d="M313.627 197.883H286.362C281.319 197.883 277.23 201.971 277.23 207.015V226.868C277.23 231.912 281.319 236 286.362 236H313.627C318.671 236 322.759 231.912 322.759 226.868V207.015C322.759 201.971 318.671 197.883 313.627 197.883ZM286.362 197.75C281.245 197.75 277.098 201.898 277.098 207.015V226.868C277.098 231.985 281.245 236.133 286.362 236.133H313.627C318.744 236.133 322.892 231.985 322.892 226.868V207.015C322.892 201.898 318.744 197.75 313.627 197.75H286.362Z" fill="url(#paint4_linear_63_224)"/>
<path fill-rule="evenodd" clip-rule="evenodd" d="M313.627 197.883H286.362C281.319 197.883 277.23 201.971 277.23 207.015V226.868C277.23 231.912 281.319 236 286.362 236H313.627C318.671 236 322.759 231.912 322.759 226.868V207.015C322.759 201.971 318.671 197.883 313.627 197.883ZM286.362 197.75C281.245 197.75 277.098 201.898 277.098 207.015V226.868C277.098 231.985 281.245 236.133 286.362 236.133H313.627C318.744 236.133 322.892 231.985 322.892 226.868V207.015C322.892 201.898 318.744 197.75 313.627 197.75H286.362Z" fill="url(#paint5_radial_63_224)"/>
</g>
<circle cx="300.127" cy="217.074" r="3.9706" fill="white"/>
</g>
<circle cx="310.595" cy="325.954" r="17.3848" fill="#0567ED"/>
<g filter="url(#filter7_b_63_224)">
<path d="M316.37 332.98H304.112C303.82 332.98 303.585 332.746 303.585 332.453V320.189C303.585 318.921 302.556 317.897 301.293 317.897H291.086C289.817 317.897 288.794 318.926 288.794 320.189V332.448C288.794 332.74 288.559 332.975 288.267 332.975H275.998C274.729 332.975 273.706 334.004 273.706 335.267V345.474C273.706 346.743 274.734 347.766 275.998 347.766H288.256C288.549 347.766 288.784 348.001 288.784 348.293V360.552C288.784 361.82 289.812 362.844 291.076 362.844H301.282C302.551 362.844 303.574 361.815 303.574 360.552V348.293C303.574 348.001 303.809 347.766 304.102 347.766H316.36C317.629 347.766 318.652 346.737 318.652 345.474V335.267C318.652 333.999 317.623 332.975 316.36 332.975L316.37 332.98Z" fill="url(#paint6_linear_63_224)" fill-opacity="0.3"/>
<path d="M316.37 333.404L316.372 333.399C317.396 333.406 318.228 334.237 318.228 335.267V345.474C318.228 346.504 317.394 347.342 316.36 347.342H304.102C303.575 347.342 303.15 347.767 303.15 348.293V360.552C303.15 361.582 302.316 362.42 301.282 362.42H291.076C290.046 362.42 289.208 361.586 289.208 360.552V348.293C289.208 347.767 288.783 347.342 288.256 347.342H275.998C274.968 347.342 274.13 346.508 274.13 345.474V335.267C274.13 334.237 274.964 333.399 275.998 333.399H288.267C288.793 333.399 289.218 332.974 289.218 332.448V320.189C289.218 319.16 290.052 318.321 291.086 318.321H301.293C302.323 318.321 303.161 319.156 303.161 320.189V332.453C303.161 332.98 303.585 333.404 304.112 333.404H316.37Z" stroke="url(#paint7_linear_63_224)" stroke-width="0.848041"/>
</g>
<rect y="164" width="390" height="246" fill="url(#paint8_linear_63_224)"/>
</g>
<defs>
<filter id="filter0_f_63_224" x="21.0573" y="5.88542" width="347.885" height="151.005" filterUnits="userSpaceOnUse" color-interpolation-filters="sRGB">
<feFlood flood-opacity="0" result="BackgroundImageFix"/>
<feBlend mode="normal" in="SourceGraphic" in2="BackgroundImageFix" result="shape"/>
<feGaussianBlur stdDeviation="9.55729" result="effect1_foregroundBlur_63_224"/>
</filter>
<filter id="filter1_f_63_224" x="21.0573" y="132.997" width="347.885" height="151.005" filterUnits="userSpaceOnUse" color-interpolation-filters="sRGB">
<feFlood flood-opacity="0" result="BackgroundImageFix"/>
<feBlend mode="normal" in="SourceGraphic" in2="BackgroundImageFix" result="shape"/>
<feGaussianBlur stdDeviation="9.55729" result="effect1_foregroundBlur_63_224"/>
</filter>
<filter id="filter2_f_63_224" x="21.0573" y="260.11" width="347.885" height="151.005" filterUnits="userSpaceOnUse" color-interpolation-filters="sRGB">
<feFlood flood-opacity="0" result="BackgroundImageFix"/>
<feBlend mode="normal" in="SourceGraphic" in2="BackgroundImageFix" result="shape"/>
<feGaussianBlur stdDeviation="9.55729" result="effect1_foregroundBlur_63_224"/>
</filter>
<filter id="filter3_b_63_224" x="277.362" y="46.2234" width="56.8552" height="58.1774" filterUnits="userSpaceOnUse" color-interpolation-filters="sRGB">
<feFlood flood-opacity="0" result="BackgroundImageFix"/>
<feGaussianBlur in="BackgroundImageFix" stdDeviation="3.96664"/>
<feComposite in2="SourceAlpha" operator="in" result="effect1_backgroundBlur_63_224"/>
<feBlend mode="normal" in="SourceGraphic" in2="effect1_backgroundBlur_63_224" result="shape"/>
</filter>
<filter id="filter4_b_63_224" x="255.229" y="24.0906" width="101.121" height="102.443" filterUnits="userSpaceOnUse" color-interpolation-filters="sRGB">
<feFlood flood-opacity="0" result="BackgroundImageFix"/>
<feGaussianBlur in="BackgroundImageFix" stdDeviation="15"/>
<feComposite in2="SourceAlpha" operator="in" result="effect1_backgroundBlur_63_224"/>
<feBlend mode="normal" in="SourceGraphic" in2="effect1_backgroundBlur_63_224" result="shape"/>
</filter>
<filter id="filter5_b_63_224" x="269.156" y="189.809" width="61.6766" height="54.265" filterUnits="userSpaceOnUse" color-interpolation-filters="sRGB">
<feFlood flood-opacity="0" result="BackgroundImageFix"/>
<feGaussianBlur in="BackgroundImageFix" stdDeviation="3.9706"/>
<feComposite in2="SourceAlpha" operator="in" result="effect1_backgroundBlur_63_224"/>
<feBlend mode="normal" in="SourceGraphic" in2="effect1_backgroundBlur_63_224" result="shape"/>
</filter>
<filter id="filter6_b_63_224" x="247.098" y="167.75" width="105.794" height="98.3826" filterUnits="userSpaceOnUse" color-interpolation-filters="sRGB">
<feFlood flood-opacity="0" result="BackgroundImageFix"/>
<feGaussianBlur in="BackgroundImageFix" stdDeviation="15"/>
<feComposite in2="SourceAlpha" operator="in" result="effect1_backgroundBlur_63_224"/>
<feBlend mode="normal" in="SourceGraphic" in2="effect1_backgroundBlur_63_224" result="shape"/>
</filter>
<filter id="filter7_b_63_224" x="267.77" y="311.961" width="56.8187" height="56.8189" filterUnits="userSpaceOnUse" color-interpolation-filters="sRGB">
<feFlood flood-opacity="0" result="BackgroundImageFix"/>
<feGaussianBlur in="BackgroundImageFix" stdDeviation="2.96814"/>
<feComposite in2="SourceAlpha" operator="in" result="effect1_backgroundBlur_63_224"/>
<feBlend mode="normal" in="SourceGraphic" in2="effect1_backgroundBlur_63_224" result="shape"/>
</filter>
<linearGradient id="paint0_linear_63_224" x1="289.682" y1="58.0604" x2="334.506" y2="80.5449" gradientUnits="userSpaceOnUse">
<stop stop-color="#5A81FF" stop-opacity="0.9"/>
<stop offset="0.447036" stop-color="#567DFF" stop-opacity="0.955296"/>
<stop offset="1" stop-color="#4E78FF" stop-opacity="0.9"/>
</linearGradient>
<linearGradient id="paint1_linear_63_224" x1="291.147" y1="52.5748" x2="330.301" y2="74.7235" gradientUnits="userSpaceOnUse">
<stop offset="0.188941" stop-color="#E7F0FF" stop-opacity="0.523483"/>
<stop offset="0.526042" stop-color="#88A4FF"/>
<stop offset="1" stop-color="#B4D2FF" stop-opacity="0.1"/>
</linearGradient>
<radialGradient id="paint2_radial_63_224" cx="0" cy="0" r="1" gradientUnits="userSpaceOnUse" gradientTransform="translate(291.375 95.1442) rotate(-51.8613) scale(32.9241 53.4573)">
<stop stop-color="white"/>
<stop offset="1" stop-color="white" stop-opacity="0"/>
</radialGradient>
<linearGradient id="paint3_linear_63_224" x1="281.998" y1="201.291" x2="327.365" y2="229.318" gradientUnits="userSpaceOnUse">
<stop stop-color="#5A81FF" stop-opacity="0.9"/>
<stop offset="0.447036" stop-color="#567DFF" stop-opacity="0.955296"/>
<stop offset="1" stop-color="#4E78FF" stop-opacity="0.9"/>
</linearGradient>
<linearGradient id="paint4_linear_63_224" x1="283.688" y1="196.379" x2="322.44" y2="223.375" gradientUnits="userSpaceOnUse">
<stop offset="0.188941" stop-color="#E7F0FF" stop-opacity="0.523483"/>
<stop offset="0.526042" stop-color="#88A4FF"/>
<stop offset="1" stop-color="#B4D2FF" stop-opacity="0.1"/>
</linearGradient>
<radialGradient id="paint5_radial_63_224" cx="0" cy="0" r="1" gradientUnits="userSpaceOnUse" gradientTransform="translate(283.941 234.876) rotate(-45.963) scale(32.575 54.4139)">
<stop stop-color="white"/>
<stop offset="1" stop-color="white" stop-opacity="0"/>
</radialGradient>
<linearGradient id="paint6_linear_63_224" x1="277.158" y1="319.656" x2="283.886" y2="365.664" gradientUnits="userSpaceOnUse">
<stop stop-color="#5A81FF" stop-opacity="0.9"/>
<stop offset="0.463" stop-color="#567DFF" stop-opacity="0.96"/>
<stop offset="1" stop-color="#4E78FF" stop-opacity="0.9"/>
</linearGradient>
<linearGradient id="paint7_linear_63_224" x1="276.879" y1="321.432" x2="314.449" y2="361.604" gradientUnits="userSpaceOnUse">
<stop stop-color="#E7F0FF" stop-opacity="0.52"/>
<stop offset="0.483" stop-color="#88A4FF"/>
<stop offset="1" stop-color="#B4D2FF" stop-opacity="0.1"/>
</linearGradient>
<linearGradient id="paint8_linear_63_224" x1="195" y1="164" x2="195" y2="410" gradientUnits="userSpaceOnUse">
<stop stop-color="white" stop-opacity="0"/>
<stop offset="0.958" stop-color="white"/>
</linearGradient>
<clipPath id="clip0_63_224">
<rect width="390" height="410" fill="white"/>
</clipPath>
<clipPath id="clip1_63_224">
<rect width="57.6668" height="57.6668" fill="white" transform="translate(271.162 178.818)"/>
</clipPath>
</defs>
</svg>
