<svg width="390" height="410" viewBox="0 0 390 410" fill="none" xmlns="http://www.w3.org/2000/svg">
<g filter="url(#filter0_f_63_245)">
<rect x="40.5" y="26" width="149" height="312" rx="8.48041" fill="#939CB1" fill-opacity="0.5"/>
</g>
<g filter="url(#filter1_f_63_245)">
<rect x="202" y="26" width="149" height="149" rx="8.48041" fill="#939CB1" fill-opacity="0.5"/>
</g>
<g filter="url(#filter2_f_63_245)">
<rect x="202" y="189" width="149" height="149" rx="8.48041" fill="#939CB1" fill-opacity="0.5"/>
</g>
<rect x="43.0176" y="28" width="143.733" height="308" rx="8.55556" fill="white"/>
<rect x="43.8731" y="28.8556" width="142.022" height="306.289" rx="7.7" stroke="#1F64C3" stroke-opacity="0.1" stroke-width="1.71111"/>
<rect x="203.859" y="28" width="144.589" height="144.589" rx="8.55556" fill="white"/>
<rect x="204.715" y="28.8556" width="142.878" height="142.878" rx="7.7" stroke="#1F64C3" stroke-opacity="0.1" stroke-width="1.71111"/>
<rect x="203.859" y="191.411" width="144.589" height="144.589" rx="8.55556" fill="white"/>
<rect x="204.715" y="192.267" width="142.878" height="142.878" rx="7.7" stroke="#1F64C3" stroke-opacity="0.1" stroke-width="1.71111"/>
<path d="M125.913 248.644H93.4486C89.6919 248.644 86.6465 251.708 86.6465 255.486V303.588C86.6465 307.367 89.6919 310.43 93.4486 310.43H125.913C129.669 310.43 132.715 307.367 132.715 303.588V255.486C132.715 251.708 129.669 248.644 125.913 248.644Z" fill="#0567ED"/>
<g filter="url(#filter3_b_63_245)">
<path d="M165.401 237.611H116.484C112.727 237.611 109.682 240.675 109.682 244.453V314.614C109.682 318.392 112.727 321.456 116.484 321.456H165.401C169.158 321.456 172.203 318.392 172.203 314.614V244.453C172.203 240.675 169.158 237.611 165.401 237.611Z" fill="url(#paint0_linear_63_245)" fill-opacity="0.3"/>
<path d="M116.484 237.802H165.401C169.052 237.802 172.012 240.779 172.012 244.453V314.614C172.012 318.288 169.052 321.265 165.401 321.265H116.484C112.834 321.265 109.873 318.288 109.873 314.614V244.453C109.873 240.779 112.834 237.802 116.484 237.802Z" stroke="url(#paint1_linear_63_245)" stroke-width="0.381936"/>
</g>
<rect x="125.038" y="279.541" width="12.6033" height="15.72" rx="4.87567" fill="#F9F9F9"/>
<rect x="145.204" y="279.541" width="12.6033" height="15.72" rx="4.87567" fill="#F9F9F9"/>
<path d="M127.054 283.991V279.18C127.054 270.915 133.487 264.214 141.422 264.214C149.357 264.214 155.79 270.915 155.79 279.18V283.991" stroke="#F9F9F9" stroke-width="3.90054"/>
<g clip-path="url(#clip0_63_245)">
<path d="M293.733 285.055L298.454 278.375C299.25 277.247 301.025 277.981 300.79 279.344L299.402 287.405C299.25 288.287 300.018 289.055 300.9 288.903L308.961 287.515C310.321 287.28 311.058 289.055 309.93 289.851L303.247 294.569C302.517 295.084 302.517 296.171 303.247 296.687L309.93 301.404C311.058 302.2 310.324 303.975 308.961 303.74L300.9 302.352C300.018 302.2 299.25 302.968 299.402 303.851L300.79 311.911C301.025 313.271 299.25 314.008 298.454 312.88L293.736 306.197C293.221 305.467 292.134 305.467 291.618 306.197L286.901 312.88C286.105 314.008 284.33 313.274 284.565 311.911L285.953 303.851C286.105 302.968 285.337 302.2 284.454 302.352L276.394 303.74C275.034 303.975 274.297 302.2 275.425 301.404L282.108 296.687C282.838 296.171 282.838 295.084 282.108 294.569L275.425 289.848C274.297 289.052 275.031 287.277 276.394 287.512L284.454 288.9C285.337 289.052 286.105 288.284 285.953 287.401L284.565 279.341C284.33 277.981 286.105 277.244 286.901 278.372L291.618 285.055C292.134 285.785 293.221 285.785 293.736 285.055H293.733Z" fill="#0567ED"/>
</g>
<g filter="url(#filter4_b_63_245)">
<path d="M313.018 280.517H313.819C321.239 280.517 327.265 286.528 327.265 293.922V305.254C327.265 305.975 326.683 306.555 325.96 306.555H300.883C300.159 306.555 299.578 305.975 299.578 305.254V293.922C299.578 286.528 305.597 280.517 313.018 280.517Z" fill="url(#paint2_linear_63_245)" fill-opacity="0.3" stroke="url(#paint3_linear_63_245)" stroke-width="0.256667"/>
<path d="M295.855 311.686L295.856 311.687L295.86 311.675C296.183 310.602 297.264 309.853 298.514 309.853H328.337C329.585 309.853 330.661 310.608 330.991 311.676L330.991 311.676L330.995 311.685L333.692 318.508C334.116 319.915 332.949 321.327 331.301 321.327H331.295H295.446C293.792 321.327 292.632 319.909 293.055 318.509L295.855 311.686Z" fill="url(#paint4_linear_63_245)" fill-opacity="0.3" stroke="url(#paint5_linear_63_245)" stroke-width="0.256667"/>
</g>
<path d="M61.7865 44.9906C62.3229 44.9906 62.8242 45.0834 63.2904 45.2688C63.7566 45.4543 64.1552 45.7175 64.486 46.0584H67.5916V44.2537H69.5016V52.2695H67.5916V50.6303H64.471C64.1401 50.9661 63.7391 51.2268 63.2679 51.4123C62.8017 51.5928 62.2979 51.683 61.7564 51.683C61.0797 51.683 60.4656 51.5376 59.9142 51.2469C59.3627 50.9561 58.9291 50.5576 58.6133 50.0513C58.2975 49.5399 58.1421 48.971 58.1471 48.3443C58.1421 47.7027 58.2975 47.1287 58.6133 46.6224C58.9291 46.111 59.3652 45.7125 59.9217 45.4268C60.4781 45.136 61.0997 44.9906 61.7865 44.9906ZM61.7865 46.6299C61.4306 46.6299 61.1123 46.6976 60.8315 46.8329C60.5558 46.9683 60.3403 47.1663 60.1849 47.427C60.0345 47.6876 59.9618 47.9934 59.9668 48.3443C59.9618 48.6902 60.037 48.9935 60.1924 49.2542C60.3478 49.5149 60.5633 49.7154 60.8391 49.8558C61.1148 49.9961 61.4306 50.0638 61.7865 50.0588C62.1324 50.0638 62.4407 49.9961 62.7114 49.8558C62.9821 49.7154 63.1927 49.5149 63.3431 49.2542C63.4985 48.9935 63.5762 48.6902 63.5762 48.3443C63.5762 47.9934 63.4985 47.6876 63.3431 47.427C63.1927 47.1663 62.9821 46.9683 62.7114 46.8329C62.4407 46.6976 62.1324 46.6299 61.7865 46.6299ZM64.8244 52.5553C65.7869 52.5553 66.6216 52.6631 67.3284 52.8786C68.0403 53.0892 68.5867 53.3975 68.9677 53.8035C69.3487 54.2046 69.5417 54.6858 69.5467 55.2473C69.5417 55.8087 69.3487 56.29 68.9677 56.691C68.5867 57.0971 68.0403 57.4054 67.3284 57.6159C66.6216 57.8315 65.7869 57.9393 64.8244 57.9393C63.8619 57.9393 63.0272 57.8315 62.3204 57.6159C61.6136 57.4054 61.0697 57.0971 60.6887 56.691C60.3077 56.29 60.1172 55.8087 60.1172 55.2473C60.1172 54.6858 60.3077 54.2046 60.6887 53.8035C61.0697 53.3975 61.6136 53.0892 62.3204 52.8786C63.0272 52.6631 63.8619 52.5553 64.8244 52.5553ZM64.8244 54.0141C63.907 54.0141 63.2052 54.1168 62.7189 54.3224C62.2377 54.5279 61.9971 54.8362 61.9971 55.2473C61.9971 55.6433 62.2377 55.9441 62.7189 56.1496C63.2052 56.3501 63.907 56.4504 64.8244 56.4504C65.7518 56.4504 66.4562 56.3501 66.9374 56.1496C67.4237 55.9441 67.6668 55.6433 67.6668 55.2473C67.6668 54.8362 67.4262 54.5279 66.9449 54.3224C66.4637 54.1168 65.7568 54.0141 64.8244 54.0141ZM65.3132 47.5773C65.3683 47.828 65.3959 48.0837 65.3959 48.3443C65.3959 48.595 65.3683 48.8456 65.3132 49.0963H67.5916V47.5773H65.3132ZM76.3143 47.3518C76.3092 48.1889 76.427 49.001 76.6677 49.7881C76.9083 50.5701 77.2717 51.2719 77.758 51.8936C78.2443 52.5152 78.8408 52.9964 79.5477 53.3373L78.3896 54.8713C77.6778 54.5204 77.0687 54.0266 76.5624 53.3899C76.0611 52.7533 75.6626 52.0063 75.3668 51.1491C75.061 52.0615 74.6374 52.8611 74.096 53.5479C73.5596 54.2296 72.9154 54.756 72.1635 55.127L70.9754 53.5779C71.7223 53.237 72.3515 52.7433 72.8628 52.0966C73.3741 51.4449 73.7551 50.7105 74.0058 49.8934C74.2614 49.0712 74.3893 48.224 74.3893 47.3518V45.3064H76.3143V47.3518ZM82.0742 49.5324H84.0895V51.1566H82.0742V57.9393H80.1492V44.2537H82.0742V49.5324ZM95.6395 45.4117C95.6395 46.1085 95.6219 46.7552 95.5868 47.3518C95.5567 47.9433 95.479 48.605 95.3537 49.3369L93.4287 49.2166C93.5089 48.7805 93.5691 48.3644 93.6092 47.9684L85.849 48.2992L85.6385 46.8254L93.7145 46.66L93.737 45.9982H86.0145V44.5244H95.6395V45.4117ZM97.0381 51.3822H84.6158V49.8934H89.2629V48.6H91.1879V49.8934H97.0381V51.3822ZM95.5492 55.5932H87.9244V56.285H95.9102V57.7287H86.0445V54.2547H93.6543V53.5178H86.0295V52.0891H95.5492V55.5932ZM109.656 54.4953H107.836V44.2537H109.656V54.4953ZM106.889 54.0893H105.069V48.9459H103.4V47.3818H105.069V44.4643H106.889V54.0893ZM110.002 57.6986H100.377V53.2922H102.302V56.1646H110.002V57.6986ZM102.212 46.9607C102.212 47.813 102.41 48.59 102.806 49.2918C103.202 49.9886 103.816 50.53 104.648 50.916L103.58 52.3898C102.542 51.8986 101.78 51.094 101.294 49.9761C101.043 50.5927 100.708 51.1366 100.287 51.6078C99.8704 52.079 99.3691 52.45 98.7826 52.7207L97.7299 51.2619C98.3264 50.9712 98.8202 50.5977 99.2112 50.1415C99.6022 49.6803 99.888 49.1765 100.068 48.6301C100.254 48.0837 100.347 47.5272 100.347 46.9607V45.1711H102.212V46.9607ZM122.755 57.9693H120.86V50.6303H118.454V49.0813H120.86V44.2537H122.755V57.9693ZM118.228 46.9457H113.746V49.2166H117.732V50.7205H113.746V53.3072C114.779 53.2972 115.689 53.2696 116.476 53.2245C117.263 53.1744 118.058 53.0867 118.86 52.9613L119.055 54.4953C118.103 54.6407 117.155 54.741 116.213 54.7961C115.27 54.8462 114.173 54.8713 112.919 54.8713H111.837V45.3967H118.228V46.9457Z" fill="#1F64C3"/>
<path d="M223.081 48.3895C223.081 49.5074 223.3 50.53 223.736 51.4574C224.177 52.3798 224.861 53.0867 225.788 53.5779L224.721 54.9916C224.124 54.6858 223.615 54.2697 223.194 53.7434C222.773 53.217 222.44 52.6079 222.194 51.9161C221.943 52.6781 221.608 53.3498 221.187 53.9313C220.765 54.5078 220.254 54.9665 219.653 55.3074L218.57 53.8637C219.191 53.5077 219.703 53.0415 220.104 52.465C220.505 51.8835 220.798 51.2444 220.983 50.5476C221.174 49.8507 221.272 49.1314 221.277 48.3895V48.1338H219.006V46.5697H221.277V44.7199H223.066V46.5697H225.322V48.1338H223.081V48.3895ZM230.751 57.9393H228.917V51.0814H227.759V57.3076H225.939V44.4492H227.759V49.5174H228.917V44.2537H230.751V57.9393ZM239.504 46.7352H234.797V47.8029H239.098V49.2918H234.797V50.3896C236.15 50.3896 237.231 50.3696 238.038 50.3295C238.85 50.2894 239.66 50.2042 240.467 50.0738L240.662 51.5777C239.83 51.7131 238.988 51.8058 238.136 51.856C237.288 51.9011 236.221 51.9236 234.932 51.9236H234.045H232.872V45.2012H239.504V46.7352ZM243.58 52.5553H241.655V44.2688H243.58V52.5553ZM238.918 52.7357C239.875 52.7357 240.71 52.8385 241.422 53.044C242.133 53.2496 242.682 53.5479 243.068 53.9389C243.454 54.3299 243.65 54.7961 243.655 55.3375C243.65 55.8839 243.454 56.3501 243.068 56.7361C242.682 57.1271 242.133 57.4254 241.422 57.631C240.715 57.8365 239.88 57.9393 238.918 57.9393C237.945 57.9393 237.105 57.8365 236.399 57.631C235.692 57.4304 235.15 57.1347 234.774 56.7437C234.398 56.3526 234.21 55.8839 234.21 55.3375C234.21 54.7961 234.398 54.3299 234.774 53.9389C235.15 53.5479 235.692 53.2496 236.399 53.044C237.105 52.8385 237.945 52.7357 238.918 52.7357ZM238.918 54.2246C238 54.2246 237.303 54.3199 236.827 54.5104C236.356 54.6958 236.12 54.9715 236.12 55.3375C236.12 55.7135 236.356 55.9992 236.827 56.1947C237.303 56.3852 238 56.4805 238.918 56.4805C239.83 56.4805 240.527 56.3852 241.008 56.1947C241.489 55.9992 241.73 55.7135 241.73 55.3375C241.73 54.9715 241.489 54.6958 241.008 54.5104C240.532 54.3199 239.835 54.2246 238.918 54.2246ZM253.972 46.4043C253.972 46.9708 254.084 47.5122 254.31 48.0285C254.536 48.5398 254.882 48.9985 255.348 49.4046C255.819 49.8056 256.403 50.1139 257.1 50.3295L256.077 51.8184C255.365 51.5827 254.754 51.2419 254.242 50.7957C253.731 50.3495 253.325 49.8207 253.024 49.2091C252.718 49.9159 252.295 50.5275 251.753 51.0438C251.217 51.5552 250.568 51.9387 249.806 52.1943L248.768 50.6904C249.505 50.4448 250.117 50.0939 250.603 49.6377C251.089 49.1815 251.45 48.6627 251.686 48.0812C251.921 47.4946 252.042 46.8755 252.047 46.2238V44.9756H253.972V46.4043ZM259.837 47.457H261.687V49.0512H259.837V52.3748H257.912V44.2537H259.837V47.457ZM255.355 52.6455C256.298 52.6455 257.115 52.7508 257.807 52.9613C258.498 53.1719 259.032 53.4752 259.408 53.8712C259.784 54.2672 259.972 54.741 259.972 55.2924C259.972 55.8488 259.784 56.3251 259.408 56.7211C259.037 57.1171 258.503 57.4179 257.807 57.6234C257.115 57.834 256.298 57.9393 255.355 57.9393C254.393 57.9393 253.558 57.834 252.851 57.6234C252.149 57.4179 251.608 57.1171 251.227 56.7211C250.851 56.3251 250.663 55.8488 250.663 55.2924C250.663 54.741 250.851 54.2672 251.227 53.8712C251.608 53.4752 252.152 53.1719 252.859 52.9613C253.566 52.7508 254.398 52.6455 255.355 52.6455ZM255.355 54.1494C254.448 54.1494 253.759 54.2472 253.287 54.4427C252.816 54.6332 252.583 54.9164 252.588 55.2924C252.573 56.0544 253.495 56.4354 255.355 56.4354C257.17 56.4354 258.077 56.0544 258.077 55.2924C258.077 54.9164 257.844 54.6332 257.378 54.4427C256.917 54.2472 256.243 54.1494 255.355 54.1494ZM273.146 47.3367H274.996V48.9158H273.146V51.9387H271.221V44.2537H273.146V47.3367ZM268.921 46.6299H264.74V49.8934C266.008 49.8833 267.031 49.8507 267.808 49.7956C268.59 49.7354 269.357 49.6277 270.109 49.4723L270.304 50.9762C269.492 51.1617 268.64 51.2845 267.747 51.3446C266.86 51.3998 265.602 51.4273 263.973 51.4273H262.815V45.1109H268.921V46.6299ZM273.146 57.7738H264.198V52.5102H273.146V57.7738ZM266.093 56.2699H271.252V54.0291H266.093V56.2699Z" fill="#1F64C3"/>
<path d="M230.345 218.102H228.435V215.515H226.586V213.996H228.435V212.628H226.586V211.079H228.435V207.68H230.345V218.102ZM226.45 210.628H218.84V209.109H221.788V207.65H223.698V209.109H226.45V210.628ZM222.721 211.109C223.342 211.109 223.899 211.224 224.39 211.455C224.881 211.68 225.265 211.999 225.54 212.41C225.821 212.816 225.964 213.279 225.969 213.801C225.964 214.322 225.821 214.786 225.54 215.192C225.265 215.598 224.881 215.914 224.39 216.139C223.899 216.365 223.342 216.478 222.721 216.478C222.104 216.478 221.55 216.365 221.059 216.139C220.572 215.914 220.191 215.598 219.916 215.192C219.645 214.781 219.512 214.317 219.517 213.801C219.512 213.284 219.645 212.821 219.916 212.41C220.191 211.999 220.572 211.68 221.059 211.455C221.55 211.224 222.104 211.109 222.721 211.109ZM222.721 212.598C222.289 212.608 221.943 212.718 221.683 212.929C221.427 213.134 221.302 213.425 221.307 213.801C221.302 214.182 221.427 214.48 221.683 214.696C221.943 214.911 222.289 215.019 222.721 215.019C223.147 215.019 223.493 214.911 223.758 214.696C224.024 214.48 224.159 214.182 224.164 213.801C224.159 213.425 224.024 213.134 223.758 212.929C223.493 212.718 223.147 212.608 222.721 212.598ZM230.631 221.11H221.232V217.215H223.172V219.576H230.631V221.11ZM237.429 211.395C237.429 212.151 237.557 212.896 237.812 213.628C238.073 214.355 238.461 215.009 238.978 215.59C239.494 216.172 240.121 216.618 240.858 216.929L239.82 218.433C239.033 218.102 238.359 217.616 237.797 216.974C237.236 216.332 236.795 215.583 236.474 214.726C236.158 215.658 235.714 216.478 235.143 217.185C234.571 217.886 233.895 218.418 233.112 218.779L232.015 217.26C232.747 216.934 233.371 216.46 233.887 215.839C234.408 215.217 234.799 214.52 235.06 213.748C235.326 212.971 235.459 212.187 235.459 211.395V210.552H232.556V208.988H240.286V210.552H237.429V211.395ZM243.58 221.35H241.64V207.665H243.58V221.35ZM260.514 215.56H258.604V214.222H255.521V212.688H258.604V211.379H255.656C254.809 213.54 252.874 215.034 249.851 215.861L249.099 214.342C250.633 213.941 251.809 213.382 252.626 212.665C253.443 211.943 253.922 211.099 254.062 210.131H249.836V208.597H256.152C256.152 209.058 256.12 209.485 256.055 209.876H258.604V207.68H260.514V215.56ZM255.957 215.726C256.879 215.726 257.691 215.839 258.393 216.064C259.095 216.29 259.639 216.611 260.025 217.027C260.416 217.443 260.614 217.932 260.619 218.493C260.614 219.059 260.416 219.553 260.025 219.974C259.639 220.395 259.095 220.719 258.393 220.944C257.691 221.175 256.879 221.29 255.957 221.29C255.024 221.29 254.205 221.175 253.498 220.944C252.791 220.719 252.242 220.395 251.851 219.974C251.465 219.553 251.275 219.059 251.28 218.493C251.275 217.932 251.465 217.443 251.851 217.027C252.242 216.611 252.791 216.29 253.498 216.064C254.205 215.839 255.024 215.726 255.957 215.726ZM255.957 217.23C255.085 217.22 254.405 217.325 253.919 217.546C253.433 217.761 253.19 218.077 253.19 218.493C253.19 218.909 253.43 219.227 253.912 219.448C254.398 219.664 255.08 219.771 255.957 219.771C256.819 219.771 257.491 219.664 257.972 219.448C258.453 219.227 258.694 218.909 258.694 218.493C258.694 218.077 258.453 217.761 257.972 217.546C257.491 217.325 256.819 217.22 255.957 217.23ZM270.094 210.357H267.326C267.346 210.768 267.477 211.161 267.717 211.537C267.963 211.908 268.324 212.237 268.8 212.522C269.276 212.808 269.858 213.024 270.545 213.169L269.718 214.628C268.941 214.463 268.274 214.197 267.717 213.831C267.161 213.465 266.725 213.021 266.409 212.5C266.093 213.086 265.647 213.585 265.071 213.996C264.494 214.402 263.797 214.698 262.98 214.884L262.168 213.395C262.865 213.234 263.454 213.001 263.935 212.695C264.416 212.39 264.78 212.036 265.025 211.635C265.271 211.234 265.401 210.808 265.416 210.357H262.664V208.853H265.416V207.62H267.356V208.853H270.094V210.357ZM273.146 210.432H274.996V211.996H273.146V214.778H271.221V207.665H273.146V210.432ZM273.146 218.959H265.973V219.786H273.537V221.26H264.093V217.576H271.237V216.809H264.063V215.335H273.146V218.959Z" fill="#1F64C3"/>
<path d="M66.6842 84.0233H65.573V81.2979H62.9704C62.7209 81.5981 62.4129 81.832 62.0464 81.9997C61.6799 82.1634 61.2802 82.2453 60.8474 82.2453C60.3249 82.2453 59.8551 82.1323 59.4379 81.9061C59.0207 81.68 58.6932 81.3661 58.4554 80.9645C58.2175 80.5629 58.0986 80.1087 58.0986 79.6018C58.0986 79.091 58.2175 78.6348 58.4554 78.2332C58.6932 77.8277 59.0207 77.5119 59.4379 77.2858C59.8551 77.0557 60.3249 76.9388 60.8474 76.9349C61.2763 76.9388 61.6721 77.0245 62.0347 77.1922C62.4012 77.356 62.7092 77.586 62.9587 77.8823H65.573V76.3032H66.6842V84.0233ZM66.965 86.5498H59.8766V83.2162H60.9878V85.6492H66.965V86.5498ZM60.8474 77.9291C60.5238 77.9291 60.2333 77.9993 59.976 78.1397C59.7226 78.28 59.5237 78.4769 59.3794 78.7304C59.2352 78.9838 59.163 79.2743 59.163 79.6018C59.163 79.9293 59.2352 80.2198 59.3794 80.4732C59.5237 80.7228 59.7226 80.9177 59.976 81.0581C60.2333 81.1945 60.5238 81.2628 60.8474 81.2628C61.1632 81.2628 61.4459 81.1945 61.6955 81.0581C61.9489 80.9177 62.1477 80.7208 62.292 80.4674C62.4363 80.2139 62.5084 79.9254 62.5084 79.6018C62.5084 79.2782 62.4363 78.9896 62.292 78.7362C62.1477 78.4789 61.9489 78.28 61.6955 78.1397C61.442 77.9993 61.1593 77.9291 60.8474 77.9291ZM63.45 78.783C63.5319 79.052 63.5728 79.325 63.5728 79.6018C63.5728 79.8786 63.5338 80.1438 63.4559 80.3972H65.573V78.783H63.45ZM77.8549 82.0465H73.6206V83.0524C74.5914 83.107 75.344 83.2942 75.8781 83.6139C76.4162 83.9297 76.6852 84.3586 76.6852 84.9006C76.6852 85.2944 76.541 85.6297 76.2524 85.9065C75.9639 86.1872 75.5487 86.3978 75.0067 86.5381C74.4686 86.6824 73.8233 86.7526 73.0708 86.7487C72.3105 86.7526 71.6574 86.6824 71.1116 86.5381C70.5696 86.3978 70.1544 86.1872 69.8658 85.9065C69.5773 85.6297 69.4331 85.2944 69.4331 84.9006C69.4331 84.3586 69.7021 83.9297 70.2401 83.6139C70.7782 83.2942 71.5385 83.107 72.5211 83.0524V82.0465H68.2984V81.1458H77.8549V82.0465ZM73.0708 83.8946C72.2676 83.8946 71.6477 83.9823 71.211 84.1578C70.7743 84.3332 70.556 84.5808 70.556 84.9006C70.556 85.2164 70.7763 85.462 71.2169 85.6375C71.6574 85.8129 72.2754 85.8987 73.0708 85.8948C73.5933 85.8987 74.0417 85.8617 74.416 85.7837C74.7942 85.7057 75.0808 85.5926 75.2757 85.4445C75.4746 85.2924 75.574 85.1111 75.574 84.9006C75.574 84.5808 75.3537 84.3332 74.9131 84.1578C74.4764 83.9823 73.8623 83.8946 73.0708 83.8946ZM77.001 77.6601H73.8194C73.8701 77.9915 74.0553 78.3034 74.3751 78.5958C74.6987 78.8883 75.1198 79.1339 75.6383 79.3328C76.1608 79.5277 76.7359 79.6564 77.3636 79.7188L76.9659 80.596C76.3616 80.5259 75.7982 80.3972 75.2757 80.21C74.7572 80.019 74.3068 79.7792 73.9247 79.4907C73.5465 79.2021 73.2638 78.8746 73.0767 78.5081C72.8856 78.8746 72.5991 79.2021 72.2169 79.4907C71.8387 79.7792 71.3904 80.019 70.8718 80.21C70.3532 80.3972 69.7918 80.5259 69.1874 80.596L68.8014 79.7188C69.4214 79.6564 69.9887 79.5277 70.5033 79.3328C71.0219 79.1339 71.441 78.8883 71.7608 78.5958C72.0844 78.3034 72.2715 77.9915 72.3222 77.6601H69.1757V76.7711H77.001V77.6601ZM88.2302 83.2045H83.9491V86.7604H82.8613V83.2045H78.6386V82.3038H88.2302V83.2045ZM87.0254 80.9703H79.8434V76.853H87.0254V80.9703ZM80.9312 80.1048H85.9142V77.742H80.9312V80.1048ZM98.0206 78.3034H89.4935V77.4144H93.2248V76.2447H94.3244V77.4144H98.0206V78.3034ZM98.5938 83.8946H96.1725V86.7838H95.0496V83.8946H92.523V86.7838H91.4118V83.8946H89.0022V82.9939H98.5938V83.8946ZM93.7746 78.8415C94.4998 78.8415 95.1237 78.9097 95.6461 79.0462C96.1686 79.1787 96.5683 79.3776 96.8451 79.6427C97.1219 79.904 97.2603 80.2217 97.2603 80.596C97.2603 80.9664 97.1219 81.2842 96.8451 81.5493C96.5683 81.8106 96.1686 82.0094 95.6461 82.1459C95.1237 82.2824 94.4998 82.3506 93.7746 82.3506C93.0455 82.3506 92.4197 82.2824 91.8972 82.1459C91.3748 82.0094 90.9751 81.8106 90.6983 81.5493C90.4215 81.2842 90.285 80.9664 90.2889 80.596C90.285 80.2217 90.4215 79.904 90.6983 79.6427C90.9751 79.3776 91.3748 79.1787 91.8972 79.0462C92.4197 78.9097 93.0455 78.8415 93.7746 78.8415ZM93.7746 79.6837C93.0143 79.6915 92.4333 79.7714 92.0317 79.9235C91.634 80.0755 91.4352 80.2997 91.4352 80.596C91.4352 80.8885 91.636 81.1127 92.0376 81.2686C92.4392 81.4207 93.0182 81.4967 93.7746 81.4967C94.5232 81.4967 95.0983 81.4207 95.4999 81.2686C95.9054 81.1127 96.1101 80.8885 96.114 80.596C96.1101 80.2997 95.9074 80.0755 95.5058 79.9235C95.1081 79.7714 94.531 79.6915 93.7746 79.6837ZM102.641 84.8421L105.577 81.8827C105.932 81.5084 106.203 81.2082 106.39 80.982C106.577 80.7559 106.719 80.5356 106.817 80.3212C106.918 80.1028 106.969 79.8747 106.969 79.6369C106.969 79.364 106.901 79.1242 106.764 78.9175C106.628 78.7109 106.441 78.551 106.203 78.4379C105.965 78.3249 105.698 78.2683 105.401 78.2683C105.093 78.2683 104.822 78.3307 104.589 78.4555C104.355 78.5802 104.173 78.7557 104.045 78.9818C103.92 79.208 103.857 79.4692 103.857 79.7655H102.641C102.637 79.2587 102.754 78.8103 102.992 78.4204C103.23 78.0305 103.561 77.7283 103.986 77.5139C104.411 77.2994 104.891 77.1922 105.425 77.1922C105.963 77.1922 106.441 77.2975 106.858 77.508C107.279 77.7147 107.606 78.0012 107.84 78.3678C108.074 78.7343 108.193 79.1456 108.197 79.6018C108.193 79.9254 108.131 80.2373 108.01 80.5376C107.889 80.8339 107.682 81.1653 107.39 81.5318C107.098 81.8944 106.684 82.3389 106.15 82.8653L104.431 84.6081V84.6783H108.337V85.7778H102.641V84.8421ZM109.39 83.0875L113.133 77.3092H114.724V83.0407H115.882V84.1285H114.724V85.7778H113.508V84.1285H109.39V83.0875ZM113.508 83.0407V78.8415H113.414L110.747 82.9705V83.0407H113.508ZM120.666 78.9585C120.662 79.5901 120.777 80.212 121.011 80.8241C121.249 81.4324 121.578 81.9743 122 82.45C122.425 82.9257 122.904 83.2825 123.438 83.5203L122.772 84.3976C122.175 84.113 121.647 83.6938 121.187 83.1401C120.727 82.5826 120.372 81.9431 120.122 81.2218C119.877 81.9977 119.518 82.684 119.046 83.2805C118.578 83.8771 118.034 84.3274 117.414 84.6315L116.736 83.6958C117.278 83.454 117.761 83.0875 118.186 82.5962C118.615 82.105 118.949 81.5416 119.186 80.906C119.424 80.2666 119.543 79.6174 119.543 78.9585V77.1688H120.666V78.9585ZM125.497 86.7955H124.386V76.2915H125.497V86.7955ZM135.404 79.3912H136.925V80.3153H135.404V83.9063H134.281V76.2915H135.404V79.3912ZM132.562 77.0869C132.562 77.9915 132.365 78.8161 131.971 79.5609C131.578 80.3056 131.01 80.9489 130.269 81.4909C129.532 82.0289 128.651 82.452 127.626 82.76L127.158 81.871C127.973 81.6254 128.681 81.3115 129.281 80.9294C129.885 80.5473 130.363 80.1087 130.714 79.6135C131.069 79.1183 131.281 78.5841 131.351 78.011H127.602V77.0869H132.562ZM135.837 86.5498H128.749V83.1226H129.872V85.6492H135.837V86.5498ZM61.5609 97.9642C61.5609 98.4243 61.6623 98.8649 61.8651 99.286C62.0717 99.7071 62.3641 100.079 62.7423 100.403C63.1244 100.723 63.5728 100.966 64.0875 101.134L63.491 102.011C62.9256 101.813 62.4304 101.518 62.0054 101.128C61.5843 100.734 61.2588 100.276 61.0287 99.7539C60.7987 100.35 60.4634 100.869 60.0228 101.31C59.5861 101.746 59.0656 102.078 58.4612 102.304L57.8647 101.415C58.4027 101.224 58.8648 100.951 59.2508 100.596C59.6407 100.237 59.9389 99.824 60.1456 99.3562C60.3522 98.8883 60.4575 98.3931 60.4614 97.8706V96.8413H61.5609V97.9642ZM66.1813 98.9234H67.7019V99.8591H66.1813V102.62H65.0701V96.2915H66.1813V98.9234ZM62.8008 102.865C63.5143 102.865 64.1323 102.943 64.6548 103.099C65.1773 103.251 65.5769 103.474 65.8538 103.766C66.1345 104.054 66.2748 104.401 66.2748 104.807C66.2748 105.216 66.1345 105.567 65.8538 105.86C65.5769 106.152 65.1773 106.374 64.6548 106.526C64.1323 106.679 63.5143 106.753 62.8008 106.749C62.0795 106.753 61.4537 106.679 60.9234 106.526C60.3932 106.374 59.9857 106.152 59.7011 105.86C59.4204 105.567 59.28 105.216 59.28 104.807C59.28 104.401 59.4204 104.054 59.7011 103.766C59.9857 103.474 60.3932 103.251 60.9234 103.099C61.4537 102.943 62.0795 102.865 62.8008 102.865ZM62.8008 103.743C62.2979 103.743 61.8651 103.785 61.5025 103.871C61.1398 103.953 60.863 104.074 60.672 104.234C60.4809 104.394 60.3873 104.585 60.3912 104.807C60.3873 105.15 60.5959 105.413 61.017 105.597C61.4381 105.78 62.0327 105.875 62.8008 105.883C63.5611 105.875 64.1479 105.78 64.5612 105.597C64.9784 105.413 65.187 105.15 65.187 104.807C65.187 104.472 64.9765 104.21 64.5554 104.023C64.1382 103.836 63.5533 103.743 62.8008 103.743ZM76.5332 98.783H78.0538V99.7071H76.5332V102.21H75.4219V96.2915H76.5332V98.783ZM73.4217 97.8823H69.8658V100.771C70.9069 100.768 71.7569 100.742 72.4158 100.695C73.0747 100.645 73.7259 100.557 74.3692 100.432L74.4979 101.321C73.8272 101.466 73.1449 101.561 72.4509 101.608C71.7569 101.651 70.8055 101.672 69.5968 101.672H68.7663V96.9817H73.4217V97.8823ZM76.5332 106.632H69.8424V102.725H76.5332V106.632ZM70.9303 105.743H75.4336V103.614H70.9303V105.743ZM82.4285 98.9585C82.4285 99.594 82.5396 100.216 82.7618 100.824C82.988 101.432 83.3038 101.972 83.7093 102.444C84.1148 102.916 84.5807 103.271 85.1071 103.509L84.4287 104.398C83.8399 104.105 83.3252 103.678 82.8847 103.117C82.448 102.555 82.1127 101.91 81.8787 101.181C81.6448 101.949 81.3036 102.633 80.8552 103.234C80.4068 103.83 79.8863 104.285 79.2937 104.596L78.5918 103.696C79.1221 103.442 79.5919 103.068 80.0013 102.573C80.4146 102.074 80.7343 101.508 80.9605 100.877C81.1905 100.241 81.3056 99.6018 81.3056 98.9585V97.1688H82.4285V98.9585ZM87.388 106.795H86.2885V100.678H83.9491V99.7772H86.2885V96.2915H87.388V106.795ZM97.6814 106.795H96.5702V96.2915H97.6814V106.795ZM90.6983 99.8591H93.5173V97.1688H94.6168V104.281H89.5871V97.1688H90.6983V99.8591ZM93.5173 103.368V100.736H90.6983V103.368H93.5173ZM104.676 97.7771C104.676 98.3307 104.854 98.8688 105.208 99.3912C105.567 99.9137 106.041 100.36 106.63 100.731C107.218 101.097 107.846 101.341 108.513 101.462L107.998 102.386C107.441 102.265 106.906 102.066 106.396 101.789C105.885 101.512 105.429 101.175 105.027 100.777C104.629 100.376 104.319 99.9332 104.097 99.4497C103.871 99.9293 103.559 100.37 103.161 100.771C102.768 101.169 102.315 101.506 101.805 101.783C101.294 102.06 100.758 102.261 100.196 102.386L99.705 101.462C100.364 101.337 100.986 101.091 101.571 100.725C102.156 100.354 102.623 99.9098 102.974 99.3912C103.329 98.8688 103.507 98.3307 103.507 97.7771V96.9817H104.676V97.7771ZM108.946 105.392H99.3541V104.468H108.946V105.392ZM121.625 106.772H120.561V96.2915H121.625V106.772ZM119.496 106.246H118.444V100.912H116.818V99.9995H118.444V96.5138H119.496V106.246ZM115.788 99.2158C115.788 99.824 115.87 100.415 116.034 100.988C116.202 101.557 116.449 102.074 116.777 102.538C117.108 103.002 117.512 103.372 117.987 103.649L117.321 104.468C116.833 104.175 116.416 103.778 116.069 103.275C115.722 102.772 115.455 102.197 115.268 101.549C115.077 102.251 114.802 102.877 114.443 103.427C114.085 103.973 113.656 104.401 113.157 104.713L112.478 103.883C112.958 103.59 113.365 103.199 113.701 102.707C114.04 102.216 114.295 101.67 114.467 101.07C114.638 100.465 114.724 99.8474 114.724 99.2158V98.3736H112.794V97.4729H117.59V98.3736H115.788V99.2158ZM127.708 102.877C128.464 102.877 129.119 102.955 129.673 103.111C130.23 103.263 130.659 103.485 130.96 103.778C131.26 104.066 131.412 104.413 131.416 104.819C131.412 105.22 131.258 105.567 130.954 105.86C130.653 106.152 130.225 106.374 129.667 106.526C129.113 106.679 128.46 106.753 127.708 106.749C126.963 106.753 126.312 106.677 125.754 106.521C125.201 106.369 124.774 106.146 124.474 105.854C124.173 105.565 124.023 105.22 124.023 104.819C124.023 104.413 124.173 104.066 124.474 103.778C124.774 103.485 125.201 103.263 125.754 103.111C126.308 102.955 126.959 102.877 127.708 102.877ZM127.708 103.719C127.181 103.719 126.723 103.764 126.333 103.854C125.943 103.939 125.645 104.066 125.439 104.234C125.232 104.398 125.13 104.593 125.134 104.819C125.13 105.041 125.232 105.234 125.439 105.398C125.645 105.558 125.941 105.68 126.327 105.766C126.717 105.852 127.177 105.895 127.708 105.895C128.238 105.895 128.698 105.852 129.088 105.766C129.482 105.68 129.784 105.558 129.995 105.398C130.205 105.234 130.312 105.041 130.316 104.819C130.312 104.593 130.205 104.398 129.995 104.234C129.784 104.066 129.482 103.939 129.088 103.854C128.698 103.764 128.238 103.719 127.708 103.719ZM131.334 97.6835C131.334 98.2488 131.316 98.7343 131.281 99.1398C131.25 99.5453 131.17 99.9878 131.041 100.467L129.954 100.35C130.078 99.8747 130.156 99.4478 130.188 99.0696C130.219 98.6875 130.234 98.2293 130.234 97.6952H124.105V96.8062H131.334V97.6835ZM132.527 102.011H122.994V101.111H126.819V99.1456H127.907V101.111H132.527V102.011Z" fill="#666E79"/>
<path d="M225.097 77.356C225.093 78.4711 224.95 79.4887 224.67 80.4089C224.393 81.3291 223.903 82.1868 223.202 82.9822C222.5 83.7776 221.537 84.4756 220.312 85.076L219.704 84.2455C220.628 83.7932 221.387 83.2864 221.979 82.7249C222.572 82.1634 223.03 81.5416 223.354 80.8592L219.926 81.1809L219.763 80.2217L223.693 79.9586C223.845 79.4361 223.942 78.8688 223.985 78.2566H220.312V77.356H225.097ZM227.81 80.4791H229.436V81.3914H227.81V86.7604H226.699V76.2915H227.81V80.4791ZM235.448 77.356C235.445 78.4711 235.302 79.4887 235.022 80.4089C234.745 81.3291 234.255 82.1868 233.554 82.9822C232.852 83.7776 231.889 84.4756 230.664 85.076L230.056 84.2455C230.98 83.7932 231.739 83.2864 232.331 82.7249C232.924 82.1634 233.382 81.5416 233.706 80.8592L230.278 81.1809L230.115 80.2217L234.045 79.9586C234.197 79.4361 234.294 78.8688 234.337 78.2566H230.664V77.356H235.448ZM238.162 80.4791H239.788V81.3914H238.162V86.7604H237.051V76.2915H238.162V80.4791ZM245.122 76.9232C245.867 76.9271 246.531 77.046 247.116 77.2799C247.705 77.51 248.165 77.8355 248.497 78.2566C248.828 78.6738 248.994 79.1573 248.994 79.7071C248.994 80.2217 248.853 80.6799 248.573 81.0815C248.296 81.4792 247.906 81.7989 247.403 82.0406C246.904 82.2785 246.327 82.4247 245.672 82.4793V84.5379H249.941V85.462H240.35V84.5379H244.572V82.4793C243.921 82.4247 243.346 82.2785 242.847 82.0406C242.348 81.7989 241.958 81.4792 241.677 81.0815C241.4 80.6799 241.262 80.2217 241.262 79.7071C241.262 79.1573 241.428 78.6738 241.759 78.2566C242.09 77.8355 242.549 77.51 243.133 77.2799C243.718 77.046 244.381 76.9271 245.122 76.9232ZM245.122 77.8355C244.588 77.8316 244.108 77.9077 243.683 78.0636C243.262 78.2157 242.933 78.436 242.695 78.7245C242.457 79.0091 242.338 79.3367 242.338 79.7071C242.338 80.0931 242.457 80.4303 242.695 80.7189C242.933 81.0074 243.262 81.2296 243.683 81.3856C244.104 81.5416 244.584 81.6215 245.122 81.6254C245.664 81.6215 246.145 81.5416 246.567 81.3856C246.992 81.2296 247.323 81.0074 247.561 80.7189C247.799 80.4303 247.918 80.0931 247.918 79.7071C247.918 79.3367 247.799 79.0091 247.561 78.7245C247.323 78.436 246.992 78.2157 246.567 78.0636C246.142 77.9077 245.66 77.8316 245.122 77.8355ZM260.258 82.7951H250.678V81.9061H254.912V80.9119H251.93V76.5606H259.088V77.4378H253.053V78.2917H258.819V79.1339H253.053V80.058H259.158V80.9119H256.024V81.9061H260.258V82.7951ZM259.041 86.7721H257.907V84.5262H251.766V83.6373H259.041V86.7721ZM262.001 88.1991H261.007L261.626 84.9707H262.937L262.001 88.1991ZM270.481 76.7711C271.004 76.7711 271.471 76.8627 271.885 77.046C272.298 77.2292 272.622 77.4866 272.856 77.818C273.09 78.1455 273.207 78.5218 273.207 78.9468C273.207 79.3678 273.09 79.7441 272.856 80.0755C272.622 80.4069 272.298 80.6643 271.885 80.8475C271.471 81.0269 271.004 81.1146 270.481 81.1107C269.959 81.1146 269.493 81.0269 269.083 80.8475C268.674 80.6643 268.354 80.4089 268.124 80.0814C267.894 79.75 267.779 79.3717 267.779 78.9468C267.779 78.5218 267.894 78.1436 268.124 77.8121C268.354 77.4807 268.674 77.2253 269.083 77.046C269.493 76.8627 269.959 76.7711 270.481 76.7711ZM270.481 77.6718C270.165 77.6718 269.883 77.7244 269.633 77.8297C269.387 77.935 269.194 78.0851 269.054 78.28C268.918 78.4711 268.851 78.6933 268.855 78.9468C268.851 79.1963 268.918 79.4166 269.054 79.6076C269.194 79.7987 269.389 79.9469 269.639 80.0521C269.888 80.1535 270.169 80.2022 270.481 80.1983C270.801 80.2022 271.087 80.1535 271.341 80.0521C271.594 79.9469 271.791 79.7987 271.932 79.6076C272.072 79.4166 272.142 79.1963 272.142 78.9468C272.142 78.6933 272.072 78.4711 271.932 78.28C271.791 78.0851 271.594 77.935 271.341 77.8297C271.091 77.7244 270.805 77.6718 270.481 77.6718ZM275.757 86.7721H274.657V76.3032H275.757V86.7721ZM267.031 81.9295C268.27 81.9295 269.473 81.9042 270.639 81.8535C271.809 81.7989 272.906 81.6956 273.932 81.5435L274.014 82.374C273.156 82.5377 272.185 82.6586 271.101 82.7366V86.4446H269.99V82.7951C269.327 82.8263 268.391 82.8458 267.183 82.8536L267.031 81.9295ZM280.564 78.514C280.564 78.9039 280.646 79.2821 280.81 79.6486C280.973 80.0151 281.211 80.3446 281.523 80.637C281.839 80.9294 282.213 81.1575 282.646 81.3213L282.12 82.1634C281.636 81.9763 281.221 81.7112 280.874 81.368C280.527 81.0249 280.258 80.6272 280.067 80.1749C279.876 80.674 279.605 81.1146 279.254 81.4967C278.903 81.8749 278.482 82.1673 277.991 82.374L277.441 81.5552C277.874 81.3758 278.246 81.1283 278.558 80.8124C278.87 80.4966 279.106 80.1399 279.266 79.7422C279.429 79.3445 279.511 78.9351 279.511 78.514V78.5023H277.687V77.625H279.511V76.4436H280.564V77.625H282.365V78.5023H280.564V78.514ZM286.331 83.3799H285.278V79.8357H284.085V82.4676H283.02V76.4787H284.085V78.9117H285.278V76.3032H286.331V83.3799ZM283.336 83.1577C283.336 83.5788 283.492 83.9784 283.804 84.3566C284.116 84.7348 284.539 85.0565 285.073 85.3216C285.607 85.5868 286.198 85.7661 286.845 85.8597L286.459 86.7253C285.629 86.6005 284.888 86.349 284.237 85.9708C283.586 85.5926 283.102 85.1286 282.786 84.5789C282.463 85.1286 281.975 85.5926 281.324 85.9708C280.673 86.349 279.936 86.6005 279.114 86.7253L278.716 85.8597C279.367 85.7661 279.96 85.5868 280.494 85.3216C281.028 85.0565 281.449 84.7348 281.757 84.3566C282.069 83.9784 282.225 83.5788 282.225 83.1577V82.9238H283.336V83.1577ZM288.693 88.1991H287.699L288.319 84.9707H289.629L288.693 88.1991ZM301.899 80.3855H303.584V81.3213H301.899V86.7955H300.8V76.2915H301.899V80.3855ZM298.94 81.0873H295.267V83.3565C296.238 83.3526 297.076 83.3273 297.782 83.2805C298.492 83.2298 299.209 83.1382 299.934 83.0056L300.04 83.9063C299.264 84.0506 298.498 84.15 297.741 84.2046C296.989 84.2553 296.082 84.2845 295.022 84.2923H294.168V80.1866H297.841V78.1397H294.144V77.239H298.94V81.0873ZM312.778 83.918H311.666V76.3032H312.778V83.918ZM313.093 86.5498H305.923V83.146H307.046V85.6492H313.093V86.5498ZM307.093 77.005C307.615 77.005 308.087 77.1162 308.508 77.3384C308.933 77.5607 309.267 77.8687 309.508 78.2625C309.754 78.6563 309.877 79.1027 309.877 79.6018C309.877 80.1087 309.754 80.5609 309.508 80.9586C309.267 81.3524 308.933 81.6605 308.508 81.8827C308.087 82.1011 307.615 82.2102 307.093 82.2102C306.57 82.2102 306.097 82.1011 305.672 81.8827C305.247 81.6605 304.911 81.3505 304.666 80.9528C304.42 80.5551 304.297 80.1048 304.297 79.6018C304.297 79.1027 304.42 78.6563 304.666 78.2625C304.911 77.8687 305.247 77.5607 305.672 77.3384C306.097 77.1162 306.57 77.005 307.093 77.005ZM307.093 77.9759C306.769 77.9759 306.477 78.0461 306.216 78.1864C305.958 78.3229 305.756 78.514 305.607 78.7596C305.459 79.0052 305.385 79.286 305.385 79.6018C305.385 79.9254 305.457 80.212 305.602 80.4615C305.75 80.7072 305.952 80.8982 306.21 81.0347C306.471 81.1711 306.765 81.2394 307.093 81.2394C307.413 81.2394 307.701 81.1711 307.958 81.0347C308.216 80.8982 308.419 80.7052 308.567 80.4557C308.715 80.2061 308.789 79.9215 308.789 79.6018C308.789 79.2899 308.715 79.0111 308.567 78.7655C308.419 78.5159 308.214 78.3229 307.953 78.1864C307.695 78.0461 307.409 77.9759 307.093 77.9759Z" fill="#666E79"/>
<path d="M225.845 243.399C225.685 242.888 225.416 242.492 225.038 242.212C224.664 241.927 224.2 241.785 223.646 241.785C223.167 241.785 222.734 241.91 222.348 242.159C221.966 242.405 221.665 242.767 221.447 243.247C221.229 243.723 221.12 244.292 221.12 244.955C221.12 245.621 221.229 246.193 221.447 246.668C221.669 247.144 221.975 247.507 222.365 247.756C222.755 248.002 223.202 248.125 223.705 248.125C224.153 248.125 224.547 248.035 224.886 247.856C225.225 247.676 225.488 247.421 225.676 247.089C225.867 246.754 225.966 246.362 225.974 245.914H223.892V244.849H227.225V245.809C227.225 246.51 227.075 247.126 226.775 247.657C226.475 248.183 226.056 248.59 225.518 248.879C224.984 249.164 224.375 249.306 223.693 249.306C222.933 249.306 222.262 249.13 221.681 248.78C221.1 248.425 220.648 247.92 220.324 247.265C220.004 246.606 219.845 245.836 219.845 244.955C219.845 244.073 220.006 243.305 220.33 242.65C220.654 241.991 221.102 241.486 221.675 241.136C222.252 240.781 222.905 240.603 223.634 240.603C224.239 240.603 224.791 240.722 225.29 240.96C225.793 241.194 226.206 241.523 226.529 241.948C226.857 242.37 227.069 242.853 227.167 243.399H225.845ZM228.711 240.72H231.729C232.364 240.72 232.902 240.839 233.343 241.077C233.784 241.311 234.113 241.635 234.331 242.048C234.554 242.461 234.665 242.935 234.665 243.469C234.665 243.999 234.554 244.471 234.331 244.884C234.113 245.298 233.784 245.623 233.343 245.861C232.902 246.099 232.364 246.218 231.729 246.218H229.998V249.189H228.711V240.72ZM231.6 245.118C232.197 245.118 232.639 244.97 232.928 244.674C233.22 244.374 233.366 243.972 233.366 243.469C233.366 242.962 233.222 242.561 232.934 242.264C232.645 241.968 232.201 241.82 231.6 241.82H229.998V245.118H231.6ZM240.63 242.954C240.591 242.568 240.414 242.266 240.098 242.048C239.782 241.826 239.379 241.715 238.887 241.715C238.548 241.715 238.25 241.769 237.993 241.878C237.735 241.984 237.536 242.132 237.396 242.323C237.26 242.51 237.191 242.724 237.191 242.966C237.191 243.325 237.338 243.6 237.63 243.791C237.922 243.982 238.291 244.132 238.735 244.241L239.554 244.463C240.236 244.623 240.814 244.888 241.285 245.259C241.757 245.629 241.995 246.159 241.999 246.85C241.995 247.329 241.868 247.756 241.619 248.13C241.369 248.505 241.008 248.799 240.537 249.014C240.065 249.224 239.503 249.329 238.852 249.329C238.225 249.329 237.677 249.23 237.209 249.031C236.745 248.828 236.38 248.54 236.115 248.165C235.854 247.791 235.71 247.349 235.682 246.838H236.969C237.008 247.282 237.201 247.622 237.548 247.856C237.895 248.089 238.33 248.206 238.852 248.206C239.207 248.206 239.525 248.15 239.806 248.037C240.09 247.92 240.313 247.758 240.472 247.551C240.636 247.341 240.72 247.099 240.724 246.826C240.72 246.487 240.582 246.224 240.309 246.037C240.036 245.846 239.64 245.684 239.121 245.551L238.115 245.282C236.642 244.877 235.905 244.128 235.905 243.036C235.905 242.561 236.035 242.138 236.297 241.767C236.562 241.397 236.924 241.11 237.384 240.907C237.844 240.705 238.357 240.603 238.923 240.603C239.488 240.603 239.993 240.705 240.437 240.907C240.882 241.106 241.231 241.385 241.484 241.744C241.738 242.099 241.87 242.502 241.882 242.954H240.63ZM254.538 250.183H253.415V239.703H254.538V250.183ZM251.415 240.826C251.415 242.448 251.027 243.89 250.251 245.153C249.479 246.413 248.233 247.454 246.514 248.277L245.929 247.376C247.305 246.721 248.348 245.924 249.058 244.984C249.772 244.044 250.183 242.954 250.292 241.715H246.432V240.826H251.415ZM264.41 242.802H265.931V243.738H264.41V247.411H263.299V239.714H264.41V242.802ZM264.855 249.961H257.766V246.651H258.878V249.06H264.855V249.961ZM257.673 242.136H260.422V240.463H261.521V245.68H256.585V240.463H257.673V242.136ZM260.422 244.791V243.013H257.673V244.791H260.422ZM278.189 245.914H277.078V244.639H274.435V243.726H277.078V242.451H274.54C274.205 243.286 273.655 243.999 272.891 244.592C272.127 245.185 271.171 245.645 270.025 245.972L269.58 245.107C270.816 244.752 271.787 244.253 272.493 243.609C273.203 242.966 273.608 242.221 273.71 241.375H270.119V240.463H274.914C274.914 240.833 274.877 241.204 274.803 241.574H277.078V239.714H278.189V245.914ZM274.739 246.031C275.441 246.031 276.057 246.113 276.587 246.276C277.117 246.44 277.527 246.676 277.815 246.984C278.108 247.292 278.256 247.657 278.26 248.078C278.256 248.499 278.108 248.865 277.815 249.177C277.527 249.485 277.117 249.721 276.587 249.885C276.057 250.053 275.441 250.136 274.739 250.136C274.025 250.136 273.402 250.053 272.867 249.885C272.337 249.721 271.928 249.485 271.639 249.177C271.351 248.865 271.206 248.499 271.206 248.078C271.206 247.657 271.351 247.292 271.639 246.984C271.928 246.676 272.337 246.44 272.867 246.276C273.402 246.113 274.025 246.031 274.739 246.031ZM274.739 246.908C274.24 246.908 273.807 246.955 273.44 247.048C273.078 247.138 272.797 247.271 272.598 247.446C272.403 247.622 272.306 247.832 272.306 248.078C272.306 248.319 272.403 248.528 272.598 248.704C272.797 248.879 273.078 249.014 273.44 249.107C273.807 249.201 274.24 249.247 274.739 249.247C275.23 249.247 275.655 249.201 276.014 249.107C276.376 249.014 276.655 248.879 276.85 248.704C277.045 248.528 277.145 248.319 277.148 248.078C277.145 247.707 276.928 247.421 276.499 247.218C276.07 247.011 275.484 246.908 274.739 246.908ZM283.477 241.715C283.477 242.073 283.582 242.414 283.792 242.738C284.003 243.062 284.301 243.344 284.687 243.586C285.077 243.828 285.531 244.007 286.05 244.124L285.57 244.978C284.962 244.83 284.434 244.598 283.985 244.282C283.537 243.966 283.192 243.588 282.95 243.147C282.712 243.635 282.359 244.056 281.892 244.411C281.428 244.766 280.876 245.025 280.236 245.189L279.745 244.323C280.272 244.19 280.734 243.994 281.131 243.732C281.529 243.471 281.835 243.167 282.05 242.82C282.268 242.469 282.377 242.101 282.377 241.715V241.621H280.096V240.732H282.377V239.668H283.488V240.732H285.757V241.621H283.477V241.715ZM288.038 241.96H289.559V242.884H288.038V245.212H286.927V239.703H288.038V241.96ZM288.038 248.253H282.377V249.212H288.401V250.078H281.289V247.434H286.939V246.557H281.266V245.692H288.038V248.253ZM301.818 247.434H300.706V244.709H298.104C297.854 245.009 297.546 245.243 297.18 245.411C296.813 245.575 296.413 245.656 295.981 245.656C295.458 245.656 294.988 245.543 294.571 245.317C294.154 245.091 293.826 244.777 293.589 244.376C293.351 243.974 293.232 243.52 293.232 243.013C293.232 242.502 293.351 242.046 293.589 241.644C293.826 241.239 294.154 240.923 294.571 240.697C294.988 240.467 295.458 240.35 295.981 240.346C296.41 240.35 296.805 240.436 297.168 240.603C297.534 240.767 297.842 240.997 298.092 241.293H300.706V239.714H301.818V247.434ZM302.098 249.961H295.01V246.627H296.121V249.06H302.098V249.961ZM295.981 241.34C295.657 241.34 295.367 241.41 295.109 241.551C294.856 241.691 294.657 241.888 294.513 242.141C294.368 242.395 294.296 242.685 294.296 243.013C294.296 243.34 294.368 243.631 294.513 243.884C294.657 244.134 294.856 244.329 295.109 244.469C295.367 244.606 295.657 244.674 295.981 244.674C296.297 244.674 296.579 244.606 296.829 244.469C297.082 244.329 297.281 244.132 297.425 243.879C297.57 243.625 297.642 243.337 297.642 243.013C297.642 242.689 297.57 242.401 297.425 242.147C297.281 241.89 297.082 241.691 296.829 241.551C296.575 241.41 296.293 241.34 295.981 241.34ZM298.583 242.194C298.665 242.463 298.706 242.736 298.706 243.013C298.706 243.29 298.667 243.555 298.589 243.808H300.706V242.194H298.583ZM308.625 243.317H304.976V244.662C305.939 244.658 306.769 244.635 307.467 244.592C308.165 244.545 308.879 244.459 309.608 244.335L309.725 245.235C308.953 245.368 308.192 245.458 307.444 245.504C306.699 245.551 305.787 245.575 304.707 245.575H303.865V242.451H307.537V241.223H303.853V240.323H308.625V243.317ZM311.666 242.334H313.199V243.259H311.666V246.078H310.555V239.714H311.666V242.334ZM311.666 250.172H310.555V247.505H304.742V246.604H311.666V250.172ZM319.094 245.048H314.193V240.486H319.094V245.048ZM315.281 244.148H318.006V241.375H315.281V244.148ZM322.018 242.241H323.539V243.153H322.018V245.855H320.907V239.703H322.018V242.241ZM318.638 246.183C319.348 246.183 319.964 246.263 320.486 246.423C321.008 246.582 321.41 246.813 321.691 247.113C321.972 247.409 322.112 247.762 322.112 248.171C322.112 248.589 321.972 248.947 321.691 249.247C321.41 249.548 321.008 249.778 320.486 249.938C319.967 250.097 319.351 250.179 318.638 250.183C317.917 250.179 317.291 250.097 316.761 249.938C316.234 249.778 315.829 249.548 315.544 249.247C315.259 248.947 315.117 248.589 315.117 248.171C315.117 247.762 315.259 247.409 315.544 247.113C315.829 246.813 316.236 246.582 316.766 246.423C317.297 246.263 317.92 246.183 318.638 246.183ZM318.638 247.072C318.135 247.072 317.702 247.117 317.34 247.206C316.977 247.292 316.7 247.417 316.509 247.581C316.318 247.744 316.224 247.941 316.228 248.171C316.224 248.53 316.433 248.805 316.854 248.996C317.275 249.187 317.87 249.286 318.638 249.294C319.398 249.286 319.985 249.187 320.398 248.996C320.815 248.805 321.024 248.53 321.024 248.171C321.024 247.824 320.814 247.555 320.392 247.364C319.975 247.169 319.39 247.072 318.638 247.072Z" fill="#666E79"/>
<path d="M332.06 107H302.414C301.205 107 300.23 107.98 300.23 109.183V126.747C300.23 127.955 301.21 128.93 302.414 128.93H305.686V133.795C305.686 135.247 307.438 135.973 308.465 134.946L314.481 128.93H332.06C333.268 128.93 334.243 127.95 334.243 126.747V109.183C334.243 107.975 333.263 107 332.06 107Z" fill="#0567ED"/>
<path d="M332.06 107H302.414C301.205 107 300.23 107.98 300.23 109.183V126.747C300.23 127.955 301.21 128.93 302.414 128.93H305.686V133.795C305.686 135.247 307.438 135.973 308.465 134.946L314.481 128.93H332.06C333.268 128.93 334.243 127.95 334.243 126.747V109.183C334.243 107.975 333.263 107 332.06 107Z" fill="#0567ED"/>
<path d="M312.319 155.493C312.319 155.754 312.211 155.997 312.039 156.165C311.866 156.337 311.624 156.445 311.362 156.445H294.291C293.763 156.445 293.334 156.02 293.334 155.493C293.334 155.232 293.442 154.989 293.614 154.816C293.787 154.644 294.025 154.536 294.291 154.536H311.362C311.89 154.536 312.319 154.966 312.319 155.493Z" fill="white"/>
<g filter="url(#filter5_b_63_245)">
<rect x="286.85" y="114.7" width="32.5111" height="43.6333" rx="4.27778" fill="url(#paint6_linear_63_245)" fill-opacity="0.3"/>
<rect x="286.978" y="114.829" width="32.2544" height="43.3767" rx="4.14944" stroke="url(#paint7_linear_63_245)" stroke-width="0.256667"/>
</g>
<path d="M294.549 121.544H310.377" stroke="white" stroke-width="1.71111" stroke-linecap="round"/>
<path d="M294.549 128.389H303.105" stroke="white" stroke-width="1.71111" stroke-linecap="round"/>
<rect x="293.823" y="152.473" width="18.5656" height="2.31" rx="1.155" fill="white" stroke="url(#paint8_linear_63_245)" stroke-width="0.256667"/>
<rect y="164" width="390" height="246" fill="url(#paint9_linear_63_245)"/>
<defs>
<filter id="filter0_f_63_245" x="21.3854" y="6.88542" width="187.229" height="350.229" filterUnits="userSpaceOnUse" color-interpolation-filters="sRGB">
<feFlood flood-opacity="0" result="BackgroundImageFix"/>
<feBlend mode="normal" in="SourceGraphic" in2="BackgroundImageFix" result="shape"/>
<feGaussianBlur stdDeviation="9.55729" result="effect1_foregroundBlur_63_245"/>
</filter>
<filter id="filter1_f_63_245" x="182.885" y="6.88542" width="187.229" height="187.229" filterUnits="userSpaceOnUse" color-interpolation-filters="sRGB">
<feFlood flood-opacity="0" result="BackgroundImageFix"/>
<feBlend mode="normal" in="SourceGraphic" in2="BackgroundImageFix" result="shape"/>
<feGaussianBlur stdDeviation="9.55729" result="effect1_foregroundBlur_63_245"/>
</filter>
<filter id="filter2_f_63_245" x="182.885" y="169.885" width="187.229" height="187.229" filterUnits="userSpaceOnUse" color-interpolation-filters="sRGB">
<feFlood flood-opacity="0" result="BackgroundImageFix"/>
<feBlend mode="normal" in="SourceGraphic" in2="BackgroundImageFix" result="shape"/>
<feGaussianBlur stdDeviation="9.55729" result="effect1_foregroundBlur_63_245"/>
</filter>
<filter id="filter3_b_63_245" x="98.5598" y="226.489" width="84.7659" height="106.089" filterUnits="userSpaceOnUse" color-interpolation-filters="sRGB">
<feFlood flood-opacity="0" result="BackgroundImageFix"/>
<feGaussianBlur in="BackgroundImageFix" stdDeviation="5.56111"/>
<feComposite in2="SourceAlpha" operator="in" result="effect1_backgroundBlur_63_245"/>
<feBlend mode="normal" in="SourceGraphic" in2="effect1_backgroundBlur_63_245" result="shape"/>
</filter>
<filter id="filter4_b_63_245" x="286.849" y="274.399" width="53.0482" height="53.0444" filterUnits="userSpaceOnUse" color-interpolation-filters="sRGB">
<feFlood flood-opacity="0" result="BackgroundImageFix"/>
<feGaussianBlur in="BackgroundImageFix" stdDeviation="2.99444"/>
<feComposite in2="SourceAlpha" operator="in" result="effect1_backgroundBlur_63_245"/>
<feBlend mode="normal" in="SourceGraphic" in2="effect1_backgroundBlur_63_245" result="shape"/>
</filter>
<filter id="filter5_b_63_245" x="280.861" y="108.711" width="44.4889" height="55.6111" filterUnits="userSpaceOnUse" color-interpolation-filters="sRGB">
<feFlood flood-opacity="0" result="BackgroundImageFix"/>
<feGaussianBlur in="BackgroundImageFix" stdDeviation="2.99444"/>
<feComposite in2="SourceAlpha" operator="in" result="effect1_backgroundBlur_63_245"/>
<feBlend mode="normal" in="SourceGraphic" in2="effect1_backgroundBlur_63_245" result="shape"/>
</filter>
<linearGradient id="paint0_linear_63_245" x1="114.485" y1="240.892" x2="131.037" y2="325.306" gradientUnits="userSpaceOnUse">
<stop stop-color="#5A81FF" stop-opacity="0.9"/>
<stop offset="0.463" stop-color="#567DFF" stop-opacity="0.96"/>
<stop offset="1" stop-color="#4E78FF" stop-opacity="0.9"/>
</linearGradient>
<linearGradient id="paint1_linear_63_245" x1="114.095" y1="244.206" x2="182.574" y2="298.804" gradientUnits="userSpaceOnUse">
<stop stop-color="#E7F0FF" stop-opacity="0.52"/>
<stop offset="0.483" stop-color="#88A4FF"/>
<stop offset="1" stop-color="#B4D2FF" stop-opacity="0.1"/>
</linearGradient>
<linearGradient id="paint2_linear_63_245" x1="301.596" y1="281.417" x2="305.308" y2="308.398" gradientUnits="userSpaceOnUse">
<stop stop-color="#5A81FF" stop-opacity="0.9"/>
<stop offset="0.463" stop-color="#567DFF" stop-opacity="0.96"/>
<stop offset="1" stop-color="#4E78FF" stop-opacity="0.9"/>
</linearGradient>
<linearGradient id="paint3_linear_63_245" x1="301.422" y1="282.456" x2="323.273" y2="307.285" gradientUnits="userSpaceOnUse">
<stop stop-color="#E7F0FF" stop-opacity="0.52"/>
<stop offset="0.483" stop-color="#88A4FF"/>
<stop offset="1" stop-color="#B4D2FF" stop-opacity="0.1"/>
</linearGradient>
<linearGradient id="paint4_linear_63_245" x1="295.993" y1="310.183" x2="296.504" y2="322.426" gradientUnits="userSpaceOnUse">
<stop stop-color="#5A81FF" stop-opacity="0.9"/>
<stop offset="0.463" stop-color="#567DFF" stop-opacity="0.96"/>
<stop offset="1" stop-color="#4E78FF" stop-opacity="0.9"/>
</linearGradient>
<linearGradient id="paint5_linear_63_245" x1="295.737" y1="310.647" x2="300.638" y2="328.993" gradientUnits="userSpaceOnUse">
<stop stop-color="#E7F0FF" stop-opacity="0.52"/>
<stop offset="0.483" stop-color="#88A4FF"/>
<stop offset="1" stop-color="#B4D2FF" stop-opacity="0.1"/>
</linearGradient>
<linearGradient id="paint6_linear_63_245" x1="289.347" y1="116.407" x2="297.967" y2="160.335" gradientUnits="userSpaceOnUse">
<stop stop-color="#5A81FF" stop-opacity="0.9"/>
<stop offset="0.463" stop-color="#567DFF" stop-opacity="0.96"/>
<stop offset="1" stop-color="#4E78FF" stop-opacity="0.9"/>
</linearGradient>
<linearGradient id="paint7_linear_63_245" x1="289.145" y1="118.132" x2="324.775" y2="146.518" gradientUnits="userSpaceOnUse">
<stop stop-color="#E7F0FF" stop-opacity="0.52"/>
<stop offset="0.483" stop-color="#88A4FF"/>
<stop offset="1" stop-color="#B4D2FF" stop-opacity="0.1"/>
</linearGradient>
<linearGradient id="paint8_linear_63_245" x1="295.023" y1="152.547" x2="295.563" y2="156.778" gradientUnits="userSpaceOnUse">
<stop stop-color="#E7F0FF" stop-opacity="0.52"/>
<stop offset="0.483" stop-color="#88A4FF"/>
<stop offset="1" stop-color="#B4D2FF" stop-opacity="0.1"/>
</linearGradient>
<linearGradient id="paint9_linear_63_245" x1="195" y1="164" x2="195" y2="410" gradientUnits="userSpaceOnUse">
<stop stop-color="white" stop-opacity="0"/>
<stop offset="0.958" stop-color="white"/>
</linearGradient>
<clipPath id="clip0_63_245">
<rect width="35.6086" height="35.6086" fill="white" transform="translate(274.871 277.822)"/>
</clipPath>
</defs>
</svg>
