<svg width="42" height="42" viewBox="0 0 42 42" fill="none" xmlns="http://www.w3.org/2000/svg">
<path d="M2.36592 16.3172C2.17064 14.5412 3.56128 12.9893 5.34795 12.9893H9C9.55228 12.9893 10 12.5415 10 11.9893V9C10 7.34315 11.3431 6 13 6H31C32.6569 6 34 7.34315 34 9V16.6622C34 17.2145 34.4477 17.6622 35 17.6622H36.5578C38.3776 17.6622 39.7783 19.2694 39.5297 21.0721L37.8239 33.4388C37.6192 34.9232 36.3505 36.0289 34.8521 36.0289H7.22155C5.69159 36.0289 4.40674 34.8776 4.23952 33.3568L2.36592 16.3172Z" fill="#F9F9F9"/>
<path d="M13 13.5H16C17.1046 13.5 18 14.3954 18 15.5V15.5C18 16.6046 18.8954 17.5 20 17.5H31" stroke="#1F64C3" stroke-width="2" stroke-linecap="round"/>
</svg>
