<svg width="361" height="365" viewBox="0 0 361 365" fill="none" xmlns="http://www.w3.org/2000/svg">
<g clip-path="url(#clip0_11_27)">
<path d="M152.507 105.998L173.378 37.5676C176.906 26.0077 193.65 27.2506 195.434 39.2029L206 109.95C207.153 117.699 215.63 121.957 222.546 118.284L285.685 84.6631C296.351 78.9821 307.316 91.6967 300.127 101.413L257.577 158.912C252.917 165.21 255.89 174.216 263.383 176.503L331.8 197.378C343.36 200.906 342.117 217.65 330.165 219.434L259.418 230.001C251.669 231.153 247.41 239.63 251.083 246.547L284.705 309.685C290.386 320.351 277.671 331.316 267.955 324.127L210.456 281.578C204.158 276.917 195.152 279.89 192.865 287.383L171.99 355.8C168.462 367.36 151.718 366.117 149.934 354.165L139.367 283.418C138.215 275.669 129.738 271.41 122.821 275.083L59.6831 308.705C49.0169 314.386 38.0514 301.671 45.2402 291.955L87.7901 234.456C92.4506 228.158 89.478 219.152 81.9845 216.865L13.5812 195.986C2.02121 192.457 3.26417 175.713 15.2165 173.929L85.9635 163.363C93.7123 162.21 97.9709 153.734 94.2979 146.817L60.6767 83.6787C54.9957 73.0125 67.7103 62.047 77.4263 69.2358L134.925 111.786C141.223 116.446 150.23 113.474 152.516 105.98L152.507 105.998Z" fill="#0567ED" fill-opacity="0.6"/>
<path d="M202.541 130.099L227.238 129.614C227.238 129.614 208.159 103.646 217.898 100.591C227.626 97.5263 241.822 115.232 241.822 115.232C241.822 115.232 214.431 79.1605 233.029 54.9448C251.636 30.7195 272.615 65.586 268.441 74.9451C264.257 84.2944 248.048 73.8165 256.955 45.7333C265.863 17.6502 283.475 43.1243 283.475 43.1243L280.279 3.7604" stroke="#0567ED" stroke-width="8.20389" stroke-linecap="round" stroke-linejoin="round"/>
<path d="M296.328 254.545C296.328 254.545 312.099 271.806 336.785 269.555C365.966 265.214 353.238 249.539 339.485 256.013C331.983 259.545 320.051 270.231 343.915 288.491" stroke="#0567ED" stroke-width="8.20799" stroke-linecap="round" stroke-linejoin="round"/>
</g>
<defs>
<clipPath id="clip0_11_27">
<rect width="361" height="365" fill="white"/>
</clipPath>
</defs>
</svg>
