<svg width="112" height="112" viewBox="0 0 112 112" fill="none" xmlns="http://www.w3.org/2000/svg">
<g clip-path="url(#clip0_10_40)">
<path d="M51.4914 29.0165L58.7393 9.34523C59.9644 6.0222 64.8422 6.66529 65.1646 10.1918L67.0752 31.0655C67.283 33.3516 69.6919 34.739 71.7767 33.7799L90.8091 24.9976C94.0244 23.5136 97.0202 27.4164 94.7549 30.1388L81.3471 46.2503C79.8786 48.0149 80.5979 50.6995 82.752 51.4934L102.419 58.7424C105.742 59.9675 105.099 64.8453 101.573 65.1677L80.699 67.0783C78.4128 67.2861 77.0255 69.6949 77.9846 71.7798L86.7668 90.8122C88.2508 94.0275 84.3481 97.0233 81.6256 94.758L65.5142 81.3502C63.7495 79.8816 61.065 80.601 60.2711 82.7551L53.022 102.422C51.7969 105.745 46.9192 105.102 46.5967 101.576L44.6862 80.7021C44.4784 78.4159 42.0695 77.0286 39.9847 77.9877L20.9522 86.7699C17.737 88.2539 14.7412 84.3512 17.0065 81.6287L30.4143 65.5173C31.8828 63.7526 31.1635 61.0681 29.0094 60.2741L9.34621 53.024C6.02317 51.7989 6.66626 46.9212 10.1927 46.5987L31.0664 44.6882C33.3526 44.4804 34.7399 42.0715 33.7808 39.9867L24.9986 20.9542C23.5146 17.739 27.4173 14.7432 30.1398 17.0085L46.2513 30.4163C48.0159 31.8848 50.7004 31.1655 51.4944 29.0114L51.4914 29.0165Z" fill="#0567ED" fill-opacity="0.2"/>
</g>
<defs>
<clipPath id="clip0_10_40">
<rect width="91.2513" height="91.2513" fill="white" transform="translate(0 23.6176) rotate(-15)"/>
</clipPath>
</defs>
</svg>
