<svg width="46" height="198" viewBox="0 0 46 198" fill="none" xmlns="http://www.w3.org/2000/svg">
<g clip-path="url(#clip0_320_44)">
<path d="M1.13254 80.8875L22.3992 88.0545L1.13254 95.3973L1.13254 108.618L45.4234 92.9953L45.4234 83.0747L1.13254 67.6667L1.13254 80.8875Z" fill="#020418" fill-opacity="0.1"/>
<path d="M1.13254 48.8019L45.482 48.8019L45.482 62.8235L1.13254 62.8235L1.13254 48.8019Z" fill="#020418" fill-opacity="0.1"/>
<path d="M14.2756 110.493C6.34701 111.547 0.195501 119.007 0.0197441 128.127L0.0197441 128.44C0.0197441 129.748 0.136916 130.978 0.410316 132.228C0.527488 132.853 0.683717 133.478 0.859474 134.083C0.976646 134.455 1.13287 134.826 1.25005 135.197C1.30863 135.392 1.36722 135.568 1.4258 135.685C3.02715 139.844 6.03455 143.203 9.80358 145C10.6433 145.43 11.5807 145.742 12.5181 145.996C12.7915 146.113 13.0649 146.191 13.3968 146.191C14.0022 146.308 14.6076 146.386 15.2911 146.445C15.5645 146.504 15.8965 146.504 16.1699 146.504L45.4433 146.504L45.4433 133.166L34.9174 133.166L34.9174 129.279L29.7618 129.279L24.3133 133.166L15.7598 133.166C14.9201 133.166 14.178 132.775 13.6507 132.15C13.514 131.994 13.3968 131.838 13.2992 131.662C13.2406 131.564 13.182 131.447 13.143 131.33C13.0258 131.037 12.9282 130.744 12.8891 130.432C12.8696 130.256 12.85 130.08 12.85 129.904C12.85 129.768 12.8696 129.631 12.8891 129.494C13.0649 127.873 14.2952 126.604 15.7989 126.604L45.4823 126.604L45.4823 110.395L16.209 110.395C15.545 110.395 14.9396 110.454 14.3147 110.512L14.2756 110.493Z" fill="#020418" fill-opacity="0.1"/>
<path d="M35.2296 176.597C35.8545 177.339 37.0067 177.476 37.8074 176.89L45.4431 171.344L45.4431 188.236L33.5501 188.236C26.0902 188.236 19.099 182.807 18.6693 175.992C18.6498 175.777 18.6498 175.543 18.6498 175.328L18.6498 168.668C18.6498 168.668 18.6303 168.571 18.6303 168.512L18.6303 168.473C18.6303 166.833 17.4781 165.524 15.4667 165.524C13.4552 165.524 12.2835 166.833 12.2835 168.473C12.2835 168.512 12.303 168.532 12.303 168.571C12.303 168.61 12.2835 168.629 12.2835 168.668L12.2835 186.889C12.2835 192.318 5.85858 197.805 0 197.805L-1.47335e-06 164.099C-1.48701e-06 163.786 0.0390557 163.415 0.0976415 163.025C0.11717 162.732 0.175756 162.439 0.25387 162.146C0.273399 161.99 0.312456 161.833 0.351513 161.677C0.351513 161.619 0.371042 161.56 0.39057 161.502C1.67946 156.483 6.44444 152.636 12.3421 151.991C12.7717 151.952 13.2013 151.932 13.631 151.932C15.3104 151.932 16.9313 152.128 18.4741 152.518C24.0202 154.12 28.0626 158.709 28.1212 164.157L28.1212 164.646L45.5016 151.893L45.4431 167.009L35.5421 174.195C34.7414 174.781 34.6047 175.855 35.2296 176.597Z" fill="#020418" fill-opacity="0.1"/>
<path d="M0.0195267 5.84113e-05L0.0195269 4.94079L-1.36494e-06 12.4203L0.0195276 20.0169C0.0195277 21.9893 0.331985 23.864 0.956901 25.5825C1.67946 27.6916 2.89023 29.6249 4.55016 31.3825C7.55757 34.5462 11.1704 35.464 15.3495 35.464C18.806 35.464 22.2821 34.429 25.7387 32.3199C27.9259 31.0115 29.4101 30.3475 30.035 30.1718C31.9879 29.6445 32.8276 30.6209 33.1986 30.8162L33.1986 43.6465L45.4431 43.6465L45.4431 25.5825C44.8377 23.9421 43.9589 22.4189 42.8067 21.0324C42.6114 20.7394 42.3575 20.4465 42.1037 20.1731C39.1158 16.9314 35.4639 15.291 31.1481 15.291C28.2188 15.291 25.1528 16.8532 21.9892 18.7866L19.6848 20.0755C18.3374 20.9152 16.072 21.6573 15.1737 21.6573C14.1582 21.6573 12.8108 21.462 12.2835 20.5637L12.2835 12.2445C12.2835 5.46808 6.79595 -0.0194747 0.0195267 -0.0194744L0.0195267 5.84113e-05Z" fill="#020418" fill-opacity="0.1"/>
</g>
<defs>
<clipPath id="clip0_320_44">
<rect width="197.805" height="45.5016" fill="white" transform="translate(0 197.805) rotate(-90)"/>
</clipPath>
</defs>
</svg>
